<svg xmlns="http://www.w3.org/2000/svg" fill="none" viewBox="0 0 78 18">
  <path fill="#FC8805" d="M9.716.14h4.569a2.998 2.998 0 0 1-2.98 3H6.736a2.98 2.98 0 0 1 2.959-3h.027-.006Z"/>
  <path fill="#D84133" d="M16.762 4.44c.013.028 2.277 3.95 2.277 3.95a2.98 2.98 0 0 1-4.08-1.073l-.014-.028c-.014-.027-2.277-3.95-2.277-3.95a3 3 0 0 1 4.094 1.095v.007Z"/>
  <path fill="#21BCA5" d="M4.1 9.484c.015.028 2.279 3.95 2.279 3.95a2.98 2.98 0 0 1-4.08-1.073l-.015-.028c-.013-.027-2.277-3.95-2.277-3.95a3.024 3.024 0 0 1 4.1 1.101h-.006Z"/>
  <path fill="#E9B213" d="M5.855 4.234c-.013.028-2.277 3.95-2.277 3.95a3 3 0 0 1-1.094-4.101C2.498 4.055 4.76.133 4.76.133a2.994 2.994 0 0 1 1.101 4.088v.013h-.007Z"/>
  <path fill="#1F2348" d="M16.562 12.698c-.014.027-2.277 3.95-2.277 3.95a3.002 3.002 0 0 1-1.094-4.102c.013-.027 2.277-3.95 2.277-3.95a3 3 0 0 1 1.094 4.095v.007Z"/>
  <path fill="#0A85CB" d="M7.748 13.647h4.569a2.994 2.994 0 0 1-2.98 3H4.768a3 3 0 0 1 2.987-3h-.007Z"/>
  <path fill="white" d="M28.172 8.848V2.855h2.622c.66 0 1.163.158 1.527.468.365.31.537.743.544 1.3a1.8 1.8 0 0 1-.24.943 1.528 1.528 0 0 1-.689.599c-.09.04-.186.082-.282.11.096.034.179.075.262.13.206.145.364.338.46.571l.874 1.879h-1.21l-.881-1.947a.662.662 0 0 0-.365-.393 1.684 1.684 0 0 0-.585-.096h-.936v2.43h-1.1Zm1.101-3.24h1.342c.385 0 .681-.083.874-.242a.869.869 0 0 0 .303-.708.857.857 0 0 0-.303-.71c-.2-.157-.495-.24-.874-.24h-1.342v1.9ZM35.803 8.848V6.33l-2.34-3.482h1.267l1.644 2.539 1.652-2.539h1.224l-2.346 3.489V8.84H35.81l-.007.007ZM73.985 8.848V6.33l-2.346-3.482h1.266l1.644 2.539 1.658-2.539h1.225l-2.346 3.489V8.84h-1.101v.007ZM24.698 8.93a3.186 3.186 0 0 1-1.604-.378A2.53 2.53 0 0 1 22.07 7.48a3.538 3.538 0 0 1-.358-1.638 3.51 3.51 0 0 1 .358-1.63 2.553 2.553 0 0 1 1.025-1.067 3.242 3.242 0 0 1 1.604-.379c.385 0 .77.055 1.135.18.323.11.626.288.874.53l-.358.866a2.73 2.73 0 0 0-.77-.46 2.35 2.35 0 0 0-.847-.139c-.606 0-1.067.186-1.39.55-.316.366-.482.889-.482 1.563 0 .674.159 1.197.482 1.562.323.365.784.55 1.39.55.289 0 .578-.041.846-.137.282-.117.537-.276.77-.475l.359.867a2.59 2.59 0 0 1-.874.53c-.365.13-.75.192-1.135.186V8.93ZM40.227 8.848V2.855h2.657c.66 0 1.155.158 1.507.475.343.316.516.757.516 1.307 0 .55-.172.984-.516 1.307-.345.324-.847.489-1.508.489h-1.561v2.415h-1.095Zm1.095-3.282h1.438c.364 0 .633-.083.819-.24a.994.994 0 0 0 0-1.37c-.18-.158-.455-.241-.82-.241h-1.437v1.85ZM47.466 8.848V3.756h-1.982v-.901h5.058v.901H48.56v5.092h-1.094ZM51.01 5.848a3.603 3.603 0 0 1 .344-1.63c.213-.448.557-.82.984-1.067a3.313 3.313 0 0 1 3.069 0c.426.247.777.619.998 1.066.247.503.364 1.06.35 1.624a3.64 3.64 0 0 1-.35 1.638c-.22.447-.572.819-.998 1.073a3.26 3.26 0 0 1-3.062 0 2.512 2.512 0 0 1-.984-1.073 3.6 3.6 0 0 1-.351-1.624v-.007Zm1.149 0c0 .674.145 1.204.44 1.583.29.378.723.57 1.294.57.571 0 .984-.192 1.287-.57.302-.379.454-.909.447-1.583 0-.681-.152-1.204-.447-1.583-.296-.378-.73-.557-1.287-.557-.557 0-1.005.186-1.294.557-.289.372-.433.902-.44 1.583ZM60.705 8.93a3.144 3.144 0 0 1-1.596-.378 2.53 2.53 0 0 1-1.026-1.073 3.536 3.536 0 0 1-.358-1.638 3.527 3.527 0 0 1 .358-1.63 2.553 2.553 0 0 1 1.026-1.067 3.241 3.241 0 0 1 1.603-.379c.385 0 .77.055 1.135.18.323.11.626.288.874.53l-.358.866a2.731 2.731 0 0 0-.77-.46 2.349 2.349 0 0 0-.847-.139c-.605 0-1.066.186-1.39.55-.323.366-.482.889-.482 1.563 0 .674.159 1.197.482 1.562.324.365.785.55 1.39.55.29 0 .578-.041.846-.137.282-.117.537-.276.771-.475l.358.867a2.59 2.59 0 0 1-.874.53c-.365.13-.75.192-1.142.192v-.013ZM64.063 8.848V2.855h1.094v5.993h-1.094ZM68.143 8.848V3.756h-1.982v-.901h5.058v.901h-1.982v5.092h-1.094ZM22.426 15.764V10.34h3.37v.408h-2.909v2.062h2.74v.408h-2.74v2.139h2.909v.407h-3.37Zm3.947 0 1.692-2.115v.253l-1.608-1.992h.577l1.293 1.638h-.17l1.293-1.638h.562l-1.577 1.977v-.215l1.677 2.092h-.585l-1.37-1.746h.17l-1.385 1.746h-.57Zm6.013.062c-.364 0-.682-.08-.954-.239a1.642 1.642 0 0 1-.63-.7c-.144-.302-.216-.662-.216-1.077 0-.415.074-.77.223-1.062.149-.297.357-.523.623-.677.272-.154.59-.23.954-.23.247 0 .482.046.708.138.231.092.42.22.57.385l-.193.346a1.497 1.497 0 0 0-.515-.347 1.431 1.431 0 0 0-.554-.115c-.42 0-.75.134-.985.4-.236.267-.354.657-.354 1.17 0 .513.118.91.354 1.192.236.277.564.416.985.416.174 0 .354-.036.538-.108.19-.072.367-.19.531-.354l.193.346a1.572 1.572 0 0 1-.585.385c-.231.087-.462.131-.693.131Zm2.226-.062v-5.663h.469v2.701h-.092c.107-.313.29-.551.546-.716a1.62 1.62 0 0 1 .893-.246c.466 0 .81.123 1.03.37.226.246.34.615.34 1.108v2.446h-.47v-2.408c0-.39-.077-.672-.231-.846-.154-.175-.4-.262-.739-.262-.384 0-.695.118-.93.354-.232.236-.347.549-.347.939v2.223h-.47Zm5.91.062c-.349 0-.652-.08-.908-.239a1.552 1.552 0 0 1-.593-.684c-.138-.298-.207-.654-.207-1.07 0-.415.069-.77.207-1.062a1.6 1.6 0 0 1 .6-.685c.257-.164.557-.246.9-.246.355 0 .66.093.916.277.262.185.434.436.516.754h-.092l.077-.961h.453l-.046.438c-.01.144-.015.285-.015.423v2.993h-.47v-.961h.085c-.082.318-.254.569-.515.754-.257.18-.56.269-.908.269Zm.061-.4c.395 0 .708-.136.94-.408.23-.272.345-.667.345-1.185s-.115-.913-.346-1.185c-.23-.272-.544-.408-.939-.408-.395 0-.71.136-.946.408-.23.272-.346.667-.346 1.185s.115.913.346 1.185c.236.272.551.408.946.408Zm3.023.338v-2.993a5.918 5.918 0 0 0-.062-.861h.462l.07.884h-.093c.113-.307.295-.543.546-.708.252-.164.544-.246.877-.246.457 0 .8.12 1.031.362.236.241.354.618.354 1.131v2.431h-.47v-2.393c0-.395-.079-.68-.238-.854-.159-.18-.405-.269-.738-.269-.39 0-.7.118-.931.354-.226.236-.339.554-.339.954v2.208h-.47Zm6.11 1.716a3.06 3.06 0 0 1-.908-.13 2.31 2.31 0 0 1-.746-.393l.17-.362c.163.118.32.21.468.277a2.483 2.483 0 0 0 1.008.208c.39 0 .685-.105.885-.315.2-.206.3-.503.3-.893V14.65h.085a1.288 1.288 0 0 1-.516.762c-.261.179-.569.269-.923.269-.354 0-.662-.077-.923-.231a1.62 1.62 0 0 1-.6-.67 2.366 2.366 0 0 1-.208-1.023c0-.39.07-.728.208-1.015.143-.288.343-.508.6-.662.261-.16.57-.239.923-.239.354 0 .662.093.923.277.262.18.434.434.516.762l-.085-.085.07-.884h.461a6.745 6.745 0 0 0-.061.861v3.032c0 .554-.141.972-.423 1.254-.277.282-.685.423-1.224.423Zm-.123-2.2c.4 0 .715-.134.946-.4.236-.267.354-.642.354-1.124 0-.477-.118-.849-.354-1.116-.23-.266-.546-.4-.946-.4-.4 0-.718.134-.954.4-.236.267-.354.64-.354 1.116 0 .482.118.857.354 1.124.236.266.554.4.954.4Zm4.691.546c-.584 0-1.049-.174-1.392-.523-.339-.35-.508-.834-.508-1.455 0-.41.074-.764.223-1.061.154-.298.367-.529.639-.693.271-.17.587-.254.946-.254.344 0 .633.075.87.223.236.144.418.352.546.624.128.266.192.585.192.954v.215h-3.078v-.338h2.786l-.131.1c0-.436-.1-.777-.3-1.024-.2-.251-.498-.377-.893-.377-.42 0-.749.146-.984.439-.236.287-.355.67-.355 1.146v.054c0 .513.126.903.378 1.17.256.267.613.4 1.07.4.235 0 .456-.036.66-.108a1.72 1.72 0 0 0 .593-.37l.193.347c-.164.17-.377.3-.639.393a2.434 2.434 0 0 1-.816.138Z"/>
</svg>
