<svg width="115" height="115" viewBox="0 0 115 115" fill="none" xmlns="http://www.w3.org/2000/svg">
<path d="M26.3078 3.18256C27.1865 3.18256 27.8989 2.47023 27.8989 1.59152C27.8989 0.712819 27.1865 0.000488281 26.3078 0.000488281C25.4291 0.000488281 24.7168 0.712819 24.7168 1.59152C24.7168 2.47023 25.4291 3.18256 26.3078 3.18256Z" fill="black"/>
<path d="M34.0786 3.18256H30.8965V1.59152C30.8965 0.689936 31.5859 0.000488281 32.4875 0.000488281H34.0786V3.18256Z" fill="black"/>
<path d="M35.5754 3.18256H33.9844V0.000488281H35.5754C36.477 0.000488281 37.1664 0.689936 37.1664 1.59152C37.1664 2.49311 36.477 3.18256 35.5754 3.18256Z" fill="black"/>
<path d="M49.5239 3.18256H46.3418V1.59152C46.3418 0.689936 47.0312 0.000488281 47.9328 0.000488281C48.8344 0.000488281 49.5239 0.689936 49.5239 1.59152V3.18256Z" fill="black"/>
<path d="M58.7914 3.18256H57.2004C56.2988 3.18256 55.6094 2.49311 55.6094 1.59152C55.6094 0.689936 56.2988 0.000488281 57.2004 0.000488281H58.7914V3.18256Z" fill="black"/>
<path d="M61.8813 0.000488281H58.6992V3.18256H61.8813V0.000488281Z" fill="black"/>
<path d="M64.9711 0.000488281H61.7891V3.18256H64.9711V0.000488281Z" fill="black"/>
<path d="M66.468 3.18256H64.877V0.000488281H66.468C67.3696 0.000488281 68.059 0.689936 68.059 1.59152C68.059 2.49311 67.3696 3.18256 66.468 3.18256Z" fill="black"/>
<path d="M34.0786 3.08936H30.8965V6.27142H34.0786V3.08936Z" fill="black"/>
<path d="M46.436 6.27142H43.2539V4.68039C43.2539 3.7788 43.9434 3.08936 44.8449 3.08936H46.436V6.27142Z" fill="black"/>
<path d="M47.9328 6.27142H46.3418V3.08936H49.5239V4.68039C49.5239 5.58198 48.8344 6.27142 47.9328 6.27142Z" fill="black"/>
<path d="M55.7016 6.27142H52.5195V4.68039C52.5195 3.7788 53.209 3.08936 54.1106 3.08936C55.0122 3.08936 55.7016 3.7788 55.7016 4.68039V6.27142Z" fill="black"/>
<path d="M64.9711 3.08936H61.7891V6.27142H64.9711V3.08936Z" fill="black"/>
<path d="M74.2387 6.27142H71.0566V4.68039C71.0566 3.7788 71.7461 3.08936 72.6477 3.08936H74.2387V6.27142Z" fill="black"/>
<path d="M75.7375 6.27142H74.1465V3.08936H75.7375C76.6391 3.08936 77.3286 3.7788 77.3286 4.68039C77.3286 5.58198 76.6391 6.27142 75.7375 6.27142Z" fill="black"/>
<path d="M86.5981 6.27142H83.416V4.68039C83.416 3.7788 84.1055 3.08936 85.0071 3.08936H86.5981V6.27142Z" fill="black"/>
<path d="M89.686 6.27142H86.5039V3.08936H88.0949C88.9965 3.08936 89.686 3.7788 89.686 4.68039V6.27142Z" fill="black"/>
<path d="M34.0786 6.1803H30.8965V9.36237H34.0786V6.1803Z" fill="black"/>
<path d="M37.1664 9.36237H33.9844V6.1803H35.5754C36.477 6.1803 37.1664 6.86975 37.1664 7.77133V9.36237Z" fill="black"/>
<path d="M43.3442 9.36237H41.7531C40.8516 9.36237 40.1621 8.67292 40.1621 7.77133C40.1621 6.86975 40.8516 6.1803 41.7531 6.1803H43.3442V9.36237Z" fill="black"/>
<path d="M44.8449 9.36237H43.2539V6.1803H46.436V7.77133C46.436 8.67292 45.7465 9.36237 44.8449 9.36237Z" fill="black"/>
<path d="M52.6137 9.36237H51.0227C50.1211 9.36237 49.4316 8.67292 49.4316 7.77133C49.4316 6.86975 50.1211 6.1803 51.0227 6.1803H52.6137V9.36237Z" fill="black"/>
<path d="M55.7016 6.1803H52.5195V9.36237H55.7016V6.1803Z" fill="black"/>
<path d="M64.9711 6.1803H61.7891V9.36237H64.9711V6.1803Z" fill="black"/>
<path d="M68.059 6.1803H64.877V9.36237H68.059V6.1803Z" fill="black"/>
<path d="M71.1489 6.1803H67.9668V9.36237H71.1489V6.1803Z" fill="black"/>
<path d="M74.2387 6.1803H71.0566V9.36237H74.2387V6.1803Z" fill="black"/>
<path d="M86.5981 9.36237H85.0071C84.1055 9.36237 83.416 8.67292 83.416 7.77133V6.1803H86.5981V9.36237Z" fill="black"/>
<path d="M88.0949 9.36237H86.5039V6.1803H89.686V7.77133C89.686 8.67292 88.9965 9.36237 88.0949 9.36237Z" fill="black"/>
<path d="M34.0786 9.26917H30.8965V12.4512H34.0786V9.26917Z" fill="black"/>
<path d="M37.1664 9.26917H33.9844V12.4512H37.1664V9.26917Z" fill="black"/>
<path d="M54.1106 12.4512C53.209 12.4512 52.5195 11.7618 52.5195 10.8602V9.26917H55.7016V10.8602C55.7016 11.7618 55.0122 12.4512 54.1106 12.4512Z" fill="black"/>
<path d="M61.8813 12.4512H58.6992V10.8602C58.6992 9.95861 59.3887 9.26917 60.2903 9.26917H61.8813V12.4512Z" fill="black"/>
<path d="M63.3801 12.4512H61.7891V9.26917H64.9711V10.8602C64.9711 11.7618 64.2817 12.4512 63.3801 12.4512Z" fill="black"/>
<path d="M74.2387 9.26917H71.0566V12.4512H74.2387V9.26917Z" fill="black"/>
<path d="M77.3286 9.26917H74.1465V12.4512H77.3286V9.26917Z" fill="black"/>
<path d="M80.4184 9.26917H77.2363V12.4512H80.4184V9.26917Z" fill="black"/>
<path d="M81.9153 12.4512H80.3242V9.26917H81.9153C82.8168 9.26917 83.5063 9.95861 83.5063 10.8602C83.5063 11.7618 82.8168 12.4512 81.9153 12.4512Z" fill="black"/>
<path d="M27.8989 15.5402H24.7168V13.9492C24.7168 13.0476 25.4062 12.3582 26.3078 12.3582C27.2094 12.3582 27.8989 13.0476 27.8989 13.9492V15.5402Z" fill="black"/>
<path d="M34.0786 12.3582H30.8965V15.5402H34.0786V12.3582Z" fill="black"/>
<path d="M37.1664 12.3582H33.9844V15.5402H37.1664V12.3582Z" fill="black"/>
<path d="M41.7531 15.5402C42.6318 15.5402 43.3442 14.8279 43.3442 13.9492C43.3442 13.0705 42.6318 12.3582 41.7531 12.3582C40.8744 12.3582 40.1621 13.0705 40.1621 13.9492C40.1621 14.8279 40.8744 15.5402 41.7531 15.5402Z" fill="black"/>
<path d="M52.6137 15.5402H49.4316V13.9492C49.4316 13.0476 50.1211 12.3582 51.0227 12.3582C51.9243 12.3582 52.6137 13.0476 52.6137 13.9492V15.5402Z" fill="black"/>
<path d="M58.7914 15.5402H57.2004C56.2988 15.5402 55.6094 14.8508 55.6094 13.9492C55.6094 13.0476 56.2988 12.3582 57.2004 12.3582H58.7914V15.5402Z" fill="black"/>
<path d="M60.2903 15.5402H58.6992V12.3582H61.8813V13.9492C61.8813 14.8508 61.1918 15.5402 60.2903 15.5402Z" fill="black"/>
<path d="M68.059 15.5402H64.877V13.9492C64.877 13.0476 65.5664 12.3582 66.468 12.3582C67.3696 12.3582 68.059 13.0476 68.059 13.9492V15.5402Z" fill="black"/>
<path d="M72.6477 15.5402C71.7461 15.5402 71.0566 14.8508 71.0566 13.9492V12.3582H74.2387V13.9492C74.2387 14.8508 73.5493 15.5402 72.6477 15.5402Z" fill="black"/>
<path d="M80.4184 12.3582H77.2363V15.5402H80.4184V12.3582Z" fill="black"/>
<path d="M27.8989 15.447H24.7168V18.6291H27.8989V15.447Z" fill="black"/>
<path d="M34.0786 15.447H30.8965V18.6291H34.0786V15.447Z" fill="black"/>
<path d="M35.5754 18.6291H33.9844V15.447H37.1664V17.0381C37.1664 17.9396 36.477 18.6291 35.5754 18.6291Z" fill="black"/>
<path d="M52.6137 15.447H49.4316V18.6291H52.6137V15.447Z" fill="black"/>
<path d="M64.9711 18.6291H61.7891V17.0381C61.7891 16.1365 62.4785 15.447 63.3801 15.447H64.9711V18.6291Z" fill="black"/>
<path d="M66.468 18.6291H64.877V15.447H68.059V17.0381C68.059 17.9396 67.3696 18.6291 66.468 18.6291Z" fill="black"/>
<path d="M80.4184 18.6291H78.8274C77.9258 18.6291 77.2363 17.9396 77.2363 17.0381V15.447H80.4184V18.6291Z" fill="black"/>
<path d="M83.5063 15.447H80.3242V18.6291H83.5063V15.447Z" fill="black"/>
<path d="M86.5981 15.447H83.416V18.6291H86.5981V15.447Z" fill="black"/>
<path d="M89.686 18.6291H86.5039V15.447H88.0949C88.9965 15.447 89.686 16.1365 89.686 17.0381V18.6291Z" fill="black"/>
<path d="M26.3078 21.72C25.4062 21.72 24.7168 21.0306 24.7168 20.129V18.538H27.8989V20.129C27.8989 21.0306 27.2094 21.72 26.3078 21.72Z" fill="black"/>
<path d="M34.0786 18.538H30.8965V21.72H34.0786V18.538Z" fill="black"/>
<path d="M38.6653 21.72C39.544 21.72 40.2563 21.0077 40.2563 20.129C40.2563 19.2503 39.544 18.538 38.6653 18.538C37.7865 18.538 37.0742 19.2503 37.0742 20.129C37.0742 21.0077 37.7865 21.72 38.6653 21.72Z" fill="black"/>
<path d="M44.8449 21.72C45.7236 21.72 46.436 21.0077 46.436 20.129C46.436 19.2503 45.7236 18.538 44.8449 18.538C43.9662 18.538 43.2539 19.2503 43.2539 20.129C43.2539 21.0077 43.9662 21.72 44.8449 21.72Z" fill="black"/>
<path d="M52.6137 18.538H49.4316V21.72H52.6137V18.538Z" fill="black"/>
<path d="M57.2004 21.72C58.0791 21.72 58.7914 21.0077 58.7914 20.129C58.7914 19.2503 58.0791 18.538 57.2004 18.538C56.3217 18.538 55.6094 19.2503 55.6094 20.129C55.6094 21.0077 56.3217 21.72 57.2004 21.72Z" fill="black"/>
<path d="M64.9711 18.538H61.7891V21.72H64.9711V18.538Z" fill="black"/>
<path d="M71.1489 21.72H67.9668V20.129C67.9668 19.2274 68.6562 18.538 69.5578 18.538C70.4594 18.538 71.1489 19.2274 71.1489 20.129V21.72Z" fill="black"/>
<path d="M77.3286 21.72H74.1465V20.129C74.1465 19.2274 74.8359 18.538 75.7375 18.538C76.6391 18.538 77.3286 19.2274 77.3286 20.129V21.72Z" fill="black"/>
<path d="M81.9153 21.72C81.0137 21.72 80.3242 21.0306 80.3242 20.129V18.538H83.5063V20.129C83.5063 21.0306 82.8168 21.72 81.9153 21.72Z" fill="black"/>
<path d="M89.686 18.538H86.5039V21.72H89.686V18.538Z" fill="black"/>
<path d="M30.9868 24.809H27.8047V23.218C27.8047 22.3164 28.4941 21.627 29.3957 21.627H30.9868V24.809Z" fill="black"/>
<path d="M32.4875 24.809H30.8965V21.627H34.0786V23.218C34.0786 24.1196 33.3891 24.809 32.4875 24.809Z" fill="black"/>
<path d="M41.7531 24.809C42.6318 24.809 43.3442 24.0967 43.3442 23.218C43.3442 22.3393 42.6318 21.627 41.7531 21.627C40.8744 21.627 40.1621 22.3393 40.1621 23.218C40.1621 24.0967 40.8744 24.809 41.7531 24.809Z" fill="black"/>
<path d="M49.5239 24.809H47.9328C47.0312 24.809 46.3418 24.1196 46.3418 23.218C46.3418 22.3164 47.0312 21.627 47.9328 21.627H49.5239V24.809Z" fill="black"/>
<path d="M52.6137 21.6267H49.4316V24.8088H52.6137V21.6267Z" fill="black"/>
<path d="M64.9711 21.6267H61.7891V24.8088H64.9711V21.6267Z" fill="black"/>
<path d="M68.059 21.627H64.877V24.809H68.059V21.627Z" fill="black"/>
<path d="M71.1489 21.627H67.9668V24.809H71.1489V21.627Z" fill="black"/>
<path d="M77.3286 21.627H74.1465V24.809H77.3286V21.627Z" fill="black"/>
<path d="M78.8274 24.8088H77.2363V21.6267H78.8274C79.7289 21.6267 80.4184 22.3162 80.4184 23.2177C80.4184 24.1193 79.7289 24.8088 78.8274 24.8088Z" fill="black"/>
<path d="M89.686 21.627H86.5039V24.809H89.686V21.627Z" fill="black"/>
<path d="M6.27191 27.8979H4.68088C3.77929 27.8979 3.08984 27.2084 3.08984 26.3069C3.08984 25.4053 3.77929 24.7158 4.68088 24.7158H6.27191V27.8979Z" fill="black"/>
<path d="M9.36176 24.7158H6.17969V27.8979H9.36176V24.7158Z" fill="black"/>
<path d="M12.4516 24.7161H9.26953V27.8981H12.4516V24.7161Z" fill="black"/>
<path d="M15.5395 24.7158H12.3574V27.8979H15.5395V24.7158Z" fill="black"/>
<path d="M18.6293 24.7158H15.4473V27.8979H18.6293V24.7158Z" fill="black"/>
<path d="M21.7192 24.7158H18.5371V27.8979H21.7192V24.7158Z" fill="black"/>
<path d="M23.218 27.8981H21.627V24.7161H23.218C24.1196 24.7161 24.809 25.4055 24.809 26.3071C24.809 27.2087 24.1196 27.8981 23.218 27.8981Z" fill="black"/>
<path d="M30.9868 24.7158H27.8047V27.8979H30.9868V24.7158Z" fill="black"/>
<path d="M37.1664 27.8979H33.9844V26.3069C33.9844 25.4053 34.6738 24.7158 35.5754 24.7158C36.477 24.7158 37.1664 25.4053 37.1664 26.3069V27.8979Z" fill="black"/>
<path d="M52.6137 27.8981H51.0227C50.1211 27.8981 49.4316 27.2087 49.4316 26.3071V24.7161H52.6137V27.8981Z" fill="black"/>
<path d="M54.1106 27.8979H52.5195V24.7158H54.1106C55.0122 24.7158 55.7016 25.4053 55.7016 26.3069C55.7016 27.2084 55.0122 27.8979 54.1106 27.8979Z" fill="black"/>
<path d="M64.9711 24.7161H61.7891V27.8981H64.9711V24.7161Z" fill="black"/>
<path d="M71.1489 24.7158H67.9668V27.8979H71.1489V24.7158Z" fill="black"/>
<path d="M74.2387 24.7158H71.0566V27.8979H74.2387V24.7158Z" fill="black"/>
<path d="M75.7375 27.8979H74.1465V24.7158H77.3286V26.3069C77.3286 27.2084 76.6391 27.8979 75.7375 27.8979Z" fill="black"/>
<path d="M81.9153 27.8979C82.794 27.8979 83.5063 27.1856 83.5063 26.3069C83.5063 25.4282 82.794 24.7158 81.9153 24.7158C81.0365 24.7158 80.3242 25.4282 80.3242 26.3069C80.3242 27.1856 81.0365 27.8979 81.9153 27.8979Z" fill="black"/>
<path d="M88.0949 27.8979C87.1934 27.8979 86.5039 27.2084 86.5039 26.3069V24.7158H89.686V26.3069C89.686 27.2084 88.9965 27.8979 88.0949 27.8979Z" fill="black"/>
<path d="M98.9536 27.8979H95.7715V26.3069C95.7715 25.4053 96.4609 24.7158 97.3625 24.7158H98.9536V27.8979Z" fill="black"/>
<path d="M102.043 27.8979H98.8613V24.7158H100.452C101.354 24.7158 102.043 25.4053 102.043 26.3069V27.8979Z" fill="black"/>
<path d="M112.81 27.8979C113.688 27.8979 114.401 27.1856 114.401 26.3069C114.401 25.4282 113.688 24.7158 112.81 24.7158C111.931 24.7158 111.219 25.4282 111.219 26.3069C111.219 27.1856 111.931 27.8979 112.81 27.8979Z" fill="black"/>
<path d="M12.4516 27.8048H9.26953V30.9869H12.4516V27.8048Z" fill="black"/>
<path d="M15.5395 27.8048H12.3574V30.9869H15.5395V27.8048Z" fill="black"/>
<path d="M27.8989 30.9869H26.3078C25.4062 30.9869 24.7168 30.2974 24.7168 29.3958C24.7168 28.4943 25.4062 27.8048 26.3078 27.8048H27.8989V30.9869Z" fill="black"/>
<path d="M29.3957 30.9869H27.8047V27.8048H30.9868V29.3958C30.9868 30.2974 30.2973 30.9869 29.3957 30.9869Z" fill="black"/>
<path d="M37.1664 27.8048H33.9844V30.9869H37.1664V27.8048Z" fill="black"/>
<path d="M43.3442 30.9869H41.7531C40.8516 30.9869 40.1621 30.2974 40.1621 29.3958C40.1621 28.4943 40.8516 27.8048 41.7531 27.8048H43.3442V30.9869Z" fill="black"/>
<path d="M46.436 30.9869H43.2539V27.8048H44.8449C45.7465 27.8048 46.436 28.4943 46.436 29.3958V30.9869Z" fill="black"/>
<path d="M61.8813 30.9869H58.6992V29.3958C58.6992 28.4943 59.3887 27.8048 60.2903 27.8048H61.8813V30.9869Z" fill="black"/>
<path d="M64.9711 27.8048H61.7891V30.9869H64.9711V27.8048Z" fill="black"/>
<path d="M68.059 27.8048H64.877V30.9869H68.059V27.8048Z" fill="black"/>
<path d="M71.1489 27.8048H67.9668V30.9869H71.1489V27.8048Z" fill="black"/>
<path d="M72.6477 30.9869H71.0566V27.8048H74.2387V29.3958C74.2387 30.2974 73.5493 30.9869 72.6477 30.9869Z" fill="black"/>
<path d="M80.4184 30.9869H77.2363V29.3958C77.2363 28.4943 77.9258 27.8048 78.8274 27.8048C79.7289 27.8048 80.4184 28.4943 80.4184 29.3958V30.9869Z" fill="black"/>
<path d="M86.5981 30.9869H83.416V29.3958C83.416 28.4943 84.1055 27.8048 85.0071 27.8048C85.9086 27.8048 86.5981 28.4943 86.5981 29.3958V30.9869Z" fill="black"/>
<path d="M95.8637 30.9869H92.6816V29.3958C92.6816 28.4943 93.3711 27.8048 94.2727 27.8048H95.8637V30.9869Z" fill="black"/>
<path d="M98.9536 27.8048H95.7715V30.9869H98.9536V27.8048Z" fill="black"/>
<path d="M102.043 27.8048H98.8613V30.9869H102.043V27.8048Z" fill="black"/>
<path d="M108.221 30.9869H105.039V29.3958C105.039 28.4943 105.729 27.8048 106.63 27.8048C107.532 27.8048 108.221 28.4943 108.221 29.3958V30.9869Z" fill="black"/>
<path d="M9.36176 34.0777H6.17969V32.4867C6.17969 31.5851 6.86914 30.8956 7.77072 30.8956H9.36176V34.0777Z" fill="black"/>
<path d="M12.4516 30.8956H9.26953V34.0777H12.4516V30.8956Z" fill="black"/>
<path d="M15.5395 30.8956H12.3574V34.0777H15.5395V30.8956Z" fill="black"/>
<path d="M18.6293 30.8956H15.4473V34.0777H18.6293V30.8956Z" fill="black"/>
<path d="M20.1281 34.0777H18.5371V30.8956H20.1281C21.0297 30.8956 21.7192 31.5851 21.7192 32.4867C21.7192 33.3883 21.0297 34.0777 20.1281 34.0777Z" fill="black"/>
<path d="M37.1664 30.8956H33.9844V34.0777H37.1664V30.8956Z" fill="black"/>
<path d="M38.6653 34.0777H37.0742V30.8956H38.6653C39.5668 30.8956 40.2563 31.5851 40.2563 32.4867C40.2563 33.3883 39.5668 34.0777 38.6653 34.0777Z" fill="black"/>
<path d="M44.8449 34.0777C43.9434 34.0777 43.2539 33.3883 43.2539 32.4867V30.8956H46.436V32.4867C46.436 33.3883 45.7465 34.0777 44.8449 34.0777Z" fill="black"/>
<path d="M52.6137 34.0777H49.4316V32.4867C49.4316 31.5851 50.1211 30.8956 51.0227 30.8956H52.6137V34.0777Z" fill="black"/>
<path d="M55.7016 30.8956H52.5195V34.0777H55.7016V30.8956Z" fill="black"/>
<path d="M58.7914 30.8956H55.6094V34.0777H58.7914V30.8956Z" fill="black"/>
<path d="M61.8813 30.8956H58.6992V34.0777H61.8813V30.8956Z" fill="black"/>
<path d="M68.059 30.8956H64.877V34.0777H68.059V30.8956Z" fill="black"/>
<path d="M69.5578 34.0777H67.9668V30.8956H71.1489V32.4867C71.1489 33.3883 70.4594 34.0777 69.5578 34.0777Z" fill="black"/>
<path d="M80.4184 34.0777H78.8274C77.9258 34.0777 77.2363 33.3883 77.2363 32.4867V30.8956H80.4184V34.0777Z" fill="black"/>
<path d="M83.5063 30.8956H80.3242V34.0777H83.5063V30.8956Z" fill="black"/>
<path d="M86.5981 30.8956H83.416V34.0777H86.5981V30.8956Z" fill="black"/>
<path d="M88.0949 34.0777H86.5039V30.8956H88.0949C88.9965 30.8956 89.686 31.5851 89.686 32.4867C89.686 33.3883 88.9965 34.0777 88.0949 34.0777Z" fill="black"/>
<path d="M95.8637 30.8956H92.6816V34.0777H95.8637V30.8956Z" fill="black"/>
<path d="M102.043 30.8956H98.8613V34.0777H102.043V30.8956Z" fill="black"/>
<path d="M105.133 30.8956H101.951V34.0777H105.133V30.8956Z" fill="black"/>
<path d="M108.221 30.8956H105.039V34.0777H108.221V30.8956Z" fill="black"/>
<path d="M111.311 30.8956H108.129V34.0777H111.311V30.8956Z" fill="black"/>
<path d="M112.81 34.0777H111.219V30.8956H112.81C113.711 30.8956 114.401 31.5851 114.401 32.4867C114.401 33.3883 113.711 34.0777 112.81 34.0777Z" fill="black"/>
<path d="M1.59103 37.1667C2.46974 37.1667 3.18207 36.4544 3.18207 35.5757C3.18207 34.6969 2.46974 33.9846 1.59103 33.9846C0.71233 33.9846 0 34.6969 0 35.5757C0 36.4544 0.71233 37.1667 1.59103 37.1667Z" fill="black"/>
<path d="M9.36176 37.1667H7.77072C6.86914 37.1667 6.17969 36.4772 6.17969 35.5757V33.9846H9.36176V37.1667Z" fill="black"/>
<path d="M12.4516 33.9846H9.26953V37.1667H12.4516V33.9846Z" fill="black"/>
<path d="M15.5395 33.9846H12.3574V37.1667H15.5395V33.9846Z" fill="black"/>
<path d="M24.809 37.1667H23.218C22.3164 37.1667 21.627 36.4772 21.627 35.5757C21.627 34.6741 22.3164 33.9846 23.218 33.9846H24.809V37.1667Z" fill="black"/>
<path d="M26.3078 37.1667H24.7168V33.9846H26.3078C27.2094 33.9846 27.8989 34.6741 27.8989 35.5757C27.8989 36.4772 27.2094 37.1667 26.3078 37.1667Z" fill="black"/>
<path d="M37.1664 33.9846H33.9844V37.1667H37.1664V33.9846Z" fill="black"/>
<path d="M43.3442 37.1667H40.1621V35.5757C40.1621 34.6741 40.8516 33.9846 41.7531 33.9846C42.6547 33.9846 43.3442 34.6741 43.3442 35.5757V37.1667Z" fill="black"/>
<path d="M49.5239 37.1667H46.3418V35.5757C46.3418 34.6741 47.0312 33.9846 47.9328 33.9846H49.5239V37.1667Z" fill="black"/>
<path d="M52.6137 33.9846H49.4316V37.1667H52.6137V33.9846Z" fill="black"/>
<path d="M55.7016 33.9846H52.5195V37.1667H55.7016V33.9846Z" fill="black"/>
<path d="M58.7914 33.9846H55.6094V37.1667H58.7914V33.9846Z" fill="black"/>
<path d="M60.2903 37.1667H58.6992V33.9846H61.8813V35.5757C61.8813 36.4772 61.1918 37.1667 60.2903 37.1667Z" fill="black"/>
<path d="M68.059 33.9846H64.877V37.1667H68.059V33.9846Z" fill="black"/>
<path d="M74.2387 37.1667H71.0566V35.5757C71.0566 34.6741 71.7461 33.9846 72.6477 33.9846C73.5493 33.9846 74.2387 34.6741 74.2387 35.5757V37.1667Z" fill="black"/>
<path d="M83.5063 33.9846H80.3242V37.1667H83.5063V33.9846Z" fill="black"/>
<path d="M86.5981 33.9846H83.416V37.1667H86.5981V33.9846Z" fill="black"/>
<path d="M95.8637 33.9846H92.6816V37.1667H95.8637V33.9846Z" fill="black"/>
<path d="M98.9536 33.9846H95.7715V37.1667H98.9536V33.9846Z" fill="black"/>
<path d="M102.043 33.9846H98.8613V37.1667H102.043V33.9846Z" fill="black"/>
<path d="M103.542 37.1667H101.951V33.9846H105.133V35.5757C105.133 36.4772 104.444 37.1667 103.542 37.1667Z" fill="black"/>
<path d="M111.311 33.9846H108.129V37.1667H111.311V33.9846Z" fill="black"/>
<path d="M12.4516 37.0736H9.26953V40.2557H12.4516V37.0736Z" fill="black"/>
<path d="M15.5395 37.0735H12.3574V40.2556H15.5395V37.0735Z" fill="black"/>
<path d="M18.6293 37.0735H15.4473V40.2556H18.6293V37.0735Z" fill="black"/>
<path d="M20.1281 40.2556H18.5371V37.0735H20.1281C21.0297 37.0735 21.7192 37.7629 21.7192 38.6645C21.7192 39.5661 21.0297 40.2556 20.1281 40.2556Z" fill="black"/>
<path d="M34.0786 40.2556H30.8965V38.6645C30.8965 37.7629 31.5859 37.0735 32.4875 37.0735H34.0786V40.2556Z" fill="black"/>
<path d="M37.1664 37.0735H33.9844V40.2556H37.1664V37.0735Z" fill="black"/>
<path d="M43.3442 40.2556H41.7531C40.8516 40.2556 40.1621 39.5661 40.1621 38.6645V37.0735H43.3442V40.2556Z" fill="black"/>
<path d="M46.436 37.0735H43.2539V40.2556H46.436V37.0735Z" fill="black"/>
<path d="M47.9328 40.2556H46.3418V37.0735H49.5239V38.6645C49.5239 39.5661 48.8344 40.2556 47.9328 40.2556Z" fill="black"/>
<path d="M64.9711 40.2557H61.7891V38.6646C61.7891 37.7631 62.4785 37.0736 63.3801 37.0736H64.9711V40.2557Z" fill="black"/>
<path d="M68.059 37.0735H64.877V40.2556H68.059V37.0735Z" fill="black"/>
<path d="M74.2387 37.0735H71.0566V40.2556H74.2387V37.0735Z" fill="black"/>
<path d="M80.4184 40.2557H77.2363V38.6646C77.2363 37.7631 77.9258 37.0736 78.8274 37.0736H80.4184V40.2557Z" fill="black"/>
<path d="M83.5063 37.0735H80.3242V40.2556H83.5063V37.0735Z" fill="black"/>
<path d="M86.5981 37.0735H83.416V40.2556H86.5981V37.0735Z" fill="black"/>
<path d="M89.686 37.0735H86.5039V40.2556H89.686V37.0735Z" fill="black"/>
<path d="M92.7758 37.0736H89.5938V40.2557H92.7758V37.0736Z" fill="black"/>
<path d="M94.2727 40.2556H92.6816V37.0735H95.8637V38.6645C95.8637 39.5661 95.1743 40.2556 94.2727 40.2556Z" fill="black"/>
<path d="M100.452 40.2556C99.5508 40.2556 98.8613 39.5661 98.8613 38.6645V37.0735H102.043V38.6645C102.043 39.5661 101.354 40.2556 100.452 40.2556Z" fill="black"/>
<path d="M111.311 37.0735H108.129V40.2556H111.311V37.0735Z" fill="black"/>
<path d="M9.36176 43.3445H6.17969V41.7535C6.17969 40.8519 6.86914 40.1625 7.77072 40.1625H9.36176V43.3445Z" fill="black"/>
<path d="M12.4516 40.1625H9.26953V43.3445H12.4516V40.1625Z" fill="black"/>
<path d="M18.6293 40.1625H15.4473V43.3445H18.6293V40.1625Z" fill="black"/>
<path d="M24.809 43.3445H21.627V41.7535C21.627 40.8519 22.3164 40.1625 23.218 40.1625H24.809V43.3445Z" fill="black"/>
<path d="M27.8989 40.1625H24.7168V43.3445H27.8989V40.1625Z" fill="black"/>
<path d="M30.9868 40.1625H27.8047V43.3445H30.9868V40.1625Z" fill="black"/>
<path d="M34.0786 40.1625H30.8965V43.3445H34.0786V40.1625Z" fill="black"/>
<path d="M35.5754 43.3445H33.9844V40.1625H37.1664V41.7535C37.1664 42.6551 36.477 43.3445 35.5754 43.3445Z" fill="black"/>
<path d="M55.7016 43.3445H52.5195V41.7535C52.5195 40.8519 53.209 40.1625 54.1106 40.1625H55.7016V43.3445Z" fill="black"/>
<path d="M58.7914 40.1625H55.6094V43.3445H58.7914V40.1625Z" fill="black"/>
<path d="M61.8813 40.1625H58.6992V43.3445H61.8813V40.1625Z" fill="black"/>
<path d="M64.9711 40.1625H61.7891V43.3445H64.9711V40.1625Z" fill="black"/>
<path d="M68.059 40.1625H64.877V43.3445H68.059V40.1625Z" fill="black"/>
<path d="M71.1489 40.1625H67.9668V43.3445H71.1489V40.1625Z" fill="black"/>
<path d="M72.6477 43.3445H71.0566V40.1625H74.2387V41.7535C74.2387 42.6551 73.5493 43.3445 72.6477 43.3445Z" fill="black"/>
<path d="M80.4184 40.1625H77.2363V43.3445H80.4184V40.1625Z" fill="black"/>
<path d="M89.686 40.1625H86.5039V43.3445H89.686V40.1625Z" fill="black"/>
<path d="M92.7758 40.1625H89.5938V43.3445H92.7758V40.1625Z" fill="black"/>
<path d="M98.9536 43.3445H95.7715V41.7535C95.7715 40.8519 96.4609 40.1625 97.3625 40.1625C98.2641 40.1625 98.9536 40.8519 98.9536 41.7535V43.3445Z" fill="black"/>
<path d="M105.133 43.3445H101.951V41.7535C101.951 40.8519 102.641 40.1625 103.542 40.1625H105.133V43.3445Z" fill="black"/>
<path d="M108.221 40.1625H105.039V43.3445H108.221V40.1625Z" fill="black"/>
<path d="M111.311 40.1625H108.129V43.3445H111.311V40.1625Z" fill="black"/>
<path d="M9.36176 43.2533H6.17969V46.4354H9.36176V43.2533Z" fill="black"/>
<path d="M12.4516 43.2533H9.26953V46.4354H12.4516V43.2533Z" fill="black"/>
<path d="M15.5395 43.2533H12.3574V46.4354H15.5395V43.2533Z" fill="black"/>
<path d="M18.6293 43.2533H15.4473V46.4354H18.6293V43.2533Z" fill="black"/>
<path d="M21.7192 43.2533H18.5371V46.4354H21.7192V43.2533Z" fill="black"/>
<path d="M24.809 43.2533H21.627V46.4354H24.809V43.2533Z" fill="black"/>
<path d="M27.8989 43.2533H24.7168V46.4354H27.8989V43.2533Z" fill="black"/>
<path d="M30.9868 43.2533H27.8047V46.4354H30.9868V43.2533Z" fill="black"/>
<path d="M32.4875 46.4354H30.8965V43.2533H34.0786V44.8443C34.0786 45.7459 33.3891 46.4354 32.4875 46.4354Z" fill="black"/>
<path d="M43.3442 46.4354H40.1621V44.8443C40.1621 43.9427 40.8516 43.2533 41.7531 43.2533H43.3442V46.4354Z" fill="black"/>
<path d="M44.8449 46.4354H43.2539V43.2533H44.8449C45.7465 43.2533 46.436 43.9427 46.436 44.8443C46.436 45.7459 45.7465 46.4354 44.8449 46.4354Z" fill="black"/>
<path d="M52.6137 46.4354H51.0227C50.1211 46.4354 49.4316 45.7459 49.4316 44.8443C49.4316 43.9427 50.1211 43.2533 51.0227 43.2533H52.6137V46.4354Z" fill="black"/>
<path d="M55.7016 43.2533H52.5195V46.4354H55.7016V43.2533Z" fill="black"/>
<path d="M61.8813 46.4354H60.2903C59.3887 46.4354 58.6992 45.7459 58.6992 44.8443V43.2533H61.8813V46.4354Z" fill="black"/>
<path d="M64.9711 43.2533H61.7891V46.4354H64.9711V43.2533Z" fill="black"/>
<path d="M68.059 43.2533H64.877V46.4354H68.059V43.2533Z" fill="black"/>
<path d="M77.3286 46.4354H74.1465V44.8443C74.1465 43.9427 74.8359 43.2533 75.7375 43.2533H77.3286V46.4354Z" fill="black"/>
<path d="M80.4184 43.2533H77.2363V46.4354H80.4184V43.2533Z" fill="black"/>
<path d="M83.5063 43.2533H80.3242V46.4354H83.5063V43.2533Z" fill="black"/>
<path d="M86.5981 43.2533H83.416V46.4354H86.5981V43.2533Z" fill="black"/>
<path d="M89.686 43.2533H86.5039V46.4354H89.686V43.2533Z" fill="black"/>
<path d="M91.1848 46.4354H89.5938V43.2533H92.7758V44.8443C92.7758 45.7459 92.0864 46.4354 91.1848 46.4354Z" fill="black"/>
<path d="M98.9536 43.2533H95.7715V46.4354H98.9536V43.2533Z" fill="black"/>
<path d="M103.542 46.4354C102.641 46.4354 101.951 45.7459 101.951 44.8443V43.2533H105.133V44.8443C105.133 45.7459 104.444 46.4354 103.542 46.4354Z" fill="black"/>
<path d="M111.311 46.4354H109.72C108.818 46.4354 108.129 45.7459 108.129 44.8443V43.2533H111.311V46.4354Z" fill="black"/>
<path d="M114.401 46.4354H111.219V43.2533H112.81C113.711 43.2533 114.401 43.9427 114.401 44.8443V46.4354Z" fill="black"/>
<path d="M9.36176 46.3423H6.17969V49.5244H9.36176V46.3423Z" fill="black"/>
<path d="M26.3078 49.5244C25.4062 49.5244 24.7168 48.8349 24.7168 47.9333V46.3423H27.8989V47.9333C27.8989 48.8349 27.2094 49.5244 26.3078 49.5244Z" fill="black"/>
<path d="M37.1664 49.5244H33.9844V47.9333C33.9844 47.0317 34.6738 46.3423 35.5754 46.3423H37.1664V49.5244Z" fill="black"/>
<path d="M40.2563 46.3423H37.0742V49.5244H40.2563V46.3423Z" fill="black"/>
<path d="M43.3442 46.3423H40.1621V49.5244H43.3442V46.3423Z" fill="black"/>
<path d="M55.7016 46.3423H52.5195V49.5244H55.7016V46.3423Z" fill="black"/>
<path d="M57.2004 49.5244H55.6094V46.3423H57.2004C58.102 46.3423 58.7914 47.0317 58.7914 47.9333C58.7914 48.8349 58.102 49.5244 57.2004 49.5244Z" fill="black"/>
<path d="M68.059 46.3423H64.877V49.5244H68.059V46.3423Z" fill="black"/>
<path d="M69.5578 49.5244H67.9668V46.3423H69.5578C70.4594 46.3423 71.1489 47.0317 71.1489 47.9333C71.1489 48.8349 70.4594 49.5244 69.5578 49.5244Z" fill="black"/>
<path d="M75.7375 49.5244C74.8359 49.5244 74.1465 48.8349 74.1465 47.9333V46.3423H77.3286V47.9333C77.3286 48.8349 76.6391 49.5244 75.7375 49.5244Z" fill="black"/>
<path d="M83.5063 46.3423H80.3242V49.5244H83.5063V46.3423Z" fill="black"/>
<path d="M86.5981 46.3423H83.416V49.5244H86.5981V46.3423Z" fill="black"/>
<path d="M88.0949 49.5244H86.5039V46.3423H89.686V47.9333C89.686 48.8349 88.9965 49.5244 88.0949 49.5244Z" fill="black"/>
<path d="M98.9536 49.5244H97.3625C96.4609 49.5244 95.7715 48.8349 95.7715 47.9333V46.3423H98.9536V49.5244Z" fill="black"/>
<path d="M102.043 49.5244H98.8613V46.3423H100.452C101.354 46.3423 102.043 47.0317 102.043 47.9333V49.5244Z" fill="black"/>
<path d="M114.401 46.3423H111.219V49.5244H114.401V46.3423Z" fill="black"/>
<path d="M1.59103 52.6132C2.46974 52.6132 3.18207 51.9009 3.18207 51.0222C3.18207 50.1435 2.46974 49.4312 1.59103 49.4312C0.71233 49.4312 0 50.1435 0 51.0222C0 51.9009 0.71233 52.6132 1.59103 52.6132Z" fill="black"/>
<path d="M9.36176 52.6132H7.77072C6.86914 52.6132 6.17969 51.9238 6.17969 51.0222V49.4312H9.36176V52.6132Z" fill="black"/>
<path d="M12.4516 52.6132H9.26953V49.4312H10.8606C11.7622 49.4312 12.4516 50.1206 12.4516 51.0222V52.6132Z" fill="black"/>
<path d="M20.1281 52.6132C21.0068 52.6132 21.7192 51.9009 21.7192 51.0222C21.7192 50.1435 21.0068 49.4312 20.1281 49.4312C19.2494 49.4312 18.5371 50.1435 18.5371 51.0222C18.5371 51.9009 19.2494 52.6132 20.1281 52.6132Z" fill="black"/>
<path d="M35.5754 52.6132C34.6738 52.6132 33.9844 51.9238 33.9844 51.0222V49.4312H37.1664V51.0222C37.1664 51.9238 36.477 52.6132 35.5754 52.6132Z" fill="black"/>
<path d="M43.3442 52.6132H41.7531C40.8516 52.6132 40.1621 51.9238 40.1621 51.0222V49.4312H43.3442V52.6132Z" fill="black"/>
<path d="M46.436 52.6132H43.2539V49.4312H44.8449C45.7465 49.4312 46.436 50.1206 46.436 51.0222V52.6132Z" fill="black"/>
<path d="M54.1106 52.6132C53.209 52.6132 52.5195 51.9238 52.5195 51.0222V49.4312H55.7016V51.0222C55.7016 51.9238 55.0122 52.6132 54.1106 52.6132Z" fill="black"/>
<path d="M66.468 52.6132C65.5664 52.6132 64.877 51.9238 64.877 51.0222V49.4312H68.059V51.0222C68.059 51.9238 67.3696 52.6132 66.468 52.6132Z" fill="black"/>
<path d="M80.4184 52.6132H78.8274C77.9258 52.6132 77.2363 51.9238 77.2363 51.0222C77.2363 50.1206 77.9258 49.4312 78.8274 49.4312H80.4184V52.6132Z" fill="black"/>
<path d="M81.9153 52.6132H80.3242V49.4312H83.5063V51.0222C83.5063 51.9238 82.8168 52.6132 81.9153 52.6132Z" fill="black"/>
<path d="M92.7758 52.6132H91.1848C90.2832 52.6132 89.5938 51.9238 89.5938 51.0222C89.5938 50.1206 90.2832 49.4312 91.1848 49.4312H92.7758V52.6132Z" fill="black"/>
<path d="M94.2727 52.6132H92.6816V49.4312H94.2727C95.1743 49.4312 95.8637 50.1206 95.8637 51.0222C95.8637 51.9238 95.1743 52.6132 94.2727 52.6132Z" fill="black"/>
<path d="M100.452 52.6132C99.5508 52.6132 98.8613 51.9238 98.8613 51.0222V49.4312H102.043V51.0222C102.043 51.9238 101.354 52.6132 100.452 52.6132Z" fill="black"/>
<path d="M106.63 52.6132C107.509 52.6132 108.221 51.9009 108.221 51.0222C108.221 50.1435 107.509 49.4312 106.63 49.4312C105.751 49.4312 105.039 50.1435 105.039 51.0222C105.039 51.9009 105.751 52.6132 106.63 52.6132Z" fill="black"/>
<path d="M112.81 52.6132C111.908 52.6132 111.219 51.9238 111.219 51.0222V49.4312H114.401V51.0222C114.401 51.9238 113.711 52.6132 112.81 52.6132Z" fill="black"/>
<path d="M4.68088 55.7022C5.55958 55.7022 6.27191 54.9899 6.27191 54.1112C6.27191 53.2325 5.55958 52.5201 4.68088 52.5201C3.80217 52.5201 3.08984 53.2325 3.08984 54.1112C3.08984 54.9899 3.80217 55.7022 4.68088 55.7022Z" fill="black"/>
<path d="M12.4516 55.7022H10.8606C9.95898 55.7022 9.26953 55.0128 9.26953 54.1112V52.5201H12.4516V55.7022Z" fill="black"/>
<path d="M13.9485 55.7022H12.3574V52.5201H13.9485C14.85 52.5201 15.5395 53.2096 15.5395 54.1112C15.5395 55.0128 14.85 55.7022 13.9485 55.7022Z" fill="black"/>
<path d="M24.809 55.7022H21.627V54.1112C21.627 53.2096 22.3164 52.5201 23.218 52.5201H24.809V55.7022Z" fill="black"/>
<path d="M27.8989 52.5201H24.7168V55.7022H27.8989V52.5201Z" fill="black"/>
<path d="M30.9868 55.7022H27.8047V52.5201H29.3957C30.2973 52.5201 30.9868 53.2096 30.9868 54.1112V55.7022Z" fill="black"/>
<path d="M40.2563 55.7022H37.0742V54.1112C37.0742 53.2096 37.7637 52.5201 38.6653 52.5201C39.5668 52.5201 40.2563 53.2096 40.2563 54.1112V55.7022Z" fill="black"/>
<path d="M46.436 52.5201H43.2539V55.7022H46.436V52.5201Z" fill="black"/>
<path d="M47.9328 55.7022H46.3418V52.5201H47.9328C48.8344 52.5201 49.5239 53.2096 49.5239 54.1112C49.5239 55.0128 48.8344 55.7022 47.9328 55.7022Z" fill="black"/>
<path d="M58.7914 55.7022H57.2004C56.2988 55.7022 55.6094 55.0128 55.6094 54.1112C55.6094 53.2096 56.2988 52.5201 57.2004 52.5201H58.7914V55.7022Z" fill="black"/>
<path d="M61.8813 55.7022H58.6992V52.5201H60.2903C61.1918 52.5201 61.8813 53.2096 61.8813 54.1112V55.7022Z" fill="black"/>
<path d="M71.1489 55.7022H67.9668V54.1112C67.9668 53.2096 68.6562 52.5201 69.5578 52.5201C70.4594 52.5201 71.1489 53.2096 71.1489 54.1112V55.7022Z" fill="black"/>
<path d="M75.7375 55.7022C76.6162 55.7022 77.3286 54.9899 77.3286 54.1112C77.3286 53.2325 76.6162 52.5201 75.7375 52.5201C74.8588 52.5201 74.1465 53.2325 74.1465 54.1112C74.1465 54.9899 74.8588 55.7022 75.7375 55.7022Z" fill="black"/>
<path d="M89.686 55.7022H86.5039V54.1112C86.5039 53.2096 87.1934 52.5201 88.0949 52.5201C88.9965 52.5201 89.686 53.2096 89.686 54.1112V55.7022Z" fill="black"/>
<path d="M105.133 55.7022H101.951V54.1112C101.951 53.2096 102.641 52.5201 103.542 52.5201C104.444 52.5201 105.133 53.2096 105.133 54.1112V55.7022Z" fill="black"/>
<path d="M18.6293 58.7911H17.0383C16.1367 58.7911 15.4473 58.1016 15.4473 57.2C15.4473 56.2985 16.1367 55.609 17.0383 55.609H18.6293V58.7911Z" fill="black"/>
<path d="M21.7192 55.609H18.5371V58.7911H21.7192V55.609Z" fill="black"/>
<path d="M24.809 55.609H21.627V58.7911H24.809V55.609Z" fill="black"/>
<path d="M27.8989 55.609H24.7168V58.7911H27.8989V55.609Z" fill="black"/>
<path d="M30.9868 55.609H27.8047V58.7911H30.9868V55.609Z" fill="black"/>
<path d="M34.0786 55.609H30.8965V58.7911H34.0786V55.609Z" fill="black"/>
<path d="M37.1664 55.609H33.9844V58.7911H37.1664V55.609Z" fill="black"/>
<path d="M40.2563 55.609H37.0742V58.7911H40.2563V55.609Z" fill="black"/>
<path d="M43.3442 55.609H40.1621V58.7911H43.3442V55.609Z" fill="black"/>
<path d="M44.8449 58.7911H43.2539V55.609H46.436V57.2C46.436 58.1016 45.7465 58.7911 44.8449 58.7911Z" fill="black"/>
<path d="M55.7016 58.7911H52.5195V57.2C52.5195 56.2985 53.209 55.609 54.1106 55.609C55.0122 55.609 55.7016 56.2985 55.7016 57.2V58.7911Z" fill="black"/>
<path d="M61.8813 58.7911H60.2903C59.3887 58.7911 58.6992 58.1016 58.6992 57.2V55.609H61.8813V58.7911Z" fill="black"/>
<path d="M64.9711 58.7911H61.7891V55.609H63.3801C64.2817 55.609 64.9711 56.2985 64.9711 57.2V58.7911Z" fill="black"/>
<path d="M69.5578 58.7911C68.6562 58.7911 67.9668 58.1016 67.9668 57.2V55.609H71.1489V57.2C71.1489 58.1016 70.4594 58.7911 69.5578 58.7911Z" fill="black"/>
<path d="M86.5981 58.7911H85.0071C84.1055 58.7911 83.416 58.1016 83.416 57.2C83.416 56.2985 84.1055 55.609 85.0071 55.609H86.5981V58.7911Z" fill="black"/>
<path d="M89.686 55.609H86.5039V58.7911H89.686V55.609Z" fill="black"/>
<path d="M98.9536 58.7911H95.7715V57.2C95.7715 56.2985 96.4609 55.609 97.3625 55.609C98.2641 55.609 98.9536 56.2985 98.9536 57.2V58.7911Z" fill="black"/>
<path d="M103.542 58.7911C102.641 58.7911 101.951 58.1016 101.951 57.2V55.609H105.133V57.2C105.133 58.1016 104.444 58.7911 103.542 58.7911Z" fill="black"/>
<path d="M111.311 58.7911H109.72C108.818 58.7911 108.129 58.1016 108.129 57.2C108.129 56.2985 108.818 55.609 109.72 55.609H111.311V58.7911Z" fill="black"/>
<path d="M112.81 58.7911H111.219V55.609H112.81C113.711 55.609 114.401 56.2985 114.401 57.2C114.401 58.1016 113.711 58.7911 112.81 58.7911Z" fill="black"/>
<path d="M6.27191 61.882H3.08984V60.291C3.08984 59.3894 3.77929 58.7 4.68088 58.7C5.58246 58.7 6.27191 59.3894 6.27191 60.291V61.882Z" fill="black"/>
<path d="M24.809 61.882H23.218C22.3164 61.882 21.627 61.1926 21.627 60.291V58.7H24.809V61.882Z" fill="black"/>
<path d="M26.3078 61.882H24.7168V58.7H27.8989V60.291C27.8989 61.1926 27.2094 61.882 26.3078 61.882Z" fill="black"/>
<path d="M37.1664 61.882H35.5754C34.6738 61.882 33.9844 61.1926 33.9844 60.291V58.7H37.1664V61.882Z" fill="black"/>
<path d="M38.6653 61.882H37.0742V58.7H40.2563V60.291C40.2563 61.1926 39.5668 61.882 38.6653 61.882Z" fill="black"/>
<path d="M49.5239 61.882H47.9328C47.0312 61.882 46.3418 61.1926 46.3418 60.291C46.3418 59.3894 47.0312 58.7 47.9328 58.7H49.5239V61.882Z" fill="black"/>
<path d="M52.6137 58.7H49.4316V61.882H52.6137V58.7Z" fill="black"/>
<path d="M55.7016 58.7H52.5195V61.882H55.7016V58.7Z" fill="black"/>
<path d="M58.7914 61.882H55.6094V58.7H57.2004C58.102 58.7 58.7914 59.3894 58.7914 60.291V61.882Z" fill="black"/>
<path d="M64.9711 61.882H63.3801C62.4785 61.882 61.7891 61.1926 61.7891 60.291V58.7H64.9711V61.882Z" fill="black"/>
<path d="M66.468 61.882H64.877V58.7H66.468C67.3696 58.7 68.059 59.3894 68.059 60.291C68.059 61.1926 67.3696 61.882 66.468 61.882Z" fill="black"/>
<path d="M77.3286 61.882H74.1465V60.291C74.1465 59.3894 74.8359 58.7 75.7375 58.7C76.6391 58.7 77.3286 59.3894 77.3286 60.291V61.882Z" fill="black"/>
<path d="M83.5063 61.882H80.3242V60.291C80.3242 59.3894 81.0137 58.7 81.9153 58.7C82.8168 58.7 83.5063 59.3894 83.5063 60.291V61.882Z" fill="black"/>
<path d="M89.686 61.882H88.0949C87.1934 61.882 86.5039 61.1926 86.5039 60.291V58.7H89.686V61.882Z" fill="black"/>
<path d="M92.7758 58.7H89.5938V61.882H92.7758V58.7Z" fill="black"/>
<path d="M95.8637 58.7H92.6816V61.882H95.8637V58.7Z" fill="black"/>
<path d="M98.9536 58.7H95.7715V61.882H98.9536V58.7Z" fill="black"/>
<path d="M3.18207 64.9709H1.59103C0.689448 64.9709 0 64.2814 0 63.3799C0 62.4783 0.689448 61.7888 1.59103 61.7888H3.18207V64.9709Z" fill="black"/>
<path d="M6.27191 61.7888H3.08984V64.9709H6.27191V61.7888Z" fill="black"/>
<path d="M9.36176 61.7888H6.17969V64.9709H9.36176V61.7888Z" fill="black"/>
<path d="M12.4516 61.7887H9.26953V64.9708H12.4516V61.7887Z" fill="black"/>
<path d="M13.9485 64.9709H12.3574V61.7888H13.9485C14.85 61.7888 15.5395 62.4783 15.5395 63.3799C15.5395 64.2814 14.85 64.9709 13.9485 64.9709Z" fill="black"/>
<path d="M20.1281 64.9709C21.0068 64.9709 21.7192 64.2586 21.7192 63.3799C21.7192 62.5011 21.0068 61.7888 20.1281 61.7888C19.2494 61.7888 18.5371 62.5011 18.5371 63.3799C18.5371 64.2586 19.2494 64.9709 20.1281 64.9709Z" fill="black"/>
<path d="M30.9868 64.9709H29.3957C28.4941 64.9709 27.8047 64.2814 27.8047 63.3799C27.8047 62.4783 28.4941 61.7888 29.3957 61.7888H30.9868V64.9709Z" fill="black"/>
<path d="M32.4875 64.9709H30.8965V61.7888H32.4875C33.3891 61.7888 34.0786 62.4783 34.0786 63.3799C34.0786 64.2814 33.3891 64.9709 32.4875 64.9709Z" fill="black"/>
<path d="M41.7531 64.9709C42.6318 64.9709 43.3442 64.2586 43.3442 63.3799C43.3442 62.5011 42.6318 61.7888 41.7531 61.7888C40.8744 61.7888 40.1621 62.5011 40.1621 63.3799C40.1621 64.2586 40.8744 64.9709 41.7531 64.9709Z" fill="black"/>
<path d="M58.7914 61.7888H55.6094V64.9709H58.7914V61.7888Z" fill="black"/>
<path d="M69.5578 64.9709C70.4365 64.9709 71.1489 64.2586 71.1489 63.3799C71.1489 62.5011 70.4365 61.7888 69.5578 61.7888C68.6791 61.7888 67.9668 62.5011 67.9668 63.3799C67.9668 64.2586 68.6791 64.9709 69.5578 64.9709Z" fill="black"/>
<path d="M77.3286 64.9709H75.7375C74.8359 64.9709 74.1465 64.2814 74.1465 63.3799V61.7888H77.3286V64.9709Z" fill="black"/>
<path d="M80.4184 61.7887H77.2363V64.9708H80.4184V61.7887Z" fill="black"/>
<path d="M83.5063 61.7888H80.3242V64.9709H83.5063V61.7888Z" fill="black"/>
<path d="M92.7758 61.7887H89.5938V64.9708H92.7758V61.7887Z" fill="black"/>
<path d="M95.8637 61.7888H92.6816V64.9709H95.8637V61.7888Z" fill="black"/>
<path d="M98.9536 61.7888H95.7715V64.9709H98.9536V61.7888Z" fill="black"/>
<path d="M102.043 61.7888H98.8613V64.9709H102.043V61.7888Z" fill="black"/>
<path d="M105.133 61.7887H101.951V64.9708H105.133V61.7887Z" fill="black"/>
<path d="M108.221 64.9709H105.039V61.7888H106.63C107.532 61.7888 108.221 62.4783 108.221 63.3799V64.9709Z" fill="black"/>
<path d="M9.36176 64.8778H6.17969V68.0599H9.36176V64.8778Z" fill="black"/>
<path d="M17.0383 68.0599C17.917 68.0599 18.6293 67.3475 18.6293 66.4688C18.6293 65.5901 17.917 64.8778 17.0383 64.8778C16.1596 64.8778 15.4473 65.5901 15.4473 66.4688C15.4473 67.3475 16.1596 68.0599 17.0383 68.0599Z" fill="black"/>
<path d="M24.809 68.0599H21.627V66.4688C21.627 65.5673 22.3164 64.8778 23.218 64.8778H24.809V68.0599Z" fill="black"/>
<path d="M26.3078 68.0599H24.7168V64.8778H26.3078C27.2094 64.8778 27.8989 65.5673 27.8989 66.4688C27.8989 67.3704 27.2094 68.0599 26.3078 68.0599Z" fill="black"/>
<path d="M40.2563 68.0599H37.0742V66.4688C37.0742 65.5673 37.7637 64.8778 38.6653 64.8778C39.5668 64.8778 40.2563 65.5673 40.2563 66.4688V68.0599Z" fill="black"/>
<path d="M57.2004 68.0599C56.2988 68.0599 55.6094 67.3704 55.6094 66.4688V64.8778H58.7914V66.4688C58.7914 67.3704 58.102 68.0599 57.2004 68.0599Z" fill="black"/>
<path d="M68.059 68.0599H64.877V66.4688C64.877 65.5673 65.5664 64.8778 66.468 64.8778C67.3696 64.8778 68.059 65.5673 68.059 66.4688V68.0599Z" fill="black"/>
<path d="M72.6477 68.0599C73.5264 68.0599 74.2387 67.3475 74.2387 66.4688C74.2387 65.5901 73.5264 64.8778 72.6477 64.8778C71.769 64.8778 71.0566 65.5901 71.0566 66.4688C71.0566 67.3475 71.769 68.0599 72.6477 68.0599Z" fill="black"/>
<path d="M81.9153 68.0599C81.0137 68.0599 80.3242 67.3704 80.3242 66.4688V64.8778H83.5063V66.4688C83.5063 67.3704 82.8168 68.0599 81.9153 68.0599Z" fill="black"/>
<path d="M91.1848 68.0599C90.2832 68.0599 89.5938 67.3704 89.5938 66.4688V64.8778H92.7758V66.4688C92.7758 67.3704 92.0864 68.0599 91.1848 68.0599Z" fill="black"/>
<path d="M97.3625 68.0599C96.4609 68.0599 95.7715 67.3704 95.7715 66.4688V64.8778H98.9536V66.4688C98.9536 67.3704 98.2641 68.0599 97.3625 68.0599Z" fill="black"/>
<path d="M108.221 64.8778H105.039V68.0599H108.221V64.8778Z" fill="black"/>
<path d="M6.27191 71.1487H3.08984V69.5577C3.08984 68.6561 3.77929 67.9667 4.68088 67.9667H6.27191V71.1487Z" fill="black"/>
<path d="M7.77072 71.1487H6.17969V67.9667H9.36176V69.5577C9.36176 70.4593 8.67231 71.1487 7.77072 71.1487Z" fill="black"/>
<path d="M13.9485 71.1487C14.8272 71.1487 15.5395 70.4364 15.5395 69.5577C15.5395 68.679 14.8272 67.9667 13.9485 67.9667C13.0698 67.9667 12.3574 68.679 12.3574 69.5577C12.3574 70.4364 13.0698 71.1487 13.9485 71.1487Z" fill="black"/>
<path d="M21.7192 71.1487H20.1281C19.2266 71.1487 18.5371 70.4593 18.5371 69.5577C18.5371 68.6561 19.2266 67.9667 20.1281 67.9667H21.7192V71.1487Z" fill="black"/>
<path d="M24.809 67.9667H21.627V71.1487H24.809V67.9667Z" fill="black"/>
<path d="M34.0786 71.1487H32.4875C31.5859 71.1487 30.8965 70.4593 30.8965 69.5577C30.8965 68.6561 31.5859 67.9667 32.4875 67.9667H34.0786V71.1487Z" fill="black"/>
<path d="M37.1664 67.9667H33.9844V71.1487H37.1664V67.9667Z" fill="black"/>
<path d="M40.2563 67.9667H37.0742V71.1487H40.2563V67.9667Z" fill="black"/>
<path d="M43.3442 67.9667H40.1621V71.1487H43.3442V67.9667Z" fill="black"/>
<path d="M46.436 67.9667H43.2539V71.1487H46.436V67.9667Z" fill="black"/>
<path d="M47.9328 71.1487H46.3418V67.9667H47.9328C48.8344 67.9667 49.5239 68.6561 49.5239 69.5577C49.5239 70.4593 48.8344 71.1487 47.9328 71.1487Z" fill="black"/>
<path d="M55.7016 71.1487H52.5195V69.5577C52.5195 68.6561 53.209 67.9667 54.1106 67.9667C55.0122 67.9667 55.7016 68.6561 55.7016 69.5577V71.1487Z" fill="black"/>
<path d="M61.8813 71.1487H60.2903C59.3887 71.1487 58.6992 70.4593 58.6992 69.5577C58.6992 68.6561 59.3887 67.9667 60.2903 67.9667H61.8813V71.1487Z" fill="black"/>
<path d="M64.9711 67.9667H61.7891V71.1487H64.9711V67.9667Z" fill="black"/>
<path d="M68.059 67.9667H64.877V71.1487H68.059V67.9667Z" fill="black"/>
<path d="M85.0071 71.1487C85.8858 71.1487 86.5981 70.4364 86.5981 69.5577C86.5981 68.679 85.8858 67.9667 85.0071 67.9667C84.1283 67.9667 83.416 68.679 83.416 69.5577C83.416 70.4364 84.1283 71.1487 85.0071 71.1487Z" fill="black"/>
<path d="M95.8637 71.1487H92.6816V69.5577C92.6816 68.6561 93.3711 67.9667 94.2727 67.9667C95.1743 67.9667 95.8637 68.6561 95.8637 69.5577V71.1487Z" fill="black"/>
<path d="M105.133 71.1487H103.542C102.641 71.1487 101.951 70.4593 101.951 69.5577C101.951 68.6561 102.641 67.9667 103.542 67.9667H105.133V71.1487Z" fill="black"/>
<path d="M106.63 71.1487H105.039V67.9667H108.221V69.5577C108.221 70.4593 107.532 71.1487 106.63 71.1487Z" fill="black"/>
<path d="M112.81 71.1487C113.688 71.1487 114.401 70.4364 114.401 69.5577C114.401 68.679 113.688 67.9667 112.81 67.9667C111.931 67.9667 111.219 68.679 111.219 69.5577C111.219 70.4364 111.931 71.1487 112.81 71.1487Z" fill="black"/>
<path d="M3.18207 74.2397H0V72.6487C0 71.7471 0.689448 71.0576 1.59103 71.0576H3.18207V74.2397Z" fill="black"/>
<path d="M6.27191 71.0576H3.08984V74.2397H6.27191V71.0576Z" fill="black"/>
<path d="M17.0383 74.2397C17.917 74.2397 18.6293 73.5274 18.6293 72.6487C18.6293 71.7699 17.917 71.0576 17.0383 71.0576C16.1596 71.0576 15.4473 71.7699 15.4473 72.6487C15.4473 73.5274 16.1596 74.2397 17.0383 74.2397Z" fill="black"/>
<path d="M24.809 74.2397H23.218C22.3164 74.2397 21.627 73.5502 21.627 72.6487V71.0576H24.809V74.2397Z" fill="black"/>
<path d="M27.8989 71.0576H24.7168V74.2397H27.8989V71.0576Z" fill="black"/>
<path d="M30.9868 74.2397H27.8047V71.0576H29.3957C30.2973 71.0576 30.9868 71.7471 30.9868 72.6487V74.2397Z" fill="black"/>
<path d="M40.2563 74.2397H38.6653C37.7637 74.2397 37.0742 73.5502 37.0742 72.6487V71.0576H40.2563V74.2397Z" fill="black"/>
<path d="M43.3442 71.0576H40.1621V74.2397H43.3442V71.0576Z" fill="black"/>
<path d="M46.436 71.0576H43.2539V74.2397H46.436V71.0576Z" fill="black"/>
<path d="M52.6137 74.2397H51.0227C50.1211 74.2397 49.4316 73.5502 49.4316 72.6487C49.4316 71.7471 50.1211 71.0576 51.0227 71.0576H52.6137V74.2397Z" fill="black"/>
<path d="M55.7016 71.0576H52.5195V74.2397H55.7016V71.0576Z" fill="black"/>
<path d="M58.7914 74.2397H55.6094V71.0576H57.2004C58.102 71.0576 58.7914 71.7471 58.7914 72.6487V74.2397Z" fill="black"/>
<path d="M64.9711 74.2397H63.3801C62.4785 74.2397 61.7891 73.5502 61.7891 72.6487V71.0576H64.9711V74.2397Z" fill="black"/>
<path d="M66.468 74.2397H64.877V71.0576H68.059V72.6487C68.059 73.5502 67.3696 74.2397 66.468 74.2397Z" fill="black"/>
<path d="M74.2387 74.2397H71.0566V72.6487C71.0566 71.7471 71.7461 71.0576 72.6477 71.0576C73.5493 71.0576 74.2387 71.7471 74.2387 72.6487V74.2397Z" fill="black"/>
<path d="M81.9153 74.2397C82.794 74.2397 83.5063 73.5274 83.5063 72.6487C83.5063 71.7699 82.794 71.0576 81.9153 71.0576C81.0365 71.0576 80.3242 71.7699 80.3242 72.6487C80.3242 73.5274 81.0365 74.2397 81.9153 74.2397Z" fill="black"/>
<path d="M92.7758 74.2397H91.1848C90.2832 74.2397 89.5938 73.5502 89.5938 72.6487C89.5938 71.7471 90.2832 71.0576 91.1848 71.0576H92.7758V74.2397Z" fill="black"/>
<path d="M95.8637 71.0576H92.6816V74.2397H95.8637V71.0576Z" fill="black"/>
<path d="M97.3625 74.2397H95.7715V71.0576H97.3625C98.2641 71.0576 98.9536 71.7471 98.9536 72.6487C98.9536 73.5502 98.2641 74.2397 97.3625 74.2397Z" fill="black"/>
<path d="M111.311 74.2397H108.129V72.6487C108.129 71.7471 108.818 71.0576 109.72 71.0576C110.622 71.0576 111.311 71.7471 111.311 72.6487V74.2397Z" fill="black"/>
<path d="M3.18207 74.1465H0V77.3286H3.18207V74.1465Z" fill="black"/>
<path d="M6.27191 74.1465H3.08984V77.3286H6.27191V74.1465Z" fill="black"/>
<path d="M9.36176 74.1465H6.17969V77.3286H9.36176V74.1465Z" fill="black"/>
<path d="M12.4516 74.1465H9.26953V77.3286H12.4516V74.1465Z" fill="black"/>
<path d="M13.9485 77.3286H12.3574V74.1465H13.9485C14.85 74.1465 15.5395 74.8359 15.5395 75.7375C15.5395 76.6391 14.85 77.3286 13.9485 77.3286Z" fill="black"/>
<path d="M20.1281 77.3286C21.0068 77.3286 21.7192 76.6162 21.7192 75.7375C21.7192 74.8588 21.0068 74.1465 20.1281 74.1465C19.2494 74.1465 18.5371 74.8588 18.5371 75.7375C18.5371 76.6162 19.2494 77.3286 20.1281 77.3286Z" fill="black"/>
<path d="M27.8989 77.3286H26.3078C25.4062 77.3286 24.7168 76.6391 24.7168 75.7375V74.1465H27.8989V77.3286Z" fill="black"/>
<path d="M30.9868 74.1465H27.8047V77.3286H30.9868V74.1465Z" fill="black"/>
<path d="M34.0786 74.1465H30.8965V77.3286H34.0786V74.1465Z" fill="black"/>
<path d="M37.1664 77.3286H33.9844V74.1465H35.5754C36.477 74.1465 37.1664 74.8359 37.1664 75.7375V77.3286Z" fill="black"/>
<path d="M44.8449 77.3286C43.9434 77.3286 43.2539 76.6391 43.2539 75.7375V74.1465H46.436V75.7375C46.436 76.6391 45.7465 77.3286 44.8449 77.3286Z" fill="black"/>
<path d="M55.7016 77.3286H54.1106C53.209 77.3286 52.5195 76.6391 52.5195 75.7375V74.1465H55.7016V77.3286Z" fill="black"/>
<path d="M58.7914 74.1465H55.6094V77.3286H58.7914V74.1465Z" fill="black"/>
<path d="M61.8813 77.3286H58.6992V74.1465H60.2903C61.1918 74.1465 61.8813 74.8359 61.8813 75.7375V77.3286Z" fill="black"/>
<path d="M71.1489 77.3286H67.9668V75.7375C67.9668 74.8359 68.6562 74.1465 69.5578 74.1465H71.1489V77.3286Z" fill="black"/>
<path d="M74.2387 74.1465H71.0566V77.3286H74.2387V74.1465Z" fill="black"/>
<path d="M77.3286 77.3286H74.1465V74.1465H75.7375C76.6391 74.1465 77.3286 74.8359 77.3286 75.7375V77.3286Z" fill="black"/>
<path d="M95.8637 74.1465H92.6816V77.3286H95.8637V74.1465Z" fill="black"/>
<path d="M105.133 77.3286H103.542C102.641 77.3286 101.951 76.6391 101.951 75.7375C101.951 74.8359 102.641 74.1465 103.542 74.1465H105.133V77.3286Z" fill="black"/>
<path d="M108.221 74.1465H105.039V77.3286H108.221V74.1465Z" fill="black"/>
<path d="M111.311 74.1465H108.129V77.3286H111.311V74.1465Z" fill="black"/>
<path d="M112.81 77.3286H111.219V74.1465H112.81C113.711 74.1465 114.401 74.8359 114.401 75.7375C114.401 76.6391 113.711 77.3286 112.81 77.3286Z" fill="black"/>
<path d="M3.18207 77.2355H0V80.4175H3.18207V77.2355Z" fill="black"/>
<path d="M9.36176 80.4175H7.77072C6.86914 80.4175 6.17969 79.7281 6.17969 78.8265V77.2355H9.36176V80.4175Z" fill="black"/>
<path d="M10.8606 80.4177H9.26953V77.2356H12.4516V78.8266C12.4516 79.7282 11.7622 80.4177 10.8606 80.4177Z" fill="black"/>
<path d="M17.0383 80.4175C17.917 80.4175 18.6293 79.7052 18.6293 78.8265C18.6293 77.9478 17.917 77.2355 17.0383 77.2355C16.1596 77.2355 15.4473 77.9478 15.4473 78.8265C15.4473 79.7052 16.1596 80.4175 17.0383 80.4175Z" fill="black"/>
<path d="M24.809 80.4177H21.627V78.8266C21.627 77.925 22.3164 77.2356 23.218 77.2356C24.1196 77.2356 24.809 77.925 24.809 78.8266V80.4177Z" fill="black"/>
<path d="M29.3957 80.4175C28.4941 80.4175 27.8047 79.7281 27.8047 78.8265V77.2355H30.9868V78.8265C30.9868 79.7281 30.2973 80.4175 29.3957 80.4175Z" fill="black"/>
<path d="M37.1664 80.4175H35.5754C34.6738 80.4175 33.9844 79.7281 33.9844 78.8265V77.2355H37.1664V80.4175Z" fill="black"/>
<path d="M38.6653 80.4177H37.0742V77.2356H38.6653C39.5668 77.2356 40.2563 77.925 40.2563 78.8266C40.2563 79.7282 39.5668 80.4177 38.6653 80.4177Z" fill="black"/>
<path d="M49.5239 80.4175H47.9328C47.0312 80.4175 46.3418 79.7281 46.3418 78.8265C46.3418 77.9249 47.0312 77.2355 47.9328 77.2355H49.5239V80.4175Z" fill="black"/>
<path d="M51.0227 80.4177H49.4316V77.2356H51.0227C51.9243 77.2356 52.6137 77.925 52.6137 78.8266C52.6137 79.7282 51.9243 80.4177 51.0227 80.4177Z" fill="black"/>
<path d="M61.8813 80.4175H60.2903C59.3887 80.4175 58.6992 79.7281 58.6992 78.8265V77.2355H61.8813V80.4175Z" fill="black"/>
<path d="M64.9711 77.2356H61.7891V80.4177H64.9711V77.2356Z" fill="black"/>
<path d="M68.059 77.2355H64.877V80.4175H68.059V77.2355Z" fill="black"/>
<path d="M71.1489 77.2355H67.9668V80.4175H71.1489V77.2355Z" fill="black"/>
<path d="M74.2387 77.2355H71.0566V80.4175H74.2387V77.2355Z" fill="black"/>
<path d="M77.3286 77.2355H74.1465V80.4175H77.3286V77.2355Z" fill="black"/>
<path d="M83.5063 80.4175H81.9153C81.0137 80.4175 80.3242 79.7281 80.3242 78.8265C80.3242 77.9249 81.0137 77.2355 81.9153 77.2355H83.5063V80.4175Z" fill="black"/>
<path d="M86.5981 77.2355H83.416V80.4175H86.5981V77.2355Z" fill="black"/>
<path d="M89.686 77.2355H86.5039V80.4175H89.686V77.2355Z" fill="black"/>
<path d="M92.7758 77.2356H89.5938V80.4177H92.7758V77.2356Z" fill="black"/>
<path d="M95.8637 77.2355H92.6816V80.4175H95.8637V77.2355Z" fill="black"/>
<path d="M106.63 80.4175C105.729 80.4175 105.039 79.7281 105.039 78.8265V77.2355H108.221V78.8265C108.221 79.7281 107.532 80.4175 106.63 80.4175Z" fill="black"/>
<path d="M3.18207 80.3243H0V83.5064H3.18207V80.3243Z" fill="black"/>
<path d="M15.5395 83.5064H12.3574V81.9154C12.3574 81.0138 13.0469 80.3243 13.9485 80.3243C14.85 80.3243 15.5395 81.0138 15.5395 81.9154V83.5064Z" fill="black"/>
<path d="M21.7192 83.5064H20.1281C19.2266 83.5064 18.5371 82.817 18.5371 81.9154C18.5371 81.0138 19.2266 80.3243 20.1281 80.3243H21.7192V83.5064Z" fill="black"/>
<path d="M24.809 80.3243H21.627V83.5064H24.809V80.3243Z" fill="black"/>
<path d="M34.0786 83.5064H30.8965V81.9154C30.8965 81.0138 31.5859 80.3243 32.4875 80.3243C33.3891 80.3243 34.0786 81.0138 34.0786 81.9154V83.5064Z" fill="black"/>
<path d="M55.7016 83.5064H54.1106C53.209 83.5064 52.5195 82.817 52.5195 81.9154C52.5195 81.0138 53.209 80.3243 54.1106 80.3243H55.7016V83.5064Z" fill="black"/>
<path d="M58.7914 83.5064H55.6094V80.3243H57.2004C58.102 80.3243 58.7914 81.0138 58.7914 81.9154V83.5064Z" fill="black"/>
<path d="M68.059 80.3243H64.877V83.5064H68.059V80.3243Z" fill="black"/>
<path d="M75.7375 83.5064C74.8359 83.5064 74.1465 82.817 74.1465 81.9154V80.3243H77.3286V81.9154C77.3286 82.817 76.6391 83.5064 75.7375 83.5064Z" fill="black"/>
<path d="M94.2727 83.5064C93.3711 83.5064 92.6816 82.817 92.6816 81.9154V80.3243H95.8637V81.9154C95.8637 82.817 95.1743 83.5064 94.2727 83.5064Z" fill="black"/>
<path d="M114.401 83.5064H111.219V81.9154C111.219 81.0138 111.908 80.3243 112.81 80.3243C113.711 80.3243 114.401 81.0138 114.401 81.9154V83.5064Z" fill="black"/>
<path d="M3.18207 83.4153H0V86.5974H3.18207V83.4153Z" fill="black"/>
<path d="M7.77072 86.5974C8.64943 86.5974 9.36176 85.885 9.36176 85.0063C9.36176 84.1276 8.64943 83.4153 7.77072 83.4153C6.89202 83.4153 6.17969 84.1276 6.17969 85.0063C6.17969 85.885 6.89202 86.5974 7.77072 86.5974Z" fill="black"/>
<path d="M15.5395 86.5974H13.9485C13.0469 86.5974 12.3574 85.9079 12.3574 85.0063V83.4153H15.5395V86.5974Z" fill="black"/>
<path d="M17.0383 86.5974H15.4473V83.4153H17.0383C17.9399 83.4153 18.6293 84.1047 18.6293 85.0063C18.6293 85.9079 17.9399 86.5974 17.0383 86.5974Z" fill="black"/>
<path d="M24.809 83.4153H21.627V86.5974H24.809V83.4153Z" fill="black"/>
<path d="M27.8989 86.5974H24.7168V83.4153H26.3078C27.2094 83.4153 27.8989 84.1047 27.8989 85.0063V86.5974Z" fill="black"/>
<path d="M32.4875 86.5974C31.5859 86.5974 30.8965 85.9079 30.8965 85.0063V83.4153H34.0786V85.0063C34.0786 85.9079 33.3891 86.5974 32.4875 86.5974Z" fill="black"/>
<path d="M40.2563 86.5974H37.0742V85.0063C37.0742 84.1047 37.7637 83.4153 38.6653 83.4153H40.2563V86.5974Z" fill="black"/>
<path d="M43.3442 86.5974H40.1621V83.4153H41.7531C42.6547 83.4153 43.3442 84.1047 43.3442 85.0063V86.5974Z" fill="black"/>
<path d="M57.2004 86.5974C56.2988 86.5974 55.6094 85.9079 55.6094 85.0063V83.4153H58.7914V85.0063C58.7914 85.9079 58.102 86.5974 57.2004 86.5974Z" fill="black"/>
<path d="M66.468 86.5974C65.5664 86.5974 64.877 85.9079 64.877 85.0063V83.4153H68.059V85.0063C68.059 85.9079 67.3696 86.5974 66.468 86.5974Z" fill="black"/>
<path d="M83.5063 86.5974H80.3242V85.0063C80.3242 84.1047 81.0137 83.4153 81.9153 83.4153C82.8168 83.4153 83.5063 84.1047 83.5063 85.0063V86.5974Z" fill="black"/>
<path d="M89.686 86.5974H86.5039V85.0063C86.5039 84.1047 87.1934 83.4153 88.0949 83.4153H89.686V86.5974Z" fill="black"/>
<path d="M92.7758 86.5974H89.5938V83.4153H91.1848C92.0864 83.4153 92.7758 84.1047 92.7758 85.0063V86.5974Z" fill="black"/>
<path d="M102.043 86.5974H98.8613V85.0063C98.8613 84.1047 99.5508 83.4153 100.452 83.4153H102.043V86.5974Z" fill="black"/>
<path d="M105.133 83.4153H101.951V86.5974H105.133V83.4153Z" fill="black"/>
<path d="M106.63 86.5974H105.039V83.4153H106.63C107.532 83.4153 108.221 84.1047 108.221 85.0063C108.221 85.9079 107.532 86.5974 106.63 86.5974Z" fill="black"/>
<path d="M114.401 83.4153H111.219V86.5974H114.401V83.4153Z" fill="black"/>
<path d="M1.59103 89.6862C0.689448 89.6862 0 88.9968 0 88.0952V86.5042H3.18207V88.0952C3.18207 88.9968 2.49262 89.6862 1.59103 89.6862Z" fill="black"/>
<path d="M21.7192 89.6862H20.1281C19.2266 89.6862 18.5371 88.9968 18.5371 88.0952C18.5371 87.1936 19.2266 86.5042 20.1281 86.5042H21.7192V89.6862Z" fill="black"/>
<path d="M24.809 86.5042H21.627V89.6862H24.809V86.5042Z" fill="black"/>
<path d="M27.8989 86.5042H24.7168V89.6862H27.8989V86.5042Z" fill="black"/>
<path d="M40.2563 86.5042H37.0742V89.6862H40.2563V86.5042Z" fill="black"/>
<path d="M43.3442 86.5042H40.1621V89.6862H43.3442V86.5042Z" fill="black"/>
<path d="M46.436 86.5042H43.2539V89.6862H46.436V86.5042Z" fill="black"/>
<path d="M49.5239 89.6862H46.3418V86.5042H47.9328C48.8344 86.5042 49.5239 87.1936 49.5239 88.0952V89.6862Z" fill="black"/>
<path d="M61.8813 89.6862H58.6992V88.0952C58.6992 87.1936 59.3887 86.5042 60.2903 86.5042C61.1918 86.5042 61.8813 87.1936 61.8813 88.0952V89.6862Z" fill="black"/>
<path d="M74.2387 89.6862H71.0566V88.0952C71.0566 87.1936 71.7461 86.5042 72.6477 86.5042C73.5493 86.5042 74.2387 87.1936 74.2387 88.0952V89.6862Z" fill="black"/>
<path d="M80.4184 89.6862H77.2363V88.0952C77.2363 87.1936 77.9258 86.5042 78.8274 86.5042H80.4184V89.6862Z" fill="black"/>
<path d="M83.5063 86.5042H80.3242V89.6862H83.5063V86.5042Z" fill="black"/>
<path d="M89.686 86.5042H86.5039V89.6862H89.686V86.5042Z" fill="black"/>
<path d="M92.7758 86.5042H89.5938V89.6862H92.7758V86.5042Z" fill="black"/>
<path d="M95.8637 86.5042H92.6816V89.6862H95.8637V86.5042Z" fill="black"/>
<path d="M98.9536 86.5042H95.7715V89.6862H98.9536V86.5042Z" fill="black"/>
<path d="M102.043 86.5042H98.8613V89.6862H102.043V86.5042Z" fill="black"/>
<path d="M112.81 89.6862C111.908 89.6862 111.219 88.9968 111.219 88.0952V86.5042H114.401V88.0952C114.401 88.9968 113.711 89.6862 112.81 89.6862Z" fill="black"/>
<path d="M27.8989 89.5931H24.7168V92.7752H27.8989V89.5931Z" fill="black"/>
<path d="M30.9868 92.7752H27.8047V89.5931H29.3957C30.2973 89.5931 30.9868 90.2826 30.9868 91.1842V92.7752Z" fill="black"/>
<path d="M37.1664 92.7752H33.9844V91.1842C33.9844 90.2826 34.6738 89.5931 35.5754 89.5931H37.1664V92.7752Z" fill="black"/>
<path d="M40.2563 89.5931H37.0742V92.7752H40.2563V89.5931Z" fill="black"/>
<path d="M46.436 89.5931H43.2539V92.7752H46.436V89.5931Z" fill="black"/>
<path d="M49.5239 89.5931H46.3418V92.7752H49.5239V89.5931Z" fill="black"/>
<path d="M52.6137 89.5931H49.4316V92.7752H52.6137V89.5931Z" fill="black"/>
<path d="M55.7016 89.5931H52.5195V92.7752H55.7016V89.5931Z" fill="black"/>
<path d="M58.7914 89.5931H55.6094V92.7752H58.7914V89.5931Z" fill="black"/>
<path d="M61.8813 89.5931H58.6992V92.7752H61.8813V89.5931Z" fill="black"/>
<path d="M64.9711 92.7752H61.7891V89.5931H63.3801C64.2817 89.5931 64.9711 90.2826 64.9711 91.1842V92.7752Z" fill="black"/>
<path d="M72.6477 92.7752C71.7461 92.7752 71.0566 92.0858 71.0566 91.1842V89.5931H74.2387V91.1842C74.2387 92.0858 73.5493 92.7752 72.6477 92.7752Z" fill="black"/>
<path d="M80.4184 89.5931H77.2363V92.7752H80.4184V89.5931Z" fill="black"/>
<path d="M83.5063 89.5931H80.3242V92.7752H83.5063V89.5931Z" fill="black"/>
<path d="M86.5981 89.5931H83.416V92.7752H86.5981V89.5931Z" fill="black"/>
<path d="M89.686 89.5931H86.5039V92.7752H89.686V89.5931Z" fill="black"/>
<path d="M102.043 89.5931H98.8613V92.7752H102.043V89.5931Z" fill="black"/>
<path d="M111.311 92.7752H108.129V91.1842C108.129 90.2826 108.818 89.5931 109.72 89.5931C110.622 89.5931 111.311 90.2826 111.311 91.1842V92.7752Z" fill="black"/>
<path d="M27.8989 92.682H24.7168V95.8641H27.8989V92.682Z" fill="black"/>
<path d="M29.3957 95.8641H27.8047V92.682H30.9868V94.273C30.9868 95.1746 30.2973 95.8641 29.3957 95.8641Z" fill="black"/>
<path d="M37.1664 95.8641H35.5754C34.6738 95.8641 33.9844 95.1746 33.9844 94.273V92.682H37.1664V95.8641Z" fill="black"/>
<path d="M40.2563 92.682H37.0742V95.8641H40.2563V92.682Z" fill="black"/>
<path d="M46.436 92.682H43.2539V95.8641H46.436V92.682Z" fill="black"/>
<path d="M49.5239 92.682H46.3418V95.8641H49.5239V92.682Z" fill="black"/>
<path d="M52.6137 92.682H49.4316V95.8641H52.6137V92.682Z" fill="black"/>
<path d="M58.7914 92.682H55.6094V95.8641H58.7914V92.682Z" fill="black"/>
<path d="M61.8813 92.682H58.6992V95.8641H61.8813V92.682Z" fill="black"/>
<path d="M63.3801 95.8641H61.7891V92.682H64.9711V94.273C64.9711 95.1746 64.2817 95.8641 63.3801 95.8641Z" fill="black"/>
<path d="M69.5578 95.8641C70.4365 95.8641 71.1489 95.1517 71.1489 94.273C71.1489 93.3943 70.4365 92.682 69.5578 92.682C68.6791 92.682 67.9668 93.3943 67.9668 94.273C67.9668 95.1517 68.6791 95.8641 69.5578 95.8641Z" fill="black"/>
<path d="M77.3286 95.8641H74.1465V94.273C74.1465 93.3715 74.8359 92.682 75.7375 92.682H77.3286V95.8641Z" fill="black"/>
<path d="M80.4184 92.682H77.2363V95.8641H80.4184V92.682Z" fill="black"/>
<path d="M81.9153 95.8641H80.3242V92.682H83.5063V94.273C83.5063 95.1746 82.8168 95.8641 81.9153 95.8641Z" fill="black"/>
<path d="M89.686 92.682H86.5039V95.8641H89.686V92.682Z" fill="black"/>
<path d="M94.2727 95.8641C95.1514 95.8641 95.8637 95.1517 95.8637 94.273C95.8637 93.3943 95.1514 92.682 94.2727 92.682C93.394 92.682 92.6816 93.3943 92.6816 94.273C92.6816 95.1517 93.394 95.8641 94.2727 95.8641Z" fill="black"/>
<path d="M102.043 92.682H98.8613V95.8641H102.043V92.682Z" fill="black"/>
<path d="M103.542 95.8641H101.951V92.682H103.542C104.444 92.682 105.133 93.3715 105.133 94.273C105.133 95.1746 104.444 95.8641 103.542 95.8641Z" fill="black"/>
<path d="M111.311 92.682H108.129V95.8641H111.311V92.682Z" fill="black"/>
<path d="M114.401 95.8641H111.219V92.682H112.81C113.711 92.682 114.401 93.3715 114.401 94.273V95.8641Z" fill="black"/>
<path d="M27.8989 95.771H24.7168V98.9531H27.8989V95.771Z" fill="black"/>
<path d="M40.2563 98.9531H38.6653C37.7637 98.9531 37.0742 98.2636 37.0742 97.362V95.771H40.2563V98.9531Z" fill="black"/>
<path d="M43.3442 95.771H40.1621V98.9531H43.3442V95.771Z" fill="black"/>
<path d="M44.8449 98.9531H43.2539V95.771H46.436V97.362C46.436 98.2636 45.7465 98.9531 44.8449 98.9531Z" fill="black"/>
<path d="M52.6137 95.771H49.4316V98.9531H52.6137V95.771Z" fill="black"/>
<path d="M58.7914 95.771H55.6094V98.9531H58.7914V95.771Z" fill="black"/>
<path d="M77.3286 95.771H74.1465V98.9531H77.3286V95.771Z" fill="black"/>
<path d="M86.5981 98.9531H83.416V97.362C83.416 96.4604 84.1055 95.771 85.0071 95.771H86.5981V98.9531Z" fill="black"/>
<path d="M89.686 95.771H86.5039V98.9531H89.686V95.771Z" fill="black"/>
<path d="M102.043 95.771H98.8613V98.9531H102.043V95.771Z" fill="black"/>
<path d="M111.311 98.9531H109.72C108.818 98.9531 108.129 98.2636 108.129 97.362V95.771H111.311V98.9531Z" fill="black"/>
<path d="M114.401 95.771H111.219V98.9531H114.401V95.771Z" fill="black"/>
<path d="M27.8989 98.8618H24.7168V102.044H27.8989V98.8618Z" fill="black"/>
<path d="M52.6137 98.8618H49.4316V102.044H52.6137V98.8618Z" fill="black"/>
<path d="M58.7914 98.8618H55.6094V102.044H58.7914V98.8618Z" fill="black"/>
<path d="M64.9711 102.044H63.3801C62.4785 102.044 61.7891 101.354 61.7891 100.453C61.7891 99.5513 62.4785 98.8618 63.3801 98.8618H64.9711V102.044Z" fill="black"/>
<path d="M68.059 98.8618H64.877V102.044H68.059V98.8618Z" fill="black"/>
<path d="M69.5578 102.044H67.9668V98.8618H69.5578C70.4594 98.8618 71.1489 99.5513 71.1489 100.453C71.1489 101.354 70.4594 102.044 69.5578 102.044Z" fill="black"/>
<path d="M77.3286 102.044H75.7375C74.8359 102.044 74.1465 101.354 74.1465 100.453V98.8618H77.3286V102.044Z" fill="black"/>
<path d="M80.4184 98.8618H77.2363V102.044H80.4184V98.8618Z" fill="black"/>
<path d="M83.5063 98.8618H80.3242V102.044H83.5063V98.8618Z" fill="black"/>
<path d="M86.5981 98.8618H83.416V102.044H86.5981V98.8618Z" fill="black"/>
<path d="M89.686 98.8618H86.5039V102.044H89.686V98.8618Z" fill="black"/>
<path d="M92.7758 98.8618H89.5938V102.044H92.7758V98.8618Z" fill="black"/>
<path d="M95.8637 98.8618H92.6816V102.044H95.8637V98.8618Z" fill="black"/>
<path d="M98.9536 98.8618H95.7715V102.044H98.9536V98.8618Z" fill="black"/>
<path d="M102.043 98.8618H98.8613V102.044H102.043V98.8618Z" fill="black"/>
<path d="M108.221 102.044H105.039V100.453C105.039 99.5513 105.729 98.8618 106.63 98.8618C107.532 98.8618 108.221 99.5513 108.221 100.453V102.044Z" fill="black"/>
<path d="M112.81 102.044C111.908 102.044 111.219 101.354 111.219 100.453V98.8618H114.401V100.453C114.401 101.354 113.711 102.044 112.81 102.044Z" fill="black"/>
<path d="M27.8989 101.951H24.7168V105.133H27.8989V101.951Z" fill="black"/>
<path d="M32.4875 105.133C33.3662 105.133 34.0786 104.421 34.0786 103.542C34.0786 102.663 33.3662 101.951 32.4875 101.951C31.6088 101.951 30.8965 102.663 30.8965 103.542C30.8965 104.421 31.6088 105.133 32.4875 105.133Z" fill="black"/>
<path d="M49.5239 105.133H46.3418V103.542C46.3418 102.64 47.0312 101.951 47.9328 101.951H49.5239V105.133Z" fill="black"/>
<path d="M52.6137 101.951H49.4316V105.133H52.6137V101.951Z" fill="black"/>
<path d="M55.7016 101.951H52.5195V105.133H55.7016V101.951Z" fill="black"/>
<path d="M58.7914 101.951H55.6094V105.133H58.7914V101.951Z" fill="black"/>
<path d="M78.8274 105.133C77.9258 105.133 77.2363 104.443 77.2363 103.542V101.951H80.4184V103.542C80.4184 104.443 79.7289 105.133 78.8274 105.133Z" fill="black"/>
<path d="M94.2727 105.133C93.3711 105.133 92.6816 104.443 92.6816 103.542V101.951H95.8637V103.542C95.8637 104.443 95.1743 105.133 94.2727 105.133Z" fill="black"/>
<path d="M100.452 105.133C99.5508 105.133 98.8613 104.443 98.8613 103.542V101.951H102.043V103.542C102.043 104.443 101.354 105.133 100.452 105.133Z" fill="black"/>
<path d="M106.63 105.133C105.729 105.133 105.039 104.443 105.039 103.542V101.951H108.221V103.542C108.221 104.443 107.532 105.133 106.63 105.133Z" fill="black"/>
<path d="M27.8989 105.04H24.7168V108.222H27.8989V105.04Z" fill="black"/>
<path d="M40.2563 108.222H37.0742V106.631C37.0742 105.729 37.7637 105.04 38.6653 105.04C39.5668 105.04 40.2563 105.729 40.2563 106.631V108.222Z" fill="black"/>
<path d="M47.9328 108.222C47.0312 108.222 46.3418 107.532 46.3418 106.631V105.04H49.5239V106.631C49.5239 107.532 48.8344 108.222 47.9328 108.222Z" fill="black"/>
<path d="M58.7914 105.04H55.6094V108.222H58.7914V105.04Z" fill="black"/>
<path d="M63.3801 108.222C64.2588 108.222 64.9711 107.509 64.9711 106.631C64.9711 105.752 64.2588 105.04 63.3801 105.04C62.5014 105.04 61.7891 105.752 61.7891 106.631C61.7891 107.509 62.5014 108.222 63.3801 108.222Z" fill="black"/>
<path d="M74.2387 108.222H71.0566V106.631C71.0566 105.729 71.7461 105.04 72.6477 105.04H74.2387V108.222Z" fill="black"/>
<path d="M75.7375 108.222H74.1465V105.04H75.7375C76.6391 105.04 77.3286 105.729 77.3286 106.631C77.3286 107.532 76.6391 108.222 75.7375 108.222Z" fill="black"/>
<path d="M86.5981 108.222H83.416V106.631C83.416 105.729 84.1055 105.04 85.0071 105.04C85.9086 105.04 86.5981 105.729 86.5981 106.631V108.222Z" fill="black"/>
<path d="M91.1848 108.222C92.0635 108.222 92.7758 107.509 92.7758 106.631C92.7758 105.752 92.0635 105.04 91.1848 105.04C90.3061 105.04 89.5938 105.752 89.5938 106.631C89.5938 107.509 90.3061 108.222 91.1848 108.222Z" fill="black"/>
<path d="M98.9536 108.222H95.7715V106.631C95.7715 105.729 96.4609 105.04 97.3625 105.04C98.2641 105.04 98.9536 105.729 98.9536 106.631V108.222Z" fill="black"/>
<path d="M103.542 108.222C104.421 108.222 105.133 107.509 105.133 106.631C105.133 105.752 104.421 105.04 103.542 105.04C102.664 105.04 101.951 105.752 101.951 106.631C101.951 107.509 102.664 108.222 103.542 108.222Z" fill="black"/>
<path d="M114.401 108.222H111.219V106.631C111.219 105.729 111.908 105.04 112.81 105.04C113.711 105.04 114.401 105.729 114.401 106.631V108.222Z" fill="black"/>
<path d="M26.3078 111.311C25.4062 111.311 24.7168 110.621 24.7168 109.72V108.129H27.8989V109.72C27.8989 110.621 27.2094 111.311 26.3078 111.311Z" fill="black"/>
<path d="M32.4875 111.311C33.3662 111.311 34.0786 110.598 34.0786 109.72C34.0786 108.841 33.3662 108.129 32.4875 108.129C31.6088 108.129 30.8965 108.841 30.8965 109.72C30.8965 110.598 31.6088 111.311 32.4875 111.311Z" fill="black"/>
<path d="M40.2563 108.129H37.0742V111.311H40.2563V108.129Z" fill="black"/>
<path d="M44.8449 111.311C45.7236 111.311 46.436 110.598 46.436 109.72C46.436 108.841 45.7236 108.129 44.8449 108.129C43.9662 108.129 43.2539 108.841 43.2539 109.72C43.2539 110.598 43.9662 111.311 44.8449 111.311Z" fill="black"/>
<path d="M52.6137 111.311H51.0227C50.1211 111.311 49.4316 110.621 49.4316 109.72C49.4316 108.818 50.1211 108.129 51.0227 108.129H52.6137V111.311Z" fill="black"/>
<path d="M55.7016 108.129H52.5195V111.311H55.7016V108.129Z" fill="black"/>
<path d="M57.2004 111.311H55.6094V108.129H58.7914V109.72C58.7914 110.621 58.102 111.311 57.2004 111.311Z" fill="black"/>
<path d="M74.2387 108.129H71.0566V111.311H74.2387V108.129Z" fill="black"/>
<path d="M83.5063 111.311H81.9153C81.0137 111.311 80.3242 110.621 80.3242 109.72C80.3242 108.818 81.0137 108.129 81.9153 108.129H83.5063V111.311Z" fill="black"/>
<path d="M86.5981 108.129H83.416V111.311H86.5981V108.129Z" fill="black"/>
<path d="M88.0949 111.311H86.5039V108.129H88.0949C88.9965 108.129 89.686 108.818 89.686 109.72C89.686 110.621 88.9965 111.311 88.0949 111.311Z" fill="black"/>
<path d="M95.8637 111.311H94.2727C93.3711 111.311 92.6816 110.621 92.6816 109.72C92.6816 108.818 93.3711 108.129 94.2727 108.129H95.8637V111.311Z" fill="black"/>
<path d="M97.3625 111.311H95.7715V108.129H98.9536V109.72C98.9536 110.621 98.2641 111.311 97.3625 111.311Z" fill="black"/>
<path d="M114.401 108.129H111.219V111.311H114.401V108.129Z" fill="black"/>
<path d="M29.3957 114.402C30.2744 114.402 30.9868 113.689 30.9868 112.811C30.9868 111.932 30.2744 111.22 29.3957 111.22C28.517 111.22 27.8047 111.932 27.8047 112.811C27.8047 113.689 28.517 114.402 29.3957 114.402Z" fill="black"/>
<path d="M37.1664 114.402H35.5754C34.6738 114.402 33.9844 113.712 33.9844 112.811C33.9844 111.909 34.6738 111.22 35.5754 111.22H37.1664V114.402Z" fill="black"/>
<path d="M40.2563 111.22H37.0742V114.402H40.2563V111.22Z" fill="black"/>
<path d="M41.7531 114.402H40.1621V111.22H41.7531C42.6547 111.22 43.3442 111.909 43.3442 112.811C43.3442 113.712 42.6547 114.402 41.7531 114.402Z" fill="black"/>
<path d="M54.1106 114.402C53.209 114.402 52.5195 113.712 52.5195 112.811V111.22H55.7016V112.811C55.7016 113.712 55.0122 114.402 54.1106 114.402Z" fill="black"/>
<path d="M66.468 114.402C67.3467 114.402 68.059 113.689 68.059 112.811C68.059 111.932 67.3467 111.22 66.468 111.22C65.5893 111.22 64.877 111.932 64.877 112.811C64.877 113.689 65.5893 114.402 66.468 114.402Z" fill="black"/>
<path d="M74.2387 114.402H72.6477C71.7461 114.402 71.0566 113.712 71.0566 112.811V111.22H74.2387V114.402Z" fill="black"/>
<path d="M77.3286 111.22H74.1465V114.402H77.3286V111.22Z" fill="black"/>
<path d="M78.8274 114.402H77.2363V111.22H78.8274C79.7289 111.22 80.4184 111.909 80.4184 112.811C80.4184 113.712 79.7289 114.402 78.8274 114.402Z" fill="black"/>
<path d="M91.1848 114.402C92.0635 114.402 92.7758 113.689 92.7758 112.811C92.7758 111.932 92.0635 111.22 91.1848 111.22C90.3061 111.22 89.5938 111.932 89.5938 112.811C89.5938 113.689 90.3061 114.402 91.1848 114.402Z" fill="black"/>
<path d="M102.043 114.402H100.452C99.5508 114.402 98.8613 113.712 98.8613 112.811C98.8613 111.909 99.5508 111.22 100.452 111.22H102.043V114.402Z" fill="black"/>
<path d="M105.133 111.22H101.951V114.402H105.133V111.22Z" fill="black"/>
<path d="M108.221 111.22H105.039V114.402H108.221V111.22Z" fill="black"/>
<path d="M111.311 111.22H108.129V114.402H111.311V111.22Z" fill="black"/>
<path d="M112.81 114.402H111.219V111.22H114.401V112.811C114.401 113.712 113.711 114.402 112.81 114.402Z" fill="black"/>
<path d="M6.95112 21.6257H14.8291C18.5363 21.6257 21.6257 18.5363 21.6257 14.8291V6.95112C21.6257 3.08939 18.5363 0 14.6746 0H6.79665C3.08939 0 0 3.08939 0 6.79665V14.6746C0 18.5363 3.08939 21.6257 6.95112 21.6257ZM18.5363 7.41453V14.2112C18.5363 16.5282 16.5282 18.5363 14.2112 18.5363H7.41453C4.94302 18.5363 3.08939 16.6827 3.08939 14.2112V7.41453C3.08939 5.09749 5.09749 3.08939 7.41453 3.08939H14.2112C16.6827 3.08939 18.5363 4.94302 18.5363 7.41453Z" fill="black"/>
<path d="M99.6328 21.6257H107.511C111.218 21.6257 114.307 18.5363 114.307 14.8291V6.95112C114.307 3.08939 111.218 0 107.356 0H99.4783C95.771 0 92.6816 3.08939 92.6816 6.79665V14.6746C92.6816 18.5363 95.771 21.6257 99.6328 21.6257ZM111.218 7.41453V14.2112C111.218 16.5282 109.21 18.5363 106.893 18.5363H100.096C97.6247 18.5363 95.771 16.6827 95.771 14.2112V7.41453C95.771 5.09749 97.7791 3.08939 100.096 3.08939H106.893C109.364 3.08939 111.218 4.94302 111.218 7.41453Z" fill="black"/>
<path d="M6.95112 114.307H14.8291C18.5363 114.307 21.6257 111.218 21.6257 107.511V99.6326C21.6257 95.7709 18.5363 92.6815 14.6746 92.6815H6.79665C3.08939 92.6815 0 95.7709 0 99.4782V107.356C0 111.218 3.08939 114.307 6.95112 114.307ZM18.5363 100.096V106.893C18.5363 109.21 16.5282 111.218 14.2112 111.218H7.41453C4.94302 111.218 3.08939 109.364 3.08939 106.893V100.096C3.08939 97.779 5.09749 95.7709 7.41453 95.7709H14.2112C16.6827 95.7709 18.5363 97.6245 18.5363 100.096Z" fill="black"/>
<path d="M15.4498 8.80689V12.9776C15.4498 14.2133 14.214 15.4491 12.8238 15.4491H8.80762C7.26293 15.4491 6.18164 14.3678 6.18164 12.8231V8.80689C6.18164 7.41666 7.4174 6.18091 8.80762 6.18091H12.9783C14.3685 6.18091 15.4498 7.26219 15.4498 8.80689Z" fill="black"/>
<path d="M108.131 8.80689V12.9776C108.131 14.2133 106.896 15.4491 105.505 15.4491H101.489C99.9446 15.4491 98.8633 14.3678 98.8633 12.8231V8.80689C98.8633 7.41666 100.099 6.18091 101.489 6.18091H105.66C107.05 6.18091 108.131 7.26219 108.131 8.80689Z" fill="black"/>
<path d="M15.4498 101.488V105.659C15.4498 106.895 14.214 108.131 12.8238 108.131H8.80762C7.26293 108.131 6.18164 107.049 6.18164 105.505V101.488C6.18164 100.098 7.4174 98.8624 8.80762 98.8624H12.9783C14.3685 98.8624 15.4498 99.9437 15.4498 101.488Z" fill="black"/>
</svg>
