<svg width="131" height="40" viewBox="0 0 131 40" fill="none" xmlns="http://www.w3.org/2000/svg">
<rect width="131" height="40" rx="20" fill="black"/>
<rect x="0.5" y="0.5" width="130" height="39" rx="19.5" stroke="white" stroke-opacity="0.2"/>
<path d="M30.7543 20.304C30.7651 19.4693 30.9868 18.651 31.3988 17.925C31.8108 17.199 32.3998 16.5891 33.1109 16.1519C32.6592 15.5068 32.0632 14.9758 31.3704 14.6013C30.6776 14.2267 29.9069 14.0189 29.1197 13.9943C27.4405 13.818 25.8126 14.9991 24.9568 14.9991C24.0846 14.9991 22.7671 14.0118 21.3483 14.0409C20.4307 14.0706 19.5363 14.3374 18.7524 14.8155C17.9686 15.2936 17.3219 15.9665 16.8754 16.7688C14.9414 20.1172 16.384 25.0383 18.2366 27.7449C19.1635 29.0702 20.2468 30.5507 21.6643 30.4982C23.0513 30.4407 23.5694 29.6137 25.2437 29.6137C26.9024 29.6137 27.3884 30.4982 28.8347 30.4648C30.323 30.4407 31.2608 29.1336 32.1552 27.7957C32.8211 26.8513 33.3336 25.8076 33.6736 24.7032C32.8089 24.3374 32.071 23.7253 31.5518 22.943C31.0327 22.1607 30.7554 21.2429 30.7543 20.304Z" fill="white"/>
<path d="M28.0206 12.2145C28.8323 11.2401 29.2322 9.98763 29.1354 8.72314C27.8953 8.85339 26.7498 9.44607 25.9272 10.3831C25.5249 10.8408 25.2169 11.3734 25.0206 11.9503C24.8243 12.5271 24.7437 13.1371 24.7832 13.7451C25.4035 13.7515 26.0171 13.6171 26.5779 13.3519C27.1387 13.0868 27.632 12.6979 28.0206 12.2145Z" fill="white"/>
<path d="M48.2891 27.1438H43.5557L42.4189 30.5003H40.4141L44.8975 18.0823H46.9805L51.4639 30.5003H49.4248L48.2891 27.1438ZM44.0459 25.595H47.7979L45.9483 20.1477H45.8965L44.0459 25.595Z" fill="white"/>
<path d="M61.1494 25.9726C61.1494 28.7861 59.6436 30.5937 57.3711 30.5937C56.7955 30.6238 56.223 30.4912 55.7192 30.2111C55.2154 29.9309 54.8007 29.5146 54.5225 29.0097H54.4795V33.4941H52.6211V21.4453H54.42V22.9511H54.4541C54.7451 22.4487 55.1668 22.0345 55.6744 21.7526C56.1821 21.4708 56.7566 21.3318 57.3369 21.3505C59.6348 21.3506 61.1494 23.167 61.1494 25.9726ZM59.2393 25.9726C59.2393 24.1396 58.292 22.9345 56.8467 22.9345C55.4268 22.9345 54.4717 24.165 54.4717 25.9726C54.4717 27.7968 55.4268 29.0185 56.8467 29.0185C58.292 29.0185 59.2393 27.8222 59.2393 25.9726Z" fill="white"/>
<path d="M71.1084 25.9726C71.1084 28.7861 69.6026 30.5937 67.3301 30.5937C66.7545 30.6238 66.182 30.4912 65.6782 30.2111C65.1744 29.9309 64.7596 29.5146 64.4815 29.0097H64.4385V33.4941H62.5801V21.4453H64.3789V22.9511H64.4131C64.704 22.4487 65.1258 22.0345 65.6334 21.7526C66.141 21.4708 66.7156 21.3318 67.2959 21.3505C69.5938 21.3505 71.1084 23.1669 71.1084 25.9726ZM69.1983 25.9726C69.1983 24.1396 68.251 22.9345 66.8057 22.9345C65.3858 22.9345 64.4307 24.165 64.4307 25.9726C64.4307 27.7968 65.3858 29.0185 66.8057 29.0185C68.251 29.0185 69.1983 27.8222 69.1983 25.9726Z" fill="white"/>
<path d="M77.7051 27.0403C77.8428 28.2718 79.0391 29.0803 80.6739 29.0803C82.2403 29.0803 83.3672 28.2717 83.3672 27.1614C83.3672 26.1975 82.6875 25.6204 81.0782 25.2249L79.4688 24.8372C77.1885 24.2864 76.1299 23.22 76.1299 21.4895C76.1299 19.3469 77.9971 17.8752 80.6485 17.8752C83.2725 17.8752 85.0713 19.3469 85.1319 21.4895H83.2559C83.1436 20.2502 82.1191 19.5022 80.6221 19.5022C79.125 19.5022 78.1006 20.259 78.1006 21.3606C78.1006 22.2385 78.7549 22.7551 80.3555 23.1506L81.7236 23.4865C84.2715 24.0891 85.3301 25.1125 85.3301 26.9289C85.3301 29.2522 83.4795 30.7072 80.5361 30.7072C77.7822 30.7072 75.9229 29.2863 75.8027 27.0402L77.7051 27.0403Z" fill="white"/>
<path d="M89.334 19.3049V21.4475H91.0557V22.9192H89.334V27.9104C89.334 28.6858 89.6787 29.0471 90.4355 29.0471C90.6399 29.0436 90.844 29.0292 91.0469 29.0041V30.467C90.7066 30.5306 90.3607 30.5594 90.0146 30.5529C88.1816 30.5529 87.4668 29.8645 87.4668 28.1086V22.9192H86.1504V21.4475H87.4668V19.3049H89.334Z" fill="white"/>
<path d="M92.0566 25.9763C92.0566 23.1277 93.7344 21.3376 96.3506 21.3376C98.9756 21.3376 100.646 23.1276 100.646 25.9763C100.646 28.8328 98.9844 30.615 96.3506 30.615C93.7177 30.615 92.0566 28.8328 92.0566 25.9763ZM98.7519 25.9763C98.7519 24.0222 97.8564 22.8689 96.3506 22.8689C94.8447 22.8689 93.9502 24.031 93.9502 25.9763C93.9502 27.9382 94.8447 29.0828 96.3506 29.0828C97.8564 29.0828 98.7519 27.9382 98.7519 25.9763Z" fill="white"/>
<path d="M102.164 21.4452H103.937V22.9862H103.98C104.099 22.5049 104.381 22.0796 104.778 21.7817C105.175 21.4838 105.662 21.3315 106.157 21.3505C106.371 21.3497 106.585 21.373 106.794 21.4198V23.1581C106.524 23.0755 106.242 23.0375 105.959 23.0458C105.689 23.0348 105.42 23.0824 105.17 23.1853C104.92 23.2882 104.696 23.4439 104.512 23.6418C104.328 23.8397 104.189 24.0751 104.104 24.3317C104.02 24.5884 103.992 24.8603 104.022 25.1288V30.4989H102.164L102.164 21.4452Z" fill="white"/>
<path d="M115.368 27.843C115.118 29.4866 113.518 30.6145 111.47 30.6145C108.836 30.6145 107.201 28.8498 107.201 26.0188C107.201 23.179 108.845 21.3372 111.392 21.3372C113.896 21.3372 115.472 23.0579 115.472 25.803V26.4397H109.077V26.552C109.048 26.8852 109.089 27.2209 109.2 27.5367C109.31 27.8525 109.486 28.1413 109.716 28.3839C109.947 28.6264 110.226 28.8172 110.536 28.9435C110.845 29.0698 111.178 29.1288 111.513 29.1164C111.952 29.1576 112.393 29.0559 112.769 28.8264C113.146 28.597 113.439 28.2521 113.604 27.843L115.368 27.843ZM109.086 25.1409H113.612C113.629 24.8413 113.584 24.5415 113.479 24.2603C113.374 23.979 113.213 23.7225 113.004 23.5067C112.795 23.291 112.545 23.1206 112.267 23.0064C111.99 22.8922 111.692 22.8366 111.392 22.843C111.089 22.8412 110.789 22.8994 110.509 23.0141C110.229 23.1288 109.974 23.2979 109.76 23.5115C109.546 23.7252 109.376 23.9791 109.26 24.2588C109.144 24.5384 109.085 24.8382 109.086 25.1409Z" fill="white"/>
<path d="M43.8139 8.73358C44.2036 8.70561 44.5946 8.76449 44.9588 8.90595C45.323 9.04741 45.6512 9.26793 45.9199 9.55161C46.1885 9.83529 46.3908 10.1751 46.5123 10.5464C46.6337 10.9177 46.6712 11.3114 46.6221 11.699C46.6221 13.6056 45.5916 14.7016 43.8139 14.7016H41.6582V8.73358H43.8139ZM42.5851 13.8576H43.7104C43.9888 13.8742 44.2675 13.8286 44.5261 13.7239C44.7847 13.6193 45.0167 13.4583 45.2052 13.2527C45.3937 13.0471 45.534 12.8021 45.6159 12.5354C45.6978 12.2687 45.7192 11.9871 45.6785 11.7112C45.7162 11.4363 45.6927 11.1565 45.6095 10.8917C45.5264 10.627 45.3857 10.384 45.1976 10.18C45.0095 9.97603 44.7787 9.81619 44.5215 9.71193C44.2644 9.60767 43.9874 9.56158 43.7104 9.57695H42.5851V13.8576Z" fill="white"/>
<path d="M47.6604 12.4467C47.6321 12.1507 47.666 11.8521 47.7598 11.57C47.8537 11.2878 48.0055 11.0285 48.2055 10.8084C48.4054 10.5884 48.6492 10.4126 48.9211 10.2923C49.193 10.172 49.4871 10.1099 49.7844 10.1099C50.0817 10.1099 50.3758 10.172 50.6477 10.2923C50.9196 10.4126 51.1633 10.5884 51.3633 10.8084C51.5633 11.0285 51.7151 11.2878 51.8089 11.57C51.9028 11.8521 51.9367 12.1507 51.9083 12.4467C51.9372 12.743 51.9037 13.042 51.8101 13.3246C51.7165 13.6072 51.5648 13.8671 51.3648 14.0875C51.1648 14.308 50.9208 14.4841 50.6486 14.6047C50.3765 14.7253 50.0821 14.7875 49.7844 14.7875C49.4867 14.7875 49.1923 14.7253 48.9201 14.6047C48.648 14.4841 48.404 14.308 48.204 14.0875C48.004 13.8671 47.8523 13.6072 47.7587 13.3246C47.665 13.042 47.6316 12.743 47.6604 12.4467ZM50.9941 12.4467C50.9941 11.4704 50.5555 10.8995 49.7859 10.8995C49.0132 10.8995 48.5786 11.4704 48.5786 12.4467C48.5786 13.4308 49.0133 13.9973 49.7859 13.9973C50.5555 13.9973 50.9941 13.4269 50.9941 12.4467Z" fill="white"/>
<path d="M57.5596 14.7025H56.6375L55.7067 11.3855H55.6364L54.7094 14.7025H53.7961L52.5547 10.1987H53.4562L54.263 13.6354H54.3295L55.2554 10.1987H56.1081L57.0341 13.6354H57.1044L57.9073 10.1987H58.7961L57.5596 14.7025Z" fill="white"/>
<path d="M59.8399 10.1959H60.6955V10.9113H60.7619C60.8746 10.6544 61.0646 10.4389 61.3055 10.2951C61.5465 10.1513 61.8263 10.0862 62.1059 10.1089C62.3251 10.0924 62.5451 10.1255 62.7497 10.2056C62.9544 10.2857 63.1384 10.4108 63.2881 10.5717C63.4378 10.7326 63.5494 10.9251 63.6146 11.135C63.6798 11.3448 63.697 11.5667 63.6648 11.7841V14.6996H62.776V12.0073C62.776 11.2835 62.4615 10.9235 61.8041 10.9235C61.6553 10.9166 61.5068 10.9419 61.3687 10.9978C61.2306 11.0536 61.1062 11.1387 61.0041 11.2471C60.902 11.3555 60.8245 11.4847 60.7769 11.6258C60.7294 11.767 60.7129 11.9168 60.7287 12.0649V14.6997H59.8398L59.8399 10.1959Z" fill="white"/>
<path d="M65.0723 8.44043H65.9611V14.7024H65.0723V8.44043Z" fill="white"/>
<path d="M67.2053 12.4468C67.177 12.1508 67.2109 11.8521 67.3048 11.57C67.3987 11.2879 67.5505 11.0285 67.7505 10.8084C67.9505 10.5884 68.1943 10.4126 68.4662 10.2923C68.7381 10.172 69.0322 10.1099 69.3295 10.1099C69.6269 10.1099 69.9209 10.172 70.1929 10.2923C70.4648 10.4126 70.7086 10.5884 70.9086 10.8084C71.1086 11.0285 71.2604 11.2879 71.3543 11.57C71.4481 11.8521 71.482 12.1508 71.4537 12.4468C71.4825 12.7431 71.4491 13.0421 71.3554 13.3247C71.2618 13.6073 71.1101 13.8671 70.91 14.0876C70.71 14.308 70.466 14.4842 70.1938 14.6048C69.9216 14.7253 69.6272 14.7876 69.3295 14.7876C69.0318 14.7876 68.7374 14.7253 68.4653 14.6048C68.1931 14.4842 67.9491 14.308 67.7491 14.0876C67.549 13.8671 67.3973 13.6073 67.3036 13.3247C67.21 13.0421 67.1765 12.7431 67.2053 12.4468ZM70.539 12.4468C70.539 11.4705 70.1004 10.8996 69.3308 10.8996C68.5581 10.8996 68.1235 11.4705 68.1235 12.4468C68.1235 13.4309 68.5582 13.9974 69.3308 13.9974C70.1004 13.9974 70.539 13.427 70.539 12.4468Z" fill="white"/>
<path d="M72.3926 13.4269C72.3926 12.6162 72.9962 12.1488 74.0677 12.0824L75.2877 12.0121V11.6233C75.2877 11.1477 74.9732 10.8791 74.3656 10.8791C73.8694 10.8791 73.5256 11.0612 73.427 11.3796H72.5664C72.6573 10.6061 73.385 10.1099 74.4066 10.1099C75.5358 10.1099 76.1726 10.672 76.1726 11.6233V14.7006H75.317V14.0677H75.2467C75.1039 14.2947 74.9035 14.4798 74.6658 14.604C74.4281 14.7283 74.1617 14.7872 73.8938 14.7748C73.7048 14.7945 73.5137 14.7743 73.3329 14.7156C73.1521 14.6569 72.9856 14.5609 72.8442 14.4339C72.7027 14.307 72.5895 14.1517 72.5117 13.9783C72.4339 13.8048 72.3933 13.617 72.3926 13.4269ZM75.2877 13.0421V12.6655L74.1879 12.7359C73.5676 12.7774 73.2863 12.9884 73.2863 13.3854C73.2863 13.7907 73.6379 14.0266 74.1215 14.0266C74.2631 14.041 74.4062 14.0267 74.5423 13.9846C74.6783 13.9425 74.8045 13.8734 74.9133 13.7816C75.0221 13.6897 75.1113 13.5769 75.1756 13.4499C75.24 13.3228 75.2781 13.1841 75.2877 13.0421Z" fill="white"/>
<path d="M77.3398 12.4486C77.3398 11.0254 78.0714 10.1239 79.2094 10.1239C79.4908 10.1109 79.7702 10.1783 80.0147 10.3183C80.2593 10.4582 80.459 10.6648 80.5905 10.914H80.6569V8.44043H81.5457V14.7024H80.694V13.9908H80.6237C80.4821 14.2384 80.2754 14.4424 80.0261 14.581C79.7768 14.7195 79.4944 14.7871 79.2094 14.7766C78.0636 14.7767 77.3398 13.8751 77.3398 12.4486ZM78.258 12.4486C78.258 13.4038 78.7083 13.9787 79.4614 13.9787C80.2105 13.9787 80.6735 13.3955 80.6735 12.4525C80.6735 11.5138 80.2057 10.9224 79.4614 10.9224C78.7132 10.9224 78.258 11.5011 78.258 12.4486Z" fill="white"/>
<path d="M85.219 12.4467C85.1907 12.1507 85.2246 11.8521 85.3184 11.57C85.4123 11.2878 85.5641 11.0285 85.7641 10.8084C85.964 10.5884 86.2078 10.4126 86.4797 10.2923C86.7516 10.172 87.0457 10.1099 87.343 10.1099C87.6403 10.1099 87.9344 10.172 88.2063 10.2923C88.4782 10.4126 88.7219 10.5884 88.9219 10.8084C89.1219 11.0285 89.2737 11.2878 89.3675 11.57C89.4614 11.8521 89.4953 12.1507 89.4669 12.4467C89.4958 12.743 89.4623 13.042 89.3687 13.3246C89.2751 13.6072 89.1234 13.8671 88.9234 14.0875C88.7233 14.308 88.4794 14.4841 88.2072 14.6047C87.9351 14.7253 87.6407 14.7875 87.343 14.7875C87.0453 14.7875 86.7509 14.7253 86.4787 14.6047C86.2066 14.4841 85.9626 14.308 85.7626 14.0875C85.5625 13.8671 85.4109 13.6072 85.3172 13.3246C85.2236 13.042 85.1902 12.743 85.219 12.4467ZM88.5527 12.4467C88.5527 11.4704 88.1141 10.8995 87.3444 10.8995C86.5718 10.8995 86.1372 11.4704 86.1372 12.4467C86.1372 13.4308 86.5719 13.9973 87.3444 13.9973C88.1141 13.9973 88.5527 13.4269 88.5527 12.4467Z" fill="white"/>
<path d="M90.6523 10.1959H91.508V10.9113H91.5744C91.6871 10.6544 91.8771 10.4389 92.118 10.2951C92.359 10.1513 92.6388 10.0862 92.9184 10.1089C93.1376 10.0924 93.3576 10.1255 93.5622 10.2056C93.7669 10.2857 93.9509 10.4108 94.1006 10.5717C94.2503 10.7326 94.3619 10.9251 94.4271 11.135C94.4923 11.3448 94.5095 11.5667 94.4773 11.7841V14.6996H93.5885V12.0073C93.5885 11.2835 93.274 10.9235 92.6166 10.9235C92.4678 10.9166 92.3193 10.9419 92.1812 10.9978C92.0431 11.0536 91.9187 11.1387 91.8166 11.2471C91.7145 11.3555 91.637 11.4847 91.5894 11.6258C91.5419 11.767 91.5254 11.9168 91.5412 12.0649V14.6997H90.6523V10.1959Z" fill="white"/>
<path d="M99.5072 9.07617V10.218H100.483V10.9667H99.5072V13.2826C99.5072 13.7543 99.7015 13.9609 100.144 13.9609C100.257 13.9606 100.37 13.9537 100.483 13.9404V14.6808C100.323 14.7093 100.162 14.7245 99.9994 14.7262C99.011 14.7262 98.6173 14.3785 98.6173 13.5101V10.9666H97.9023V10.218H98.6173V9.07617H99.5072Z" fill="white"/>
<path d="M101.684 8.44043H102.565V10.9224H102.635C102.753 10.663 102.948 10.4464 103.194 10.302C103.44 10.1576 103.724 10.0925 104.008 10.1156C104.226 10.1037 104.444 10.1401 104.646 10.2222C104.849 10.3042 105.031 10.4299 105.179 10.5903C105.327 10.7507 105.438 10.9417 105.504 11.1499C105.569 11.3581 105.588 11.5782 105.559 11.7946V14.7024H104.67V12.0139C104.67 11.2945 104.335 10.9302 103.706 10.9302C103.554 10.9176 103.4 10.9386 103.256 10.9917C103.112 11.0448 102.982 11.1286 102.874 11.2374C102.766 11.3461 102.683 11.4772 102.631 11.6213C102.579 11.7655 102.559 11.9193 102.572 12.072V14.7024H101.684L101.684 8.44043Z" fill="white"/>
<path d="M110.752 13.4846C110.632 13.8962 110.37 14.2523 110.013 14.4905C109.656 14.7287 109.227 14.8339 108.801 14.7876C108.504 14.7954 108.209 14.7386 107.937 14.6211C107.664 14.5035 107.42 14.3281 107.222 14.1069C107.025 13.8857 106.877 13.6241 106.79 13.3402C106.704 13.0563 106.68 12.757 106.72 12.4629C106.681 12.168 106.705 11.868 106.792 11.5833C106.878 11.2986 107.025 11.0357 107.222 10.8126C107.419 10.5895 107.661 10.4113 107.933 10.2901C108.205 10.1688 108.499 10.1074 108.797 10.1099C110.05 10.1099 110.806 10.9661 110.806 12.3804V12.6905H107.626V12.7403C107.612 12.9056 107.633 13.072 107.687 13.2288C107.741 13.3855 107.827 13.5293 107.94 13.6508C108.053 13.7722 108.19 13.8688 108.343 13.9342C108.495 13.9996 108.659 14.0324 108.825 14.0306C109.038 14.0561 109.253 14.0178 109.444 13.9206C109.635 13.8234 109.792 13.6716 109.897 13.4846L110.752 13.4846ZM107.626 12.0332H109.901C109.912 11.882 109.891 11.7302 109.84 11.5874C109.789 11.4447 109.709 11.3142 109.605 11.2043C109.5 11.0944 109.374 11.0076 109.234 10.9494C109.094 10.8912 108.944 10.863 108.792 10.8664C108.638 10.8645 108.486 10.8934 108.343 10.9513C108.201 11.0093 108.072 11.0952 107.963 11.2039C107.854 11.3126 107.768 11.442 107.711 11.5844C107.653 11.7269 107.624 11.8794 107.626 12.0332Z" fill="white"/>
</svg>
