<svg width="1008" height="323" viewBox="0 0 1008 323" fill="none" xmlns="http://www.w3.org/2000/svg">
<g opacity="0.1">
<path d="M810.765 -187.466C810.765 46.2681 810.502 240.91 810.107 245.011C809.582 250.068 809.713 251.708 810.633 249.795C811.291 248.291 823.78 150.833 838.373 33.1462C853.098 -84.5411 877.025 -275.766 891.619 -391.949C906.212 -508.133 918.044 -603.267 917.781 -603.54C916.598 -605.181 863.353 -610.238 834.166 -611.468L810.765 -612.425V-187.466Z" fill="url(#paint0_radial_1100_7690)"/>
<path d="M670.093 -599.029C651.293 -595.886 622.369 -589.735 603.043 -584.951C596.207 -583.311 593.183 -581.944 593.315 -580.577C593.446 -578.39 601.597 -546.678 687.184 -214.94C699.542 -166.826 717.291 -97.9361 726.625 -61.8508C735.959 -25.7655 752.524 38.4772 763.436 80.9868C774.348 123.496 788.679 178.854 795.121 204.005C807.084 250.615 808.662 256.219 807.479 247.745C807.084 245.148 793.543 138.669 777.241 11.2766C760.938 -116.115 736.617 -305.837 723.338 -410.128C709.928 -514.42 699.016 -600.396 699.016 -601.08C699.016 -603.13 691.128 -602.583 670.093 -599.029Z" fill="url(#paint1_radial_1100_7690)"/>
<path d="M1026.51 -575.52C1018.75 -545.313 986.936 -421.748 971.16 -360.512C952.228 -287.111 939.476 -237.494 900.298 -85.772C890.963 -49.2766 873.083 19.8868 860.725 68.0005C817.866 234.075 813.528 251.161 813.922 251.434C814.185 251.707 817.34 244.053 821.153 234.485C824.834 224.78 895.828 45.994 978.785 -163L1129.71 -542.989L1123.4 -545.996C1111.83 -551.6 1071.87 -566.636 1051.22 -573.197C1040.05 -576.751 1030.32 -579.894 1029.4 -580.168C1028.48 -580.578 1027.3 -578.664 1026.51 -575.52Z" fill="url(#paint2_radial_1100_7690)"/>
<path d="M468.286 -537.659C449.485 -529.184 413.2 -510.595 399.001 -502.393L388.878 -496.379L543.223 -218.358C628.284 -65.4059 721.496 102.719 750.682 155.07C779.737 207.421 803.665 250.067 803.796 249.93C804.059 249.657 798.011 234.211 790.518 215.485C776.713 181.04 737.93 83.9926 681.398 -57.4781C664.307 -100.124 636.435 -169.835 619.344 -212.618C602.253 -255.264 573.987 -326.068 556.37 -370.081C538.753 -414.094 516.009 -470.819 505.886 -496.379C495.631 -521.803 487.349 -543.126 487.349 -543.81C487.349 -545.996 484.325 -545.04 468.286 -537.659Z" fill="url(#paint3_radial_1100_7690)"/>
<path d="M1229.63 -490.091C1228.58 -488.314 1185.59 -410.95 1134.18 -318.14C993.246 -64.3123 819.837 248.017 817.602 251.844C815.762 254.988 815.762 255.125 817.602 253.211C823.65 247.06 1321 -430.633 1320.08 -431.589C1310.09 -441.021 1235.68 -493.098 1232.13 -493.098C1231.86 -493.098 1230.68 -491.732 1229.63 -490.091Z" fill="url(#paint4_radial_1100_7690)"/>
<path d="M289.622 -424.344C256.097 -395.913 215.21 -358.598 215.21 -356.411C215.21 -356.001 347.205 -218.494 508.65 -50.9162C669.964 116.798 800.776 252.255 799.461 250.205C788.418 233.939 297.116 -428.718 296.064 -428.718C295.406 -428.718 292.383 -426.805 289.622 -424.344Z" fill="url(#paint5_radial_1100_7690)"/>
<path d="M1111.17 -47.4984C949.861 120.216 818.523 257.04 819.312 256.766C822.73 255.126 910.421 216.99 958.67 196.077C988.382 183.365 1053.46 155.208 1103.29 133.611C1153.25 112.015 1216.48 84.6776 1243.96 72.7859C1271.44 60.8941 1327.71 36.5639 1368.86 18.7946C1410.14 1.02538 1475.21 -27.1321 1513.47 -43.6712C1551.86 -60.2102 1583.55 -74.1523 1584.07 -74.699C1585.39 -75.9292 1566.98 -117.345 1553.96 -142.496C1537.4 -174.344 1537.27 -174.617 1535.56 -174.07C1534.77 -173.66 1377.4 -79.3464 1185.85 35.6071C994.43 150.561 835.351 246.105 832.459 247.745C829.567 249.522 827.858 250.342 828.515 249.522C829.304 248.838 973.526 133.201 1149.3 -7.17584C1325.08 -147.553 1470.22 -263.873 1471.93 -265.65L1475.08 -268.657L1468.64 -277.405C1452.08 -299.822 1408.95 -350.669 1405.67 -351.9C1405.01 -352.173 1272.36 -215.076 1111.17 -47.4984Z" fill="url(#paint6_radial_1100_7690)"/>
<path d="M130.28 -255.537C116.738 -236.401 101.882 -213.574 90.0498 -193.891C82.0302 -180.496 80.1896 -176.396 81.3728 -175.302C82.2931 -174.345 243.869 -77.2977 440.416 40.6629C636.964 158.487 797.488 255.124 797.225 255.398C797.094 255.671 784.21 250.34 768.696 243.779C725.311 225.19 657.21 196.076 589.897 167.098C556.241 152.609 519.035 136.617 507.072 131.56C495.108 126.502 457.902 110.51 424.246 96.0211C390.589 81.5323 353.384 65.5399 341.42 60.4825C329.456 55.4251 301.059 43.26 278.314 33.4186C164.199 -15.5153 111.348 -38.2053 78.4805 -52.284C58.6286 -60.8953 40.2228 -68.8231 37.5934 -69.9166L32.7291 -71.9669L28.522 -61.442C18.6618 -36.7017 -4.08245 32.5984 -2.63628 33.9653C-2.50481 34.102 24.315 41.6198 56.788 50.6411C119.236 68.0003 195.357 89.1867 317.755 123.358C358.642 134.703 420.433 151.926 455.141 161.631C644.326 214.255 792.098 255.534 796.699 256.901C802.878 258.815 796.436 252.664 769.091 231.068C743.848 211.111 530.473 41.2097 458.428 -16.062C394.139 -67.3195 175.111 -241.458 159.071 -254.17C148.817 -262.235 140.271 -268.932 140.008 -268.932C139.745 -268.796 135.407 -262.918 130.28 -255.537Z" fill="url(#paint7_radial_1100_7690)"/>
<path d="M1580.52 46.6775C1537.27 58.8426 1419.34 91.7841 1325.21 118.028C1116.83 175.983 996.795 209.471 902.795 235.715C867.692 245.42 834.956 254.578 829.829 255.945C824.833 257.312 821.678 258.542 822.861 258.542C824.833 258.679 1006.79 233.528 1501.38 165.048C1579.34 154.25 1643.36 145.229 1643.63 144.955C1644.55 143.998 1636.53 97.935 1631.27 73.4681C1624.3 41.6201 1622.85 36.6994 1620.62 36.2893C1619.57 36.1526 1601.56 40.8 1580.52 46.6775Z" fill="url(#paint8_radial_1100_7690)"/>
<path d="M-25.9074 152.338C-28.6682 169.97 -31.692 207.012 -32.7438 236.4L-33.6641 260.047L381.649 259.91L796.961 259.774L733.856 251.162C699.148 246.378 527.317 223.005 351.936 199.221C176.556 175.574 21.9476 154.661 8.14329 152.748C-5.52955 150.834 -18.6765 149.057 -21.043 148.647C-24.9871 147.964 -25.25 148.1 -25.9074 152.338Z" fill="url(#paint9_radial_1100_7690)"/>
<path d="M823.255 262.233C824.702 262.506 846.657 265.513 871.899 268.931C897.273 272.211 992.72 285.196 1084.22 297.498C1449.05 346.979 1635.87 372.129 1639.68 372.539L1643.63 372.812L1645.2 356.41C1647.31 334.54 1649.54 292.851 1649.54 275.355V261.413L1235.15 261.55C1007.18 261.686 821.809 261.96 823.255 262.233Z" fill="url(#paint10_radial_1100_7690)"/>
<path d="M784.474 264.968C778.295 265.925 626.053 287.111 445.939 311.988C265.957 336.865 86.6329 361.605 47.5864 367.073L-23.4072 376.914L-23.0128 381.698C-21.5667 398.921 -5.92176 484.213 -3.68678 486.674C-3.55531 486.947 31.1527 477.516 73.3544 465.761C145.926 445.531 212.186 427.078 359.827 385.936C394.929 376.231 456.983 358.872 497.87 347.527C603.44 318.139 685.214 295.312 743.718 279.183C771.59 271.392 794.86 264.558 795.649 263.874C796.306 263.328 796.569 262.918 796.306 262.918C795.912 263.054 790.653 264.011 784.474 264.968Z" fill="url(#paint11_radial_1100_7690)"/>
<path d="M819.967 264.557C820.361 264.83 847.575 276.722 880.443 290.801C961.559 325.519 1005.34 344.382 1165.73 413.136C1199.39 427.624 1236.59 443.617 1248.56 448.674C1260.52 453.731 1297.73 469.724 1331.38 484.213C1365.04 498.701 1402.25 514.694 1414.21 519.751C1426.17 524.809 1463.38 540.801 1497.04 555.29C1584.59 592.879 1586.17 593.562 1587.49 593.562C1589.98 593.562 1608.13 540.801 1617.46 506.629C1619.83 497.471 1621.93 489.27 1621.93 488.587C1621.93 487.903 1619.43 486.81 1616.41 485.99C1613.25 485.306 1576.18 474.918 1533.85 463.163C1491.51 451.271 1428.54 433.775 1393.83 424.07C1359.12 414.366 1297.33 397.143 1256.45 385.798C1215.56 374.453 1158.24 358.461 1128.92 350.26C1070.94 334.131 958.667 302.829 876.499 280.003C847.97 271.938 823.385 265.104 821.939 264.694C820.492 264.147 819.572 264.147 819.967 264.557Z" fill="url(#paint12_radial_1100_7690)"/>
<path d="M785.788 271.664C780.398 274.125 748.188 288.204 714.137 302.829C680.218 317.454 615.141 345.612 569.521 365.295C524.032 384.978 464.214 410.811 436.736 422.703C409.259 434.595 360.484 455.645 328.274 469.587C296.064 483.529 247.026 504.715 219.154 516.744C191.283 528.772 138.432 551.599 101.489 567.591C64.6772 583.447 33.9133 597.115 33.256 597.662C31.5469 599.439 44.2994 629.374 62.3108 666.006C70.5934 682.955 77.8242 697.307 78.4815 697.99C79.2704 698.81 80.3221 698.674 81.3739 697.854C82.2942 697.033 242.293 600.943 436.736 484.212C631.312 367.482 792.23 270.844 794.334 269.477C800.119 265.787 796.963 266.47 785.788 271.664Z" fill="url(#paint13_radial_1100_7690)"/>
<path d="M818.653 268.657C818.653 269.067 866.114 307.202 924.223 353.403C982.202 399.466 1095.66 489.816 1176.25 553.922C1256.84 618.028 1357.28 697.99 1399.49 731.478C1441.56 764.966 1476.53 792.577 1477.05 792.714C1477.97 792.987 1504.14 754.715 1512.29 741.183C1520.18 728.061 1536.35 699.63 1536.08 699.357C1535.95 699.22 1375.16 602.719 1178.88 484.895C982.596 367.071 821.151 270.024 820.362 269.34C819.442 268.52 818.653 268.247 818.653 268.657Z" fill="url(#paint14_radial_1100_7690)"/>
<path d="M819.575 275.764C854.546 323.605 1322.58 955.234 1323.24 955.507C1325.08 956.054 1364.12 921.472 1383.97 901.653C1394.49 891.265 1403.17 882.38 1403.43 881.97C1403.56 881.56 1271.44 743.78 1109.6 575.792C947.889 407.804 817.471 272.757 819.575 275.764Z" fill="url(#paint15_radial_1100_7690)"/>
<path d="M796.302 276.176C793.804 278.363 646.427 396.187 468.943 538.204C291.459 680.085 145.396 796.952 144.344 797.909C142.898 799.413 143.95 801.463 150.918 810.484C164.459 827.844 184.574 851.49 200.087 868.03L214.549 883.475L508.384 577.844C669.96 409.856 801.955 272.349 801.561 272.349C801.167 272.349 798.8 274.126 796.302 276.176Z" fill="url(#paint16_radial_1100_7690)"/>
<path d="M816.811 278.5C817.863 281.507 830.221 312.535 844.289 347.527C878.076 431.999 925.8 551.463 955.775 626.367C991.403 715.487 1023.61 795.996 1069.76 911.359C1092.24 967.674 1115.51 1025.9 1121.3 1040.53C1127.21 1055.15 1132.34 1067.73 1132.86 1068.28C1134.57 1070.19 1180.19 1047.77 1213.46 1028.64C1224.76 1022.08 1228.71 1019.07 1228.18 1017.56C1227.79 1016.47 1169.94 911.906 1099.47 785.061C1029.13 658.352 936.843 492.141 894.51 415.87C852.177 339.599 816.811 276.176 816.154 275.083C815.365 273.989 815.628 275.493 816.811 278.5Z" fill="url(#paint17_radial_1100_7690)"/>
<path d="M812.738 281.232C813.395 286.973 841.924 510.592 908.053 1027.4C915.284 1083.72 921.332 1130.06 921.595 1130.33C922.384 1131.01 951.438 1126.09 971.816 1121.86C997.716 1116.25 1027.03 1108.32 1026.77 1106.82C1026.64 1106 1019.67 1078.66 1011.26 1045.99C1002.84 1013.33 989.565 961.659 981.676 931.177C965.9 870.079 937.24 758.679 910.683 655.754C901.217 618.848 884.52 554.332 873.74 512.233C809.057 261.276 811.818 271.801 812.738 281.232Z" fill="url(#paint18_radial_1100_7690)"/>
<path d="M554.27 612.972C418.067 798.046 304.872 951.682 302.9 954.552L299.219 959.609L314.732 971.228C335.767 986.81 388.75 1022.08 389.538 1020.98C389.67 1020.85 451.592 909.309 527.056 773.305C707.564 448.264 801.696 278.773 802.485 277.406C802.748 276.859 802.748 276.449 802.485 276.449C802.222 276.449 690.473 427.898 554.27 612.972Z" fill="url(#paint19_radial_1100_7690)"/>
<path d="M807.478 284.24C806.426 293.534 776.188 535.47 732.54 883.337C715.581 1018.93 702.039 1130.33 702.697 1130.88C704.932 1132.93 768.432 1137.57 794.726 1137.57H809.45V707.012C809.45 470.133 809.187 276.448 808.924 276.448C808.661 276.448 808.004 280.002 807.478 284.24Z" fill="url(#paint20_radial_1100_7690)"/>
<path d="M745.688 426.531C713.346 508.27 674.826 605.181 660.233 642.086C625.525 729.429 602.517 787.521 571.491 865.569C557.555 900.561 540.069 944.847 532.444 963.983C519.823 995.558 490.637 1069.1 489.191 1072.79C488.007 1075.66 575.566 1106.82 587.661 1107.91L591.737 1108.19L605.147 1056.25C612.509 1027.68 627.76 968.631 638.935 925.028C685.343 745.148 700.068 688.149 716.107 625.684C725.442 589.598 742.007 525.356 752.919 482.846C796.83 312.534 805.507 278.636 805.112 278.363C804.849 278.089 778.161 344.792 745.688 426.531Z" fill="url(#paint21_radial_1100_7690)"/>
</g>
<defs>
<radialGradient id="paint0_radial_1100_7690" cx="0" cy="0" r="1" gradientUnits="userSpaceOnUse" gradientTransform="translate(863.793 -180.928) rotate(-90) scale(431.498 53.9928)">
<stop stop-color="white" stop-opacity="0"/>
<stop offset="0.208333" stop-color="white" stop-opacity="0"/>
<stop offset="1" stop-color="white" stop-opacity="0.36"/>
</radialGradient>
<radialGradient id="paint1_radial_1100_7690" cx="0" cy="0" r="1" gradientUnits="userSpaceOnUse" gradientTransform="translate(700.558 -175.614) rotate(-90) scale(426.656 107.247)">
<stop stop-color="white" stop-opacity="0"/>
<stop offset="0.208333" stop-color="white" stop-opacity="0"/>
<stop offset="1" stop-color="white" stop-opacity="0.36"/>
</radialGradient>
<radialGradient id="paint2_radial_1100_7690" cx="0" cy="0" r="1" gradientUnits="userSpaceOnUse" gradientTransform="translate(971.806 -164.391) rotate(-90) scale(415.832 157.906)">
<stop stop-color="white" stop-opacity="0"/>
<stop offset="0.208333" stop-color="white" stop-opacity="0"/>
<stop offset="1" stop-color="white" stop-opacity="0.36"/>
</radialGradient>
<radialGradient id="paint3_radial_1100_7690" cx="0" cy="0" r="1" gradientUnits="userSpaceOnUse" gradientTransform="translate(596.341 -147.455) rotate(-90) scale(397.386 207.463)">
<stop stop-color="white" stop-opacity="0"/>
<stop offset="0.208333" stop-color="white" stop-opacity="0"/>
<stop offset="1" stop-color="white" stop-opacity="0.36"/>
</radialGradient>
<radialGradient id="paint4_radial_1100_7690" cx="0" cy="0" r="1" gradientUnits="userSpaceOnUse" gradientTransform="translate(1068.15 -119.316) rotate(-90) scale(373.782 251.929)">
<stop stop-color="white" stop-opacity="0"/>
<stop offset="0.208333" stop-color="white" stop-opacity="0"/>
<stop offset="1" stop-color="white" stop-opacity="0.36"/>
</radialGradient>
<radialGradient id="paint5_radial_1100_7690" cx="0" cy="0" r="1" gradientUnits="userSpaceOnUse" gradientTransform="translate(507.34 -89.2453) rotate(-90) scale(339.473 292.13)">
<stop stop-color="white" stop-opacity="0"/>
<stop offset="0.208333" stop-color="white" stop-opacity="0"/>
<stop offset="1" stop-color="white" stop-opacity="0.36"/>
</radialGradient>
<radialGradient id="paint6_radial_1100_7690" cx="0" cy="0" r="1" gradientUnits="userSpaceOnUse" gradientTransform="translate(1201.72 -47.5667) rotate(-90) scale(304.333 382.415)">
<stop stop-color="white" stop-opacity="0"/>
<stop offset="0.208333" stop-color="white" stop-opacity="0"/>
<stop offset="1" stop-color="white" stop-opacity="0.36"/>
</radialGradient>
<radialGradient id="paint7_radial_1100_7690" cx="0" cy="0" r="1" gradientUnits="userSpaceOnUse" gradientTransform="translate(398.079 -5.85098) rotate(-90) scale(263.081 400.781)">
<stop stop-color="white" stop-opacity="0"/>
<stop offset="0.208333" stop-color="white" stop-opacity="0"/>
<stop offset="1" stop-color="white" stop-opacity="0.36"/>
</radialGradient>
<radialGradient id="paint8_radial_1100_7690" cx="0" cy="0" r="1" gradientUnits="userSpaceOnUse" gradientTransform="translate(1233.16 147.414) rotate(-90) scale(111.128 410.543)">
<stop stop-color="white" stop-opacity="0"/>
<stop offset="0.208333" stop-color="white" stop-opacity="0"/>
<stop offset="1" stop-color="white" stop-opacity="0.36"/>
</radialGradient>
<radialGradient id="paint9_radial_1100_7690" cx="0" cy="0" r="1" gradientUnits="userSpaceOnUse" gradientTransform="translate(381.649 204.192) rotate(-90) scale(55.8547 415.313)">
<stop stop-color="white" stop-opacity="0"/>
<stop offset="0.208333" stop-color="white" stop-opacity="0"/>
<stop offset="1" stop-color="white" stop-opacity="0.36"/>
</radialGradient>
<radialGradient id="paint10_radial_1100_7690" cx="0" cy="0" r="1" gradientUnits="userSpaceOnUse" gradientTransform="translate(1236.39 317.113) rotate(-90) scale(55.6998 413.148)">
<stop stop-color="white" stop-opacity="0"/>
<stop offset="0.208333" stop-color="white" stop-opacity="0"/>
<stop offset="1" stop-color="white" stop-opacity="0.36"/>
</radialGradient>
<radialGradient id="paint11_radial_1100_7690" cx="0" cy="0" r="1" gradientUnits="userSpaceOnUse" gradientTransform="translate(386.5 374.798) rotate(-90) scale(111.881 409.907)">
<stop stop-color="white" stop-opacity="0"/>
<stop offset="0.208333" stop-color="white" stop-opacity="0"/>
<stop offset="1" stop-color="white" stop-opacity="0.36"/>
</radialGradient>
<radialGradient id="paint12_radial_1100_7690" cx="0" cy="0" r="1" gradientUnits="userSpaceOnUse" gradientTransform="translate(1220.9 428.913) rotate(-90) scale(164.649 401.028)">
<stop stop-color="white" stop-opacity="0"/>
<stop offset="0.208333" stop-color="white" stop-opacity="0"/>
<stop offset="1" stop-color="white" stop-opacity="0.36"/>
</radialGradient>
<radialGradient id="paint13_radial_1100_7690" cx="0" cy="0" r="1" gradientUnits="userSpaceOnUse" gradientTransform="translate(415.138 482.847) rotate(-90) scale(215.695 382.035)">
<stop stop-color="white" stop-opacity="0"/>
<stop offset="0.208333" stop-color="white" stop-opacity="0"/>
<stop offset="1" stop-color="white" stop-opacity="0.36"/>
</radialGradient>
<radialGradient id="paint14_radial_1100_7690" cx="0" cy="0" r="1" gradientUnits="userSpaceOnUse" gradientTransform="translate(1177.37 530.592) rotate(-90) scale(262.123 358.717)">
<stop stop-color="white" stop-opacity="0"/>
<stop offset="0.208333" stop-color="white" stop-opacity="0"/>
<stop offset="1" stop-color="white" stop-opacity="0.36"/>
</radialGradient>
<radialGradient id="paint15_radial_1100_7690" cx="0" cy="0" r="1" gradientUnits="userSpaceOnUse" gradientTransform="translate(1111.49 615.614) rotate(-90) scale(339.899 291.941)">
<stop stop-color="white" stop-opacity="0"/>
<stop offset="0.208333" stop-color="white" stop-opacity="0"/>
<stop offset="1" stop-color="white" stop-opacity="0.36"/>
</radialGradient>
<radialGradient id="paint16_radial_1100_7690" cx="0" cy="0" r="1" gradientUnits="userSpaceOnUse" gradientTransform="translate(472.672 577.912) rotate(-90) scale(305.563 328.89)">
<stop stop-color="white" stop-opacity="0"/>
<stop offset="0.208333" stop-color="white" stop-opacity="0"/>
<stop offset="1" stop-color="white" stop-opacity="0.36"/>
</radialGradient>
<radialGradient id="paint17_radial_1100_7690" cx="0" cy="0" r="1" gradientUnits="userSpaceOnUse" gradientTransform="translate(1021.96 671.558) rotate(-90) scale(396.832 206.261)">
<stop stop-color="white" stop-opacity="0"/>
<stop offset="0.208333" stop-color="white" stop-opacity="0"/>
<stop offset="1" stop-color="white" stop-opacity="0.36"/>
</radialGradient>
<radialGradient id="paint18_radial_1100_7690" cx="0" cy="0" r="1" gradientUnits="userSpaceOnUse" gradientTransform="translate(919.602 703.965) rotate(-90) scale(426.429 107.17)">
<stop stop-color="white" stop-opacity="0"/>
<stop offset="0.208333" stop-color="white" stop-opacity="0"/>
<stop offset="1" stop-color="white" stop-opacity="0.36"/>
</radialGradient>
<radialGradient id="paint19_radial_1100_7690" cx="0" cy="0" r="1" gradientUnits="userSpaceOnUse" gradientTransform="translate(550.95 648.728) rotate(-90) scale(372.279 251.732)">
<stop stop-color="white" stop-opacity="0"/>
<stop offset="0.208333" stop-color="white" stop-opacity="0"/>
<stop offset="1" stop-color="white" stop-opacity="0.36"/>
</radialGradient>
<radialGradient id="paint20_radial_1100_7690" cx="0" cy="0" r="1" gradientUnits="userSpaceOnUse" gradientTransform="translate(756.062 707.012) rotate(-90) scale(430.563 53.3882)">
<stop stop-color="white" stop-opacity="0"/>
<stop offset="0.208333" stop-color="white" stop-opacity="0"/>
<stop offset="1" stop-color="white" stop-opacity="0.36"/>
</radialGradient>
<radialGradient id="paint21_radial_1100_7690" cx="0" cy="0" r="1" gradientUnits="userSpaceOnUse" gradientTransform="translate(647.152 693.275) rotate(-90) scale(414.913 157.973)">
<stop stop-color="white" stop-opacity="0"/>
<stop offset="0.208333" stop-color="white" stop-opacity="0"/>
<stop offset="1" stop-color="white" stop-opacity="0.36"/>
</radialGradient>
</defs>
</svg>
