<svg width="27" height="26" viewBox="0 0 27 26" fill="none" xmlns="http://www.w3.org/2000/svg">
<path d="M25.7987 16.1445C24.0622 23.11 17.0076 27.3471 10.0412 25.6108C3.0785 23.8745 -1.16041 16.8205 0.576922 9.8566C2.31263 2.89111 9.36678 -1.34725 16.3307 0.389043C23.2963 2.12534 27.5348 9.1802 25.7983 16.1445H25.7987Z" fill="#F7931A"/>
<path d="M19.4132 10.9143C19.6838 9.19417 18.307 8.2695 16.4245 7.65264L17.0352 5.32256L15.5442 4.96909L14.9497 7.23777C14.5526 7.14495 14.1545 7.0558 13.7556 6.97034L14.3543 4.68672L12.8638 4.33325L12.2531 6.66252C11.9287 6.59223 11.6102 6.52275 11.3011 6.44963L11.3028 6.44236L9.24659 5.95396L8.84996 7.46884C8.84996 7.46884 9.95619 7.71 9.93283 7.72495C10.5367 7.86836 10.6458 8.24849 10.6276 8.54985L9.93198 11.2043C9.9736 11.2144 10.0275 11.2294 10.087 11.2516L9.92944 11.2144L8.95443 14.9329C8.88054 15.1074 8.69326 15.3692 8.27073 15.2698C8.28602 15.2904 7.18744 15.0125 7.18744 15.0125L6.44727 16.6364L8.38751 17.097C8.74847 17.1826 9.10221 17.2727 9.45042 17.3575L8.8334 19.7143L10.3227 20.0677L10.9333 17.7356C11.3401 17.8411 11.7351 17.9376 12.1215 18.0293L11.5125 20.3501L13.0031 20.7036L13.6205 18.3513C16.1629 18.809 18.0747 18.6244 18.8795 16.4373C19.5279 14.676 18.8472 13.66 17.5095 12.9971C18.4837 12.783 19.2175 12.1734 19.4132 10.9143ZM16.0062 15.4581C15.5455 17.2194 12.4281 16.2676 11.4174 16.0285L12.2362 12.9062C13.2468 13.1466 16.4878 13.6216 16.0062 15.4581ZM16.4674 10.8892C16.047 12.4909 13.4524 11.6769 12.6107 11.4774L13.353 8.64559C14.1947 8.84515 16.9052 9.2176 16.4674 10.8888V10.8892Z" fill="white"/>
</svg>
