<svg width="36" height="36" viewBox="0 0 36 36" fill="none" xmlns="http://www.w3.org/2000/svg">
<mask id="path-1-outside-1_1096_10204" maskUnits="userSpaceOnUse" x="0" y="0" width="36" height="36" fill="black">
<rect fill="white" width="36" height="36"/>
<path fill-rule="evenodd" clip-rule="evenodd" d="M9.51461 9.51604C14.2008 4.83005 21.7993 4.82769 26.4884 9.51076C31.1705 14.2025 31.1705 21.7975 26.4884 26.4892C21.7993 31.1723 14.2008 31.1699 9.51461 26.484C4.82846 21.798 4.82846 14.202 9.51461 9.51604ZM22.6706 22.655C23.0453 22.2788 23.0609 21.6756 22.7062 21.2806L19.5935 18.1701C19.4962 18.0725 19.4962 17.9145 19.5935 17.8169L22.7062 14.7053C23.0972 14.3147 23.0975 13.6811 22.7067 13.2901C22.3159 12.8992 21.682 12.899 21.291 13.2896L18.1783 16.4012C18.1314 16.4482 18.0677 16.4747 18.0012 16.4747C17.9347 16.4747 17.871 16.4482 17.824 16.4012L14.7124 13.2896C14.3164 12.9321 13.7094 12.9481 13.3327 13.326C12.9561 13.7039 12.9422 14.3107 13.3012 14.7053L16.4139 17.8169C16.4609 17.8636 16.4873 17.9272 16.4873 17.9935C16.4873 18.0598 16.4609 18.1233 16.4139 18.1701L13.3012 21.2806C13.1133 21.4683 13.0077 21.7229 13.0077 21.9885C13.0077 22.254 13.1133 22.5087 13.3012 22.6963C13.6963 23.0774 14.3223 23.0774 14.7174 22.6963L17.8291 19.5848C17.9273 19.4879 18.0851 19.4879 18.1833 19.5848L21.296 22.6963C21.6926 23.0493 22.296 23.0311 22.6706 22.655Z"/>
</mask>
<path fill-rule="evenodd" clip-rule="evenodd" d="M9.51461 9.51604C14.2008 4.83005 21.7993 4.82769 26.4884 9.51076C31.1705 14.2025 31.1705 21.7975 26.4884 26.4892C21.7993 31.1723 14.2008 31.1699 9.51461 26.484C4.82846 21.798 4.82846 14.202 9.51461 9.51604ZM22.6706 22.655C23.0453 22.2788 23.0609 21.6756 22.7062 21.2806L19.5935 18.1701C19.4962 18.0725 19.4962 17.9145 19.5935 17.8169L22.7062 14.7053C23.0972 14.3147 23.0975 13.6811 22.7067 13.2901C22.3159 12.8992 21.682 12.899 21.291 13.2896L18.1783 16.4012C18.1314 16.4482 18.0677 16.4747 18.0012 16.4747C17.9347 16.4747 17.871 16.4482 17.824 16.4012L14.7124 13.2896C14.3164 12.9321 13.7094 12.9481 13.3327 13.326C12.9561 13.7039 12.9422 14.3107 13.3012 14.7053L16.4139 17.8169C16.4609 17.8636 16.4873 17.9272 16.4873 17.9935C16.4873 18.0598 16.4609 18.1233 16.4139 18.1701L13.3012 21.2806C13.1133 21.4683 13.0077 21.7229 13.0077 21.9885C13.0077 22.254 13.1133 22.5087 13.3012 22.6963C13.6963 23.0774 14.3223 23.0774 14.7174 22.6963L17.8291 19.5848C17.9273 19.4879 18.0851 19.4879 18.1833 19.5848L21.296 22.6963C21.6926 23.0493 22.296 23.0311 22.6706 22.655Z" fill="#F8F8F8"/>
<path fill-rule="evenodd" clip-rule="evenodd" d="M9.51461 9.51604C14.2008 4.83005 21.7993 4.82769 26.4884 9.51076C31.1705 14.2025 31.1705 21.7975 26.4884 26.4892C21.7993 31.1723 14.2008 31.1699 9.51461 26.484C4.82846 21.798 4.82846 14.202 9.51461 9.51604ZM22.6706 22.655C23.0453 22.2788 23.0609 21.6756 22.7062 21.2806L19.5935 18.1701C19.4962 18.0725 19.4962 17.9145 19.5935 17.8169L22.7062 14.7053C23.0972 14.3147 23.0975 13.6811 22.7067 13.2901C22.3159 12.8992 21.682 12.899 21.291 13.2896L18.1783 16.4012C18.1314 16.4482 18.0677 16.4747 18.0012 16.4747C17.9347 16.4747 17.871 16.4482 17.824 16.4012L14.7124 13.2896C14.3164 12.9321 13.7094 12.9481 13.3327 13.326C12.9561 13.7039 12.9422 14.3107 13.3012 14.7053L16.4139 17.8169C16.4609 17.8636 16.4873 17.9272 16.4873 17.9935C16.4873 18.0598 16.4609 18.1233 16.4139 18.1701L13.3012 21.2806C13.1133 21.4683 13.0077 21.7229 13.0077 21.9885C13.0077 22.254 13.1133 22.5087 13.3012 22.6963C13.6963 23.0774 14.3223 23.0774 14.7174 22.6963L17.8291 19.5848C17.9273 19.4879 18.0851 19.4879 18.1833 19.5848L21.296 22.6963C21.6926 23.0493 22.296 23.0311 22.6706 22.655Z" fill="#1F2348" fill-opacity="0.2"/>
<path d="M26.4884 9.51076L30.7354 5.27246L30.7283 5.2654L26.4884 9.51076ZM9.51461 9.51604L13.7572 13.7588V13.7588L9.51461 9.51604ZM26.4884 26.4892L30.7283 30.7346L30.7354 30.7275L26.4884 26.4892ZM9.51461 26.484L5.27204 30.7267L9.51461 26.484ZM22.7062 21.2806L27.1701 17.2715L27.0619 17.151L26.9474 17.0366L22.7062 21.2806ZM22.6706 22.655L18.4197 18.4206L18.4197 18.4206L22.6706 22.655ZM19.5935 18.1701L15.345 22.4068L15.3523 22.4141L19.5935 18.1701ZM19.5935 17.8169L15.3516 13.5735L15.345 13.5802L19.5935 17.8169ZM22.7062 14.7053L18.4658 10.4605L18.4643 10.462L22.7062 14.7053ZM22.7067 13.2901L18.4633 17.532L18.4633 17.532L22.7067 13.2901ZM21.291 13.2896L17.0506 9.04476L17.0491 9.04626L21.291 13.2896ZM18.1783 16.4012L13.9364 12.1578L13.9311 12.1632L18.1783 16.4012ZM17.824 16.4012L22.0713 12.1632L22.0666 12.1585L17.824 16.4012ZM14.7124 13.2896L18.955 9.04694L18.8465 8.93845L18.7326 8.83566L14.7124 13.2896ZM13.3327 13.326L17.5821 17.5619L13.3327 13.326ZM13.3012 14.7053L8.8629 18.7428L8.95866 18.8481L9.05932 18.9487L13.3012 14.7053ZM16.4139 17.8169L12.1719 22.0603L12.1771 22.0654L12.1823 22.0706L16.4139 17.8169ZM16.4139 18.1701L12.1823 13.9163L12.1726 13.926L16.4139 18.1701ZM13.3012 21.2806L17.5408 25.5264L17.5425 25.5247L13.3012 21.2806ZM13.3012 22.6963L9.06168 26.9421L9.09858 26.9789L9.13611 27.0151L13.3012 22.6963ZM14.7174 22.6963L18.8825 27.0151L18.9216 26.9774L18.96 26.939L14.7174 22.6963ZM17.8291 19.5848L13.6155 15.3133L13.6009 15.3276L13.5865 15.3421L17.8291 19.5848ZM18.1833 19.5848L22.4253 15.3414L22.4111 15.3273L22.3969 15.3133L18.1833 19.5848ZM21.296 22.6963L17.0541 26.9397L17.1772 27.0628L17.3074 27.1786L21.296 22.6963ZM30.7283 5.2654C23.6957 -1.75823 12.3003 -1.75468 5.27204 5.27333L13.7572 13.7588C16.1012 11.4148 19.9029 11.4136 22.2485 13.7561L30.7283 5.2654ZM30.7354 30.7275C37.7549 23.6936 37.7549 12.3064 30.7354 5.27247L22.2414 13.749C24.5862 16.0987 24.5862 19.9013 22.2414 22.251L30.7354 30.7275ZM5.27204 30.7267C12.3003 37.7547 23.6957 37.7582 30.7283 30.7346L22.2485 22.2439C19.9029 24.5864 16.1012 24.5852 13.7572 22.2412L5.27204 30.7267ZM5.27204 5.27333C-1.75735 12.3025 -1.75735 23.6975 5.27204 30.7267L13.7572 22.2412C11.4143 19.8984 11.4143 16.1016 13.7572 13.7588L5.27204 5.27333ZM18.2422 25.2898C16.4692 23.3157 16.5473 20.3004 18.4197 18.4206L26.9216 26.8893C29.5434 24.2573 29.6526 20.0356 27.1701 17.2715L18.2422 25.2898ZM15.3523 22.4141L18.4649 25.5247L26.9474 17.0366L23.8348 13.926L15.3523 22.4141ZM15.345 13.5802C12.9124 16.0196 12.9124 19.9674 15.345 22.4068L23.8421 13.9333C26.08 16.1775 26.08 19.8095 23.8421 22.0536L15.345 13.5802ZM18.4643 10.462L15.3516 13.5735L23.8354 22.0603L26.9481 18.9487L18.4643 10.462ZM18.4633 17.532C16.5108 15.5788 16.5119 12.4123 18.4658 10.4605L26.9466 18.9502C29.6826 16.2171 29.6842 11.7833 26.9501 9.04825L18.4633 17.532ZM25.5314 17.5345C23.5787 19.4852 20.4146 19.4841 18.4633 17.532L26.9501 9.04826C24.2171 6.31432 19.7854 6.31275 17.0506 9.04476L25.5314 17.5345ZM22.4203 20.6446L25.5329 17.533L17.0491 9.04626L13.9364 12.1578L22.4203 20.6446ZM18.0012 22.4747C19.6609 22.4747 21.2528 21.8145 22.4256 20.6392L13.9311 12.1632C15.01 11.0819 16.4744 10.4747 18.0012 10.4747V22.4747ZM13.5768 20.6392C14.7495 21.8145 16.3415 22.4747 18.0012 22.4747V10.4747C19.528 10.4747 20.9925 11.0819 22.0713 12.1632L13.5768 20.6392ZM10.4698 17.5323L13.5815 20.6439L22.0666 12.1585L18.955 9.04694L10.4698 17.5323ZM17.5821 17.5619C15.7009 19.4492 12.6702 19.529 10.6922 17.7436L18.7326 8.83566C15.9625 6.33532 11.7179 6.44714 9.08332 9.09015L17.5821 17.5619ZM17.7396 10.6679C19.5338 12.6402 19.4644 15.6736 17.5821 17.5619L9.08332 9.09015C6.44774 11.7342 6.35064 15.9811 8.8629 18.7428L17.7396 10.6679ZM20.6558 13.5735L17.5431 10.462L9.05932 18.9487L12.1719 22.0603L20.6558 13.5735ZM22.4873 17.9935C22.4873 16.3301 21.8242 14.7358 20.6454 13.5632L12.1823 22.0706C11.0975 20.9915 10.4873 19.5243 10.4873 17.9935H22.4873ZM20.6454 22.4238C21.8242 21.2511 22.4873 19.6568 22.4873 17.9935H10.4873C10.4873 16.4627 11.0975 14.9955 12.1823 13.9164L20.6454 22.4238ZM17.5425 25.5247L20.6551 22.4141L12.1726 13.926L9.06 17.0366L17.5425 25.5247ZM19.0077 21.9885C19.0077 23.3161 18.4797 24.5888 17.5408 25.5264L9.06168 17.0349C7.74685 18.3478 7.00769 20.1298 7.00769 21.9885H19.0077ZM17.5408 18.4506C18.4797 19.3882 19.0077 20.6609 19.0077 21.9885H7.00769C7.00769 23.8472 7.74686 25.6292 9.06168 26.9421L17.5408 18.4506ZM10.5523 18.3776C12.4815 16.517 15.5371 16.517 17.4663 18.3776L9.13611 27.0151C11.8556 29.6378 16.1631 29.6378 18.8825 27.0151L10.5523 18.3776ZM13.5865 15.3421L10.4748 18.4536L18.96 26.939L22.0716 23.8275L13.5865 15.3421ZM22.3969 15.3133C19.9624 12.9117 16.05 12.9117 13.6155 15.3133L22.0426 23.8563C19.8045 26.0641 16.2079 26.0641 13.9698 23.8563L22.3969 15.3133ZM25.5379 18.453L22.4253 15.3414L13.9414 23.8281L17.0541 26.9397L25.5379 18.453ZM18.4197 18.4206C20.2912 16.5418 23.3037 16.4514 25.2846 18.214L17.3074 27.1786C20.0815 29.6472 24.3007 29.5204 26.9216 26.8893L18.4197 18.4206Z" fill="white" mask="url(#path-1-outside-1_1096_10204)"/>
</svg>
