<svg width="176" height="33" viewBox="0 0 176 33" fill="none" xmlns="http://www.w3.org/2000/svg">
<rect width="176" height="33" fill="#D9D9D9"/>
<path d="M-921 -1096C-921 -1097.1 -920.105 -1098 -919 -1098H3306C3307.1 -1098 3308 -1097.1 3308 -1096V1335C3308 1336.1 3307.1 1337 3306 1337H-919C-920.105 1337 -921 1336.1 -921 1335V-1096Z" fill="#1F2348" fill-opacity="0.2"/>
<path d="M-921 -1096C-921 -1097.1 -920.105 -1098 -919 -1098H3306C3307.1 -1098 3308 -1097.1 3308 -1096V1335C3308 1336.1 3307.1 1337 3306 1337H-919C-920.105 1337 -921 1336.1 -921 1335V-1096Z" fill="#00A24B" fill-opacity="0.01"/>
<path d="M-919 -1096H3306V-1100H-919V-1096ZM3306 -1096V1335H3310V-1096H3306ZM3306 1335H-919V1339H3306V1335ZM-919 1335V-1096H-923V1335H-919ZM-919 1335H-919H-923C-923 1337.21 -921.209 1339 -919 1339V1335ZM3306 1335V1339C3308.21 1339 3310 1337.21 3310 1335H3306ZM3306 -1096H3310C3310 -1098.21 3308.21 -1100 3306 -1100V-1096ZM-919 -1100C-921.209 -1100 -923 -1098.21 -923 -1096H-919V-1096V-1100Z" fill="#00A24B"/>
<g clip-path="url(#clip0_0_1)">
<rect width="1440" height="1362.57" transform="translate(-821 -998)" fill="#F8F8F8"/>
<g opacity="0.5">
<g clip-path="url(#clip1_0_1)">
<path d="M19.6138 0.598145H28.4674C28.4674 3.62294 26.068 6.40761 22.661 6.40761H13.8312C13.8072 3.33481 16.2786 0.598145 19.6138 0.598145Z" fill="#1F2348"/>
<path d="M33.2662 8.92913C33.2904 8.97713 37.681 16.587 37.681 16.587C35.0657 18.0994 31.4428 17.4273 29.7392 14.4505C29.715 14.4025 25.3242 6.79259 25.3242 6.79259C27.9876 5.25619 31.6105 6.02446 33.2662 8.92913Z" fill="#1F2348"/>
<path d="M8.72032 18.6982C8.74432 18.7462 13.1353 26.3561 13.1353 26.3561C10.5199 27.8685 6.89685 27.1963 5.19325 24.2195C5.16925 24.1715 0.77832 16.5617 0.77832 16.5617C3.44165 15.0493 7.04072 15.8175 8.72032 18.6982Z" fill="#1F2348"/>
<path d="M12.1269 8.52071C12.1029 8.56871 7.71206 16.1786 7.71206 16.1786C5.09672 14.6662 3.87299 11.1854 5.57659 8.23257C5.60059 8.18457 9.99152 0.574707 9.99152 0.574707C12.6789 2.13511 13.8066 5.63991 12.127 8.52071H12.1269Z" fill="#1F2348"/>
<path d="M32.8817 24.9172C32.8578 24.9652 28.4669 32.5752 28.4669 32.5752C25.8515 31.0627 24.6279 27.5819 26.3314 24.6291C26.3554 24.5811 30.7462 16.9712 30.7462 16.9712C33.4098 18.5076 34.5613 22.0124 32.8817 24.9172Z" fill="#1F2348"/>
<path d="M15.7982 26.7642H24.6519C24.6519 29.789 22.2526 32.5738 18.8454 32.5738H10.0156C10.0156 29.501 12.487 26.7642 15.7982 26.7642Z" fill="#1F2348"/>
<path d="M163.093 22.3554V10.7974H170.891V12.4668H165.147V15.6774H170.538V17.3468H165.147V20.7179H170.891V22.3874H163.093V22.3554Z" fill="#1F2348"/>
<path d="M136.659 22.3894L141.907 10.7954H143.683L148.996 22.3894H146.841L145.676 19.7089H139.962L138.798 22.3894H136.659ZM142.778 13.0649L140.674 18.0478H144.993L142.844 13.0649H142.778Z" fill="#1F2348"/>
<path d="M56.0102 22.3894V10.7954H61.0766C62.3486 10.7954 63.3326 11.097 64.0291 11.6999C64.7254 12.303 65.0736 13.1417 65.0736 14.2161C65.0736 14.9289 64.9174 15.5374 64.6047 16.0415C64.2922 16.5459 63.8452 16.9325 63.264 17.201C63.0934 17.2799 62.9131 17.3477 62.7244 17.4034L62.7218 17.4043C62.9003 17.4638 63.0719 17.5471 63.2312 17.6533C63.5931 17.8946 63.8892 18.2617 64.1194 18.7551L65.8136 22.3895H63.4778L61.7671 18.6235C61.6134 18.2399 61.3806 17.9878 61.068 17.867C60.7555 17.7465 60.3798 17.6861 59.9412 17.6861H58.1318V22.3894H56.0098H56.0102ZM58.132 16.1237H60.731C61.4766 16.1237 62.0442 15.9674 62.4335 15.655C62.8226 15.3426 63.0174 14.8849 63.0174 14.2818C63.0174 13.6787 62.8226 13.2239 62.4335 12.9169C62.0442 12.6101 61.4766 12.4565 60.731 12.4565H58.132V16.1238V16.1237Z" fill="#1F2348"/>
<path d="M49.2599 22.5524C48.0539 22.5524 47.0207 22.3086 46.1603 21.8208C45.2996 21.3332 44.6392 20.6428 44.1788 19.7493C43.7184 18.8562 43.4883 17.8012 43.4883 16.5846C43.4883 15.3681 43.7185 14.316 44.1788 13.4281C44.6392 12.5404 45.2996 11.8528 46.1603 11.3649C47.0207 10.8774 48.0539 10.6333 49.2599 10.6333C50.0709 10.6333 50.8027 10.7484 51.4551 10.9785C52.1071 11.2086 52.6691 11.5485 53.1405 11.9978L52.4499 13.6748C51.9345 13.2584 51.4387 12.9596 50.9617 12.7788C50.4849 12.598 49.9395 12.5076 49.3256 12.5076C48.1525 12.5076 47.2564 12.861 46.6371 13.568C46.0176 14.2749 45.708 15.2805 45.708 16.5846C45.708 17.8888 46.0176 18.8972 46.6371 19.6096C47.2563 20.3221 48.1525 20.6781 49.3256 20.6781C49.9395 20.6781 50.4849 20.5877 50.9617 20.4069C51.4387 20.2261 51.9345 19.922 52.4499 19.4945L53.1405 21.1714C52.6691 21.61 52.1071 21.9497 51.4551 22.1908C50.8027 22.4317 50.0709 22.5524 49.2599 22.5524Z" fill="#1F2348"/>
<path d="M68.502 22.3875V10.7974H70.6231V22.3875H68.502Z" fill="#1F2348"/>
<path d="M74.377 22.3875V10.7974H79.5238C80.7954 10.7974 81.7655 11.1043 82.4343 11.718C83.1028 12.3319 83.4374 13.1758 83.4374 14.2498C83.4374 15.313 83.1028 16.1568 82.4343 16.7815C81.7655 17.4062 80.7954 17.7186 79.5238 17.7186H76.4982V22.3875H74.377ZM76.4982 16.0418H79.2771C79.9784 16.0418 80.5047 15.8856 80.8556 15.5732C81.2063 15.2608 81.3819 14.8199 81.3819 14.2499C81.3819 13.6799 81.2063 13.2388 80.8556 12.9264C80.5047 12.614 79.9784 12.4579 79.2771 12.4579H76.4982V16.0418Z" fill="#1F2348"/>
<path d="M88.3216 22.3875V12.54H84.4902V10.7974H94.2741V12.54H90.4428V22.3875H88.3216Z" fill="#1F2348"/>
<path d="M94.9854 16.5846C94.9854 15.3681 95.2074 14.316 95.6514 13.4281C96.0954 12.5404 96.7339 11.8528 97.5671 11.3649C98.4 10.8774 99.3923 10.6333 100.543 10.6333C101.683 10.6333 102.67 10.8773 103.503 11.3649C104.336 11.8528 104.98 12.5404 105.435 13.4281C105.89 14.3158 106.118 15.3626 106.118 16.5681C106.118 17.7846 105.89 18.8397 105.435 19.7328C104.98 20.6262 104.336 21.3192 103.503 21.8124C102.67 22.3056 101.683 22.5521 100.543 22.5521C99.3923 22.5521 98.4028 22.3056 97.5752 21.8124C96.7474 21.3192 96.1088 20.6261 95.6595 19.7328C95.2099 18.8397 94.9854 17.7905 94.9854 16.5846ZM97.2052 16.5846C97.2052 17.889 97.4848 18.9082 98.0439 19.6425C98.603 20.3769 99.4359 20.744 100.543 20.744C101.618 20.744 102.445 20.3769 103.026 19.6425C103.607 18.9084 103.898 17.889 103.898 16.5846C103.898 15.2694 103.61 14.2502 103.034 13.5268C102.459 12.8034 101.629 12.4417 100.543 12.4417C99.4359 12.4417 98.6028 12.8033 98.0438 13.5268C97.4847 14.2501 97.2052 15.2694 97.2052 16.5846Z" fill="#1F2348"/>
<path d="M113.676 22.5524C112.47 22.5524 111.437 22.3086 110.576 21.8208C109.716 21.3332 109.055 20.6428 108.595 19.7493C108.134 18.8562 107.904 17.8012 107.904 16.5846C107.904 15.3681 108.135 14.316 108.595 13.4281C109.055 12.5404 109.716 11.8528 110.576 11.3649C111.437 10.8774 112.47 10.6333 113.676 10.6333C114.487 10.6333 115.219 10.7484 115.871 10.9785C116.523 11.2086 117.085 11.5485 117.557 11.9978L116.866 13.6748C116.351 13.2584 115.855 12.9596 115.378 12.7788C114.901 12.598 114.356 12.5076 113.742 12.5076C112.569 12.5076 111.672 12.861 111.053 13.568C110.434 14.2749 110.124 15.2805 110.124 16.5846C110.124 17.8888 110.434 18.8972 111.053 19.6096C111.672 20.3221 112.569 20.6781 113.742 20.6781C114.356 20.6781 114.901 20.5877 115.378 20.4069C115.855 20.2261 116.351 19.922 116.866 19.4945L117.557 21.1714C117.085 21.61 116.523 21.9497 115.871 22.1908C115.219 22.4317 114.487 22.5524 113.676 22.5524Z" fill="#1F2348"/>
<path d="M120.397 22.3875V10.7974H122.519V22.3875H120.397Z" fill="#1F2348"/>
<path d="M125.916 22.3875V10.7974H130.126C131.452 10.7974 132.573 11.025 133.488 11.4796C134.403 11.9346 135.097 12.5922 135.568 13.4524C136.04 14.313 136.275 15.3568 136.275 16.5843C136.275 17.8008 136.04 18.8422 135.568 19.7079C135.097 20.5738 134.403 21.2368 133.488 21.6971C132.573 22.1574 131.452 22.3876 130.126 22.3876H125.916V22.3875ZM128.037 20.6284H129.994C131.397 20.6284 132.439 20.2943 133.118 19.6256C133.798 18.9572 134.138 17.9434 134.138 16.5843C134.138 15.2144 133.798 14.1979 133.118 13.5347C132.438 12.8718 131.397 12.54 129.994 12.54H128.037V20.6284Z" fill="#1F2348"/>
<path d="M150.533 22.3875V10.7974H154.743C156.069 10.7974 157.19 11.025 158.105 11.4796C159.021 11.9346 159.714 12.5922 160.186 13.4524C160.657 14.313 160.893 15.3568 160.893 16.5843C160.893 17.8008 160.657 18.8422 160.186 19.7079C159.714 20.5738 159.021 21.2368 158.105 21.6971C157.19 22.1574 156.069 22.3876 154.743 22.3876H150.533V22.3875ZM152.654 20.6284H154.611C156.014 20.6284 157.056 20.2943 157.735 19.6256C158.415 18.9572 158.755 17.9434 158.755 16.5843C158.755 15.2144 158.415 14.1979 157.735 13.5347C157.056 12.8718 156.014 12.54 154.611 12.54H152.654V20.6284Z" fill="#1F2348"/>
<path d="M173.92 14.1923C173.666 14.1923 173.43 14.1468 173.212 14.0561C172.994 13.9655 172.804 13.8384 172.64 13.6751C172.477 13.5117 172.35 13.3212 172.259 13.1033C172.168 12.8855 172.123 12.6497 172.123 12.3956C172.123 12.1415 172.168 11.9056 172.259 11.6879C172.35 11.47 172.477 11.2804 172.64 11.1187C172.804 10.9571 172.994 10.8308 173.212 10.7401C173.43 10.6493 173.666 10.604 173.92 10.604C174.174 10.604 174.41 10.6493 174.628 10.7401C174.846 10.8309 175.036 10.9571 175.197 11.1187C175.359 11.2804 175.485 11.4701 175.576 11.6879C175.667 11.9057 175.712 12.1416 175.712 12.3956C175.712 12.6496 175.667 12.8856 175.576 13.1033C175.485 13.3212 175.359 13.5117 175.197 13.6751C175.035 13.8384 174.846 13.9655 174.628 14.0561C174.41 14.1469 174.174 14.1923 173.92 14.1923ZM173.92 13.93C174.138 13.93 174.339 13.8912 174.524 13.8136C174.709 13.7361 174.869 13.628 175.004 13.4895C175.14 13.3508 175.245 13.1884 175.321 13.002C175.397 12.8156 175.435 12.6135 175.435 12.3956C175.435 12.1777 175.397 11.9757 175.321 11.7892C175.245 11.6029 175.14 11.4412 175.004 11.3041C174.869 11.1672 174.709 11.06 174.524 10.9824C174.339 10.9049 174.138 10.8661 173.92 10.8661C173.702 10.8661 173.501 10.9049 173.316 10.9824C173.131 11.0599 172.97 11.1672 172.834 11.3041C172.696 11.4412 172.59 11.6028 172.514 11.7892C172.438 11.9757 172.4 12.1777 172.4 12.3956C172.4 12.6135 172.438 12.8155 172.514 13.002C172.59 13.1884 172.697 13.3508 172.834 13.4895C172.97 13.628 173.131 13.7363 173.316 13.8136C173.501 13.8912 173.702 13.93 173.92 13.93ZM173.153 13.4399V11.3463H174.059C174.293 11.3463 174.472 11.4032 174.596 11.5171C174.719 11.6309 174.781 11.7801 174.781 11.9649C174.781 12.1563 174.72 12.3023 174.598 12.4029C174.531 12.4579 174.45 12.4979 174.354 12.5228L174.352 12.5232C174.389 12.5357 174.424 12.5539 174.455 12.5761C174.524 12.6273 174.578 12.7255 174.618 12.8707L174.806 13.4397H174.321L174.128 12.8211C174.105 12.7484 174.068 12.6997 174.019 12.6751C173.969 12.6504 173.912 12.638 173.846 12.638H173.628V13.4397H173.153L173.153 13.4399ZM173.623 12.2817H173.994C174.106 12.2817 174.191 12.2587 174.247 12.2124C174.303 12.1663 174.331 12.092 174.331 11.9897C174.331 11.8908 174.303 11.8181 174.247 11.7719C174.191 11.7257 174.106 11.7027 173.994 11.7027H173.623V12.2817Z" fill="#1F2348"/>
</g>
</g>
</g>
<defs>
<clipPath id="clip0_0_1">
<rect width="1440" height="1362.57" fill="white" transform="translate(-821 -998)"/>
</clipPath>
<clipPath id="clip1_0_1">
<rect width="174.933" height="32" fill="white" transform="translate(0.77832 0.574707)"/>
</clipPath>
</defs>
</svg>
