<svg width="178" height="33" viewBox="0 0 178 33" fill="none" xmlns="http://www.w3.org/2000/svg">
<rect width="178" height="33" fill="#D9D9D9"/>
<path d="M-524 -1096C-524 -1097.1 -523.105 -1098 -522 -1098H3703C3704.1 -1098 3705 -1097.1 3705 -1096V1335C3705 1336.1 3704.1 1337 3703 1337H-522C-523.105 1337 -524 1336.1 -524 1335V-1096Z" fill="#1F2348" fill-opacity="0.2"/>
<path d="M-524 -1096C-524 -1097.1 -523.105 -1098 -522 -1098H3703C3704.1 -1098 3705 -1097.1 3705 -1096V1335C3705 1336.1 3704.1 1337 3703 1337H-522C-523.105 1337 -524 1336.1 -524 1335V-1096Z" fill="#00A24B" fill-opacity="0.01"/>
<path d="M-522 -1096H3703V-1100H-522V-1096ZM3703 -1096V1335H3707V-1096H3703ZM3703 1335H-522V1339H3703V1335ZM-522 1335V-1096H-526V1335H-522ZM-522 1335H-522H-526C-526 1337.21 -524.209 1339 -522 1339V1335ZM3703 1335V1339C3705.21 1339 3707 1337.21 3707 1335H3703ZM3703 -1096H3707C3707 -1098.21 3705.21 -1100 3703 -1100V-1096ZM-522 -1100C-524.209 -1100 -526 -1098.21 -526 -1096H-522V-1096V-1100Z" fill="#00A24B"/>
<g clip-path="url(#clip0_0_1)">
<rect width="1440" height="1362.57" transform="translate(-424 -998)" fill="#F8F8F8"/>
<g opacity="0.5">
<path d="M18.844 0.59693H27.7027C27.7043 1.3602 27.5552 2.11629 27.2639 2.82178C26.9726 3.52727 26.5448 4.16828 26.0051 4.70799C25.4654 5.24771 24.8243 5.6755 24.1188 5.96682C23.4133 6.25813 22.6572 6.40723 21.894 6.40555H13.0587C13.0545 5.64354 13.2011 4.88823 13.49 4.18313C13.779 3.47802 14.2046 2.83705 14.7424 2.29714C15.2801 1.75722 15.9194 1.32904 16.6233 1.03724C17.3273 0.745439 18.082 0.595797 18.844 0.59693Z" fill="#1F2348"/>
<path d="M32.5033 8.92744C32.5267 8.97633 36.9199 16.5788 36.9199 16.5788C36.259 16.9641 35.5283 17.2146 34.7699 17.3158C34.0116 17.417 33.2407 17.3668 32.5019 17.1682C31.7631 16.9695 31.071 16.6264 30.4656 16.1586C29.8603 15.6908 29.3537 15.1076 28.9752 14.4428C28.9497 14.396 24.5586 6.79145 24.5586 6.79145C25.2203 6.4092 25.9509 6.16121 26.7085 6.0617C27.4662 5.96218 28.2361 6.01308 28.974 6.21148C29.712 6.40989 30.4036 6.75191 31.0092 7.21795C31.6148 7.68399 32.1225 8.26491 32.5033 8.92744Z" fill="#1F2348"/>
<path d="M7.94686 18.6983C7.97024 18.7472 12.3634 26.3496 12.3634 26.3496C11.7024 26.735 10.9715 26.9856 10.213 27.0868C9.45447 27.188 8.68344 27.1378 7.94446 26.9392C7.20547 26.7406 6.51319 26.3974 5.90765 25.9296C5.3021 25.4617 4.79531 24.8785 4.41657 24.2136C4.39319 24.1647 0 16.5623 0 16.5623C1.33956 15.8027 2.9243 15.6009 4.41146 16.0007C5.89862 16.4004 7.16865 17.3695 7.94686 18.6983Z" fill="#1F2348"/>
<path d="M11.3534 8.51932C11.33 8.5682 6.9368 16.1706 6.9368 16.1706C6.27536 15.7888 5.69565 15.2803 5.23081 14.6743C4.76598 14.0682 4.42513 13.3766 4.22775 12.6388C4.03036 11.9009 3.98031 11.1315 4.08046 10.3743C4.18061 9.61715 4.42899 8.88714 4.81141 8.22602C4.83479 8.17713 9.22798 0.574707 9.22798 0.574707C9.89068 0.955357 10.4716 1.46322 10.9374 2.0691C11.4032 2.67498 11.7447 3.36694 11.9422 4.10521C12.1397 4.84348 12.1893 5.6135 12.0883 6.37102C11.9872 7.12854 11.7375 7.85863 11.3534 8.51932Z" fill="#1F2348"/>
<path d="M32.1191 24.9174C32.0958 24.9642 27.7026 32.5688 27.7026 32.5688C27.041 32.1867 26.4613 31.678 25.9964 31.0718C25.5316 30.4656 25.1907 29.7737 24.9933 29.0357C24.796 28.2978 24.7459 27.5281 24.8461 26.7708C24.9463 26.0135 25.1947 25.2833 25.5772 24.622C25.6006 24.5731 29.9937 16.9707 29.9937 16.9707C30.6557 17.3524 31.2358 17.8608 31.701 18.467C32.1662 19.0732 32.5073 19.7651 32.7047 20.5033C32.9021 21.2414 32.952 22.0112 32.8515 22.7687C32.751 23.5261 32.5022 24.2563 32.1191 24.9174Z" fill="#1F2348"/>
<path d="M15.0285 26.7639H23.885C23.8867 27.5273 23.7376 28.2835 23.4463 28.9891C23.155 29.6947 22.7273 30.3358 22.1876 30.8757C21.6479 31.4156 21.0069 31.8436 20.3014 32.1352C19.5958 32.4267 18.8397 32.5761 18.0763 32.5747H9.24316C9.24259 31.0378 9.85112 29.5633 10.9355 28.4742C12.0198 27.3851 13.4916 26.7701 15.0285 26.7639Z" fill="#1F2348"/>
<path d="M175.983 14.2018C175.74 14.2038 175.499 14.1568 175.275 14.0636C175.06 13.9766 174.865 13.8473 174.701 13.6832C174.54 13.5187 174.413 13.3245 174.325 13.1115C174.144 12.657 174.144 12.1504 174.325 11.696C174.413 11.4823 174.543 11.2883 174.706 11.1255C174.87 10.9627 175.065 10.8343 175.28 10.7481C175.734 10.5671 176.241 10.5671 176.695 10.7481C176.908 10.8349 177.102 10.9636 177.265 11.1263C177.427 11.2891 177.556 11.4828 177.643 11.696C177.824 12.1504 177.824 12.657 177.643 13.1115C177.556 13.3252 177.427 13.5195 177.265 13.6832C177.103 13.8476 176.909 13.9771 176.695 14.0636C176.469 14.1572 176.227 14.2042 175.983 14.2018ZM175.983 13.9382C176.19 13.9406 176.395 13.9008 176.587 13.8213C176.767 13.7473 176.93 13.6374 177.067 13.4983C177.204 13.3583 177.312 13.192 177.384 13.0094C177.537 12.6201 177.537 12.1873 177.384 11.798C177.312 11.6164 177.205 11.4515 177.067 11.3134C176.93 11.175 176.767 11.0651 176.587 10.9903C176.198 10.8372 175.766 10.8372 175.377 10.9903C175.197 11.0662 175.033 11.1758 174.895 11.3134C174.757 11.4519 174.649 11.6167 174.576 11.798C174.423 12.1873 174.423 12.6201 174.576 13.0094C174.648 13.1918 174.756 13.3577 174.894 13.4973C175.031 13.6368 175.196 13.747 175.377 13.8213C175.569 13.9008 175.775 13.9405 175.983 13.9382ZM175.216 13.4494V11.3559H176.121C176.316 11.3418 176.508 11.4027 176.659 11.5259C176.72 11.5829 176.769 11.6525 176.8 11.7299C176.832 11.8073 176.847 11.8907 176.844 11.9744C176.849 12.0565 176.835 12.1388 176.804 12.2147C176.772 12.2907 176.723 12.3583 176.661 12.4122C176.589 12.4693 176.506 12.51 176.417 12.5312C176.454 12.5442 176.489 12.5621 176.521 12.5844C176.605 12.6625 176.662 12.7663 176.682 12.8798L176.871 13.4494H176.387L176.193 12.8288C176.187 12.798 176.174 12.7691 176.154 12.7441C176.135 12.7191 176.111 12.6987 176.083 12.6843C176.029 12.6577 175.97 12.6446 175.911 12.646H175.698V13.4494H175.216ZM175.685 12.2911H176.057C176.147 12.2975 176.237 12.2727 176.31 12.2209C176.34 12.1923 176.363 12.1573 176.377 12.1187C176.391 12.0801 176.397 12.0388 176.393 11.9978C176.396 11.9584 176.39 11.919 176.376 11.8822C176.361 11.8455 176.339 11.8124 176.31 11.7852C176.237 11.7334 176.147 11.7086 176.057 11.7151H175.685V12.2911Z" fill="#1F2348"/>
<path d="M148.699 22.3893L153.949 10.7954H155.726L161.039 22.3893H158.886L157.719 19.7007H152.008L150.842 22.3808L148.699 22.3893ZM154.82 13.0653L152.716 18.0493H157.037L154.886 13.0653H154.82Z" fill="#1F2348"/>
<path d="M55.2578 22.3893V10.7954H60.3269C61.6021 10.7954 62.5869 11.0972 63.2812 11.7008C63.9755 12.3044 64.324 13.1432 64.3269 14.2172C64.3455 14.8579 64.1827 15.4908 63.8572 16.0429C63.5357 16.5542 63.0686 16.9576 62.516 17.2013C62.3413 17.2819 62.1609 17.3494 61.9762 17.4032C62.1558 17.4631 62.3267 17.5467 62.4842 17.6518C62.8773 17.9292 63.1857 18.3103 63.3747 18.7528L65.075 22.3871H62.7413L61.0283 18.621C60.9723 18.4526 60.8809 18.2982 60.7603 18.168C60.6397 18.0379 60.4926 17.9351 60.329 17.8665C59.9679 17.7368 59.5861 17.6749 59.2025 17.6837H57.3917V22.3871L55.2578 22.3893ZM57.3832 16.1237H59.9783C60.7243 16.1237 61.2939 15.9685 61.6786 15.6561C61.8767 15.489 62.0328 15.2777 62.1343 15.0392C62.2358 14.8007 62.28 14.5418 62.2631 14.2831C62.2807 14.0257 62.2368 13.7677 62.1352 13.5305C62.0336 13.2933 61.8771 13.0836 61.6786 12.9186C61.2897 12.6105 60.7201 12.4574 59.9783 12.4574H57.3811L57.3832 16.1237Z" fill="#1F2348"/>
<path d="M48.5012 22.5526C47.4226 22.5837 46.3546 22.3331 45.4024 21.8257C44.5509 21.347 43.8614 20.6256 43.4215 19.7535C42.9402 18.7694 42.7033 17.6839 42.7307 16.5888C42.7027 15.4964 42.9397 14.4134 43.4215 13.4326C43.8628 12.5637 44.5523 11.8454 45.4024 11.3689C46.3538 10.8585 47.4219 10.605 48.5012 10.6335C49.2492 10.6254 49.9931 10.7447 50.701 10.9863C51.3287 11.2032 51.9032 11.5509 52.3864 12.0065L51.6893 13.6749C51.2438 13.2994 50.7416 12.9967 50.2015 12.778C49.6761 12.5897 49.1209 12.4983 48.5628 12.5081C47.3896 12.5081 46.4934 12.8623 45.8742 13.5708C45.255 14.2792 44.9454 15.2845 44.9454 16.5867C44.9454 17.8916 45.255 18.8998 45.8742 19.6111C46.4934 20.3223 47.3896 20.6766 48.5628 20.6737C49.121 20.6829 49.6762 20.5908 50.2015 20.4017C50.744 20.1813 51.2467 19.8733 51.6893 19.4899L52.38 21.1668C51.8913 21.6151 51.3184 21.9619 50.6946 22.187C49.9908 22.4373 49.2482 22.5611 48.5012 22.5526Z" fill="#1F2348"/>
<path d="M67.7559 22.3884V10.7988H69.8813V22.3884H67.7559Z" fill="#1F2348"/>
<path d="M73.6348 22.3884V10.7988H78.7846C80.0598 10.7988 81.0304 11.1063 81.6964 11.7212C82.3623 12.3362 82.6967 13.1799 82.6996 14.2525C82.6996 15.3152 82.3652 16.159 81.6964 16.7839C81.0276 17.4087 80.057 17.7211 78.7846 17.7211H75.7559V22.3969L73.6348 22.3884ZM75.7602 16.0442H78.5423C79.2437 16.0442 79.7687 15.887 80.1215 15.5745C80.4586 15.2165 80.6464 14.7433 80.6464 14.2515C80.6464 13.7597 80.4586 13.2865 80.1215 12.9284C79.7687 12.616 79.2437 12.4609 78.5423 12.4609H75.7559L75.7602 16.0442Z" fill="#1F2348"/>
<path d="M87.5855 22.3884V12.5416H83.7598V10.7988H93.5493V12.5416H89.7236V22.3884H87.5855Z" fill="#1F2348"/>
<path d="M94.2522 16.5857C94.2246 15.4961 94.4524 14.4152 94.9175 13.4295C95.3373 12.5678 96.0029 11.8497 96.8304 11.3658C97.7464 10.8856 98.7652 10.6348 99.7995 10.6348C100.834 10.6348 101.853 10.8856 102.769 11.3658C103.6 11.8512 104.272 12.5684 104.703 13.4295C105.178 14.4064 105.412 15.4828 105.385 16.5687C105.412 17.6628 105.178 18.7477 104.703 19.7333C104.273 20.5997 103.601 21.3226 102.769 21.8141C101.856 22.2997 100.838 22.5537 99.8038 22.5537C98.7698 22.5537 97.7517 22.2997 96.8388 21.8141C96.0126 21.3211 95.3478 20.5981 94.926 19.7333C94.4576 18.7515 94.2268 17.6732 94.2522 16.5857ZM96.4733 16.5857C96.4733 17.8907 96.7531 18.9101 97.3128 19.6441C97.8725 20.378 98.7057 20.745 99.8123 20.745C100.888 20.745 101.716 20.378 102.297 19.6441C102.878 18.9101 103.168 17.8907 103.168 16.5857C103.168 15.2708 102.881 14.2513 102.305 13.5273C101.73 12.8032 100.899 12.4419 99.8123 12.4434C98.7057 12.4434 97.8725 12.8047 97.3128 13.5273C96.7531 14.2499 96.4733 15.2694 96.4733 16.5857Z" fill="#1F2348"/>
<path d="M112.952 22.5542C111.872 22.586 110.804 22.3354 109.851 21.8273C108.999 21.3481 108.309 20.6269 107.868 19.7551C107.386 18.7711 107.15 17.6855 107.177 16.5905C107.149 15.498 107.386 14.4151 107.868 13.4343C108.311 12.5658 109.001 11.8477 109.851 11.3706C110.803 10.861 111.872 10.609 112.952 10.6394C113.698 10.6304 114.44 10.7483 115.147 10.988C115.776 11.2048 116.351 11.5525 116.835 12.0082L116.144 13.6851C115.698 13.3097 115.196 13.007 114.656 12.7882C114.132 12.5997 113.577 12.5082 113.02 12.5183C111.847 12.5183 110.95 12.8725 110.329 13.5809C109.708 14.2894 109.399 15.2947 109.4 16.5968C109.4 17.9018 109.71 18.9099 110.329 19.6212C110.948 20.3325 111.845 20.6867 113.02 20.6839C113.577 20.6933 114.132 20.6011 114.656 20.4119C115.199 20.1913 115.701 19.8833 116.144 19.5001L116.835 21.177C116.345 21.6253 115.772 21.9721 115.147 22.1972C114.442 22.4451 113.699 22.566 112.952 22.5542Z" fill="#1F2348"/>
<path d="M119.89 22.3884V10.7988H122.015V22.3884H119.89Z" fill="#1F2348"/>
<path d="M130.163 22.5542C128.507 22.5542 127.275 22.1405 126.469 21.313C125.663 20.4855 125.26 19.2606 125.26 17.6382V10.7988H127.385V17.6212C127.385 18.6528 127.607 19.4321 128.05 19.9591C128.494 20.4862 129.202 20.7491 130.176 20.7477C131.098 20.7477 131.792 20.4848 132.257 19.9591C132.721 19.4335 132.954 18.6542 132.956 17.6212V10.7988H135.045V17.6382C135.045 19.2592 134.637 20.4841 133.821 21.313C133.005 22.1419 131.785 22.5556 130.163 22.5542Z" fill="#1F2348"/>
<path d="M137.736 22.3884V10.7988H141.949C143.275 10.7988 144.397 11.0262 145.313 11.4811C146.197 11.905 146.925 12.5956 147.394 13.4555C147.891 14.4224 148.135 15.4996 148.102 16.5862C148.132 17.6706 147.889 18.7451 147.394 19.7105C146.924 20.5739 146.197 21.2693 145.313 21.6998C144.398 22.1589 143.277 22.3884 141.949 22.3884H137.736ZM139.862 20.6308H141.819C143.223 20.6308 144.266 20.2964 144.946 19.6276C145.626 18.9588 145.966 17.945 145.966 16.5862C145.966 15.2146 145.626 14.198 144.946 13.5363C144.266 12.8746 143.223 12.543 141.819 12.5416H139.862V20.6308Z" fill="#1F2348"/>
<path d="M162.58 22.3884V10.7988H166.79C168.117 10.7988 169.238 11.0262 170.155 11.4811C171.038 11.905 171.766 12.5956 172.236 13.4555C172.733 14.4224 172.976 15.4996 172.944 16.5862C172.974 17.6706 172.731 18.7451 172.236 19.7105C171.766 20.5739 171.039 21.2693 170.155 21.6998C169.24 22.1589 168.118 22.3884 166.79 22.3884H162.58ZM164.705 20.6308H166.663C168.069 20.6308 169.111 20.2964 169.789 19.6276C170.468 18.9588 170.808 17.945 170.81 16.5862C170.81 15.2146 170.47 14.198 169.789 13.5363C169.109 12.8746 168.067 12.543 166.663 12.5416H164.705V20.6308Z" fill="#1F2348"/>
</g>
</g>
<defs>
<clipPath id="clip0_0_1">
<rect width="1440" height="1362.57" fill="white" transform="translate(-424 -998)"/>
</clipPath>
</defs>
</svg>
