<svg width="157" height="33" viewBox="0 0 157 33" fill="none" xmlns="http://www.w3.org/2000/svg">
<rect width="157" height="33" fill="#D9D9D9"/>
<path d="M-523 -1964C-523 -1965.1 -522.105 -1966 -521 -1966H3704C3705.1 -1966 3706 -1965.1 3706 -1964V1668C3706 1669.1 3705.1 1670 3704 1670H-521C-522.105 1670 -523 1669.1 -523 1668V-1964Z" fill="#1F2348" fill-opacity="0.2"/>
<path d="M-523 -1964C-523 -1965.1 -522.105 -1966 -521 -1966H3704C3705.1 -1966 3706 -1965.1 3706 -1964V1668C3706 1669.1 3705.1 1670 3704 1670H-521C-522.105 1670 -523 1669.1 -523 1668V-1964Z" fill="#00A24B" fill-opacity="0.01"/>
<path d="M-521 -1964H3704V-1968H-521V-1964ZM3704 -1964V1668H3708V-1964H3704ZM3704 1668H-521V1672H3704V1668ZM-521 1668V-1964H-525V1668H-521ZM-521 1668H-521H-525C-525 1670.21 -523.209 1672 -521 1672V1668ZM3704 1668V1672C3706.21 1672 3708 1670.21 3708 1668H3704ZM3704 -1964H3708C3708 -1966.21 3706.21 -1968 3704 -1968V-1964ZM-521 -1968C-523.209 -1968 -525 -1966.21 -525 -1964H-521V-1964V-1968Z" fill="#00A24B"/>
<g clip-path="url(#clip0_0_1)">
<rect width="1440" height="2230.57" transform="translate(-423 -1866)" fill="#F8F8F8"/>
<g opacity="0.5">
<path d="M19.848 0.605957H28.7291C28.7308 1.3672 28.5821 2.12132 28.2917 2.82525C28.0012 3.52919 27.5746 4.16916 27.0362 4.70863C26.4978 5.24809 25.8582 5.67648 25.1539 5.96934C24.4495 6.2622 23.6943 6.4138 22.9312 6.41547H14.0479C14.0394 4.88424 14.6406 3.41227 15.7193 2.32295C16.7981 1.23363 18.2662 0.616074 19.8011 0.605957H19.848Z" fill="#1F2348"/>
<path d="M33.542 8.93559C33.5655 8.98449 37.9698 16.5881 37.9698 16.5881C37.3116 16.9712 36.5842 17.2213 35.8291 17.3238C35.074 17.4264 34.3061 17.3795 33.5691 17.1858C32.8322 16.9922 32.1408 16.6555 31.5343 16.1952C30.9279 15.7348 30.4183 15.1597 30.0348 14.5028L30.0049 14.4518C29.9794 14.405 25.5771 6.79928 25.5771 6.79928C26.2396 6.41752 26.971 6.16968 27.7295 6.0699C28.4879 5.97012 29.2587 6.02036 29.9977 6.21775C30.7367 6.41514 31.4295 6.75581 32.0366 7.22032C32.6436 7.68483 33.153 8.26407 33.5356 8.92497L33.542 8.93559Z" fill="#1F2348"/>
<path d="M8.92308 18.708C8.94652 18.7569 13.3509 26.3605 13.3509 26.3605C12.0211 27.1339 10.4379 27.3486 8.9494 26.9576C7.46092 26.5665 6.1891 25.6016 5.41367 24.2752L5.38384 24.2242C5.3604 24.1753 0.956055 16.5717 0.956055 16.5717C2.29901 15.812 3.88778 15.6102 5.37871 16.01C6.86964 16.4098 8.1429 17.379 8.92308 18.708Z" fill="#1F2348"/>
<path d="M12.3389 8.52801C12.3154 8.5769 7.9111 16.1805 7.9111 16.1805C6.573 15.4092 5.5968 14.1392 5.19721 12.6499C4.79762 11.1606 5.00737 9.57395 5.78031 8.23892C5.80374 8.19003 10.2081 0.586426 10.2081 0.586426C10.8703 0.965888 11.4511 1.47177 11.9174 2.07519C12.3836 2.6786 12.7262 3.36773 12.9254 4.10322C13.1247 4.8387 13.1767 5.60614 13.0787 6.3617C12.9806 7.11727 12.7343 7.84616 12.3538 8.50675L12.3389 8.52801Z" fill="#1F2348"/>
<path d="M33.1565 24.9268C33.1331 24.9736 28.7288 32.5793 28.7288 32.5793C27.3904 31.8071 26.4141 30.5364 26.0145 29.0464C25.615 27.5564 25.8248 25.9691 26.598 24.6334C26.6214 24.5846 31.0258 16.981 31.0258 16.981C32.3631 17.7519 33.3389 19.0211 33.7384 20.5095C34.138 21.998 33.9287 23.5838 33.1565 24.9183V24.9268Z" fill="#1F2348"/>
<path d="M16.0236 26.7739H24.9026C24.906 28.3104 24.298 29.7854 23.2122 30.8751C22.1263 31.9648 20.6513 32.5799 19.1112 32.5856H10.2236C10.2231 31.0485 10.8331 29.5738 11.9202 28.4845C13.0073 27.3952 14.4829 26.7801 16.0236 26.7739Z" fill="#1F2348"/>
<path d="M56.3496 22.3969V10.7778H61.4401C62.7185 10.7778 63.7072 11.0797 64.4061 11.6834C65.105 12.2871 65.4552 13.1274 65.4566 14.2044C65.4757 14.8459 65.3124 15.4797 64.9857 16.0325C64.6652 16.5461 64.1975 16.9519 63.6433 17.1974C63.468 17.2822 63.2863 17.3533 63.1 17.41C63.2808 17.4706 63.4528 17.555 63.6113 17.6608C64.006 17.9386 64.3152 18.3207 64.5041 18.7641L66.2088 22.4054H63.8564L62.139 18.6323C62.0825 18.4632 61.9906 18.3081 61.8694 18.1772C61.7481 18.0464 61.6003 17.9428 61.4358 17.8734C61.0727 17.7453 60.6894 17.6841 60.3044 17.6927H58.4868V22.4054L56.3496 22.3969ZM58.4804 16.1197H61.0864C61.8364 16.1197 62.4053 15.9624 62.791 15.6499C62.9896 15.4823 63.1461 15.2706 63.2479 15.0317C63.3496 14.7929 63.3938 14.5336 63.377 14.2746C63.3945 14.0168 63.3506 13.7585 63.2487 13.5209C63.1469 13.2833 62.99 13.0732 62.791 12.9078C62.3989 12.5996 61.83 12.4465 61.0864 12.4465H58.4825L58.4804 16.1197Z" fill="#1F2348"/>
<path d="M71.1783 22.3969V17.5184L66.627 10.7778H69.0901L72.2863 15.6946L75.491 10.7778H77.8711L73.3091 17.5375V22.3969H71.1783Z" fill="#1F2348"/>
<path d="M145.405 22.3969V17.5184L140.845 10.7778H143.306L146.502 15.6946L149.728 10.7778H152.108L147.548 17.5333V22.3926L145.405 22.3969Z" fill="#1F2348"/>
<path d="M154.889 14.185C154.646 14.1876 154.404 14.1413 154.179 14.049C153.965 13.9606 153.769 13.8307 153.605 13.667C153.44 13.5032 153.31 13.3087 153.221 13.0945C153.038 12.6394 153.038 12.1319 153.221 11.6767C153.309 11.4631 153.439 11.2694 153.604 11.107C153.769 10.9443 153.965 10.8151 154.179 10.7265C154.636 10.5449 155.144 10.5449 155.601 10.7265C155.815 10.8151 156.009 10.9443 156.174 11.107C156.337 11.2701 156.466 11.4637 156.553 11.6767C156.735 12.1319 156.735 12.6394 156.553 13.0945C156.465 13.3079 156.336 13.5021 156.174 13.6664C156.01 13.8304 155.815 13.9604 155.601 14.049C155.375 14.1413 155.133 14.1876 154.889 14.185ZM154.889 13.9236C155.097 13.925 155.304 13.8853 155.496 13.8067C155.677 13.7311 155.842 13.6205 155.98 13.4814C156.116 13.3403 156.224 13.1743 156.297 12.9925C156.451 12.6024 156.451 12.1689 156.297 11.7787C156.224 11.5976 156.116 11.4323 155.98 11.292C155.842 11.1541 155.677 11.045 155.496 10.971C155.107 10.815 154.673 10.815 154.284 10.971C154.102 11.0451 153.937 11.1541 153.798 11.292C153.659 11.431 153.55 11.5966 153.476 11.7787C153.327 12.1696 153.327 12.6017 153.476 12.9925C153.55 13.1754 153.659 13.3416 153.798 13.4814C153.937 13.6208 154.102 13.7313 154.284 13.8067C154.475 13.888 154.681 13.9307 154.889 13.9321V13.9236ZM154.12 13.4325V11.3345H155.03C155.224 11.3215 155.417 11.3822 155.569 11.5045C155.63 11.5619 155.679 11.6319 155.711 11.7097C155.743 11.7874 155.757 11.8712 155.754 11.9552C155.76 12.0374 155.746 12.1197 155.714 12.1958C155.683 12.2718 155.633 12.3393 155.571 12.3931C155.499 12.451 155.415 12.4917 155.326 12.5121C155.363 12.5238 155.397 12.5418 155.428 12.5653C155.514 12.6424 155.572 12.7454 155.594 12.8586L155.782 13.4304H155.294L155.1 12.8097C155.092 12.7793 155.079 12.7507 155.06 12.7255C155.042 12.7003 155.018 12.6791 154.991 12.663C154.936 12.6382 154.877 12.6258 154.816 12.6269H154.603V13.4304L154.12 13.4325ZM154.591 12.2719H154.963C155.054 12.2787 155.143 12.2539 155.217 12.2018C155.247 12.1736 155.271 12.1388 155.286 12.1001C155.301 12.0614 155.306 12.0198 155.302 11.9786C155.305 11.939 155.299 11.8992 155.284 11.8624C155.27 11.8255 155.247 11.7926 155.217 11.766C155.143 11.7138 155.054 11.689 154.963 11.6958H154.591V12.2719Z" fill="#1F2348"/>
<path d="M49.5912 22.5616C48.5077 22.5944 47.4344 22.3437 46.4781 21.8346C45.6222 21.3565 44.9292 20.634 44.4879 19.76C44.0035 18.7749 43.7652 17.6875 43.7933 16.5906C43.7649 15.4957 44.0033 14.4103 44.4879 13.4275C44.9319 12.5576 45.6245 11.8386 46.4781 11.3614C47.4338 10.8501 48.5071 10.5972 49.5912 10.628C50.3407 10.6178 51.0864 10.735 51.7965 10.9745C52.4316 11.1886 53.0129 11.5366 53.5012 11.9948L52.8065 13.6762C52.3595 13.3006 51.8562 12.9972 51.315 12.7771C50.7875 12.5886 50.2302 12.4971 49.67 12.5071C48.491 12.5071 47.5911 12.8614 46.9703 13.57C46.3495 14.2785 46.0384 15.2861 46.037 16.5927C46.037 17.8993 46.3481 18.909 46.9703 19.6218C47.5925 20.3346 48.4924 20.6889 49.67 20.6846C50.2303 20.694 50.7877 20.6018 51.315 20.4126C51.859 20.1915 52.3629 19.8827 52.8065 19.4985L53.5012 21.1778C53.0075 21.6293 52.4278 21.977 51.7965 22.2003C51.0886 22.4498 50.3419 22.5722 49.5912 22.5616Z" fill="#1F2348"/>
<path d="M79.7842 22.3947V10.7778H84.9513C86.2298 10.7778 87.2043 11.0853 87.8748 11.7004C88.5453 12.3154 88.8812 13.1607 88.8827 14.2363C88.8827 15.3006 88.5467 16.1459 87.8748 16.7723C87.2029 17.3987 86.2284 17.7133 84.9513 17.7161H81.915V22.3926L79.7842 22.3947ZM81.915 16.0368H84.7084C85.4116 16.0368 85.94 15.8816 86.2937 15.567C86.633 15.2087 86.822 14.7345 86.822 14.2416C86.822 13.7488 86.633 13.2746 86.2937 12.9163C85.94 12.6045 85.4116 12.4479 84.7084 12.4465H81.915V16.0368Z" fill="#1F2348"/>
<path d="M93.8589 22.3947V12.5294H90.0107V10.7778H99.8401V12.523H95.9897V22.3884L93.8589 22.3947Z" fill="#1F2348"/>
<path d="M100.747 16.5853C100.72 15.4933 100.949 14.4102 101.416 13.4222C101.838 12.5601 102.505 11.8413 103.334 11.3561C104.254 10.8736 105.278 10.6216 106.317 10.6216C107.356 10.6216 108.38 10.8736 109.3 11.3561C110.135 11.8417 110.81 12.5598 111.241 13.4222C111.719 14.401 111.954 15.4799 111.927 16.5683C111.955 17.6642 111.72 18.7508 111.241 19.7377C110.811 20.6053 110.136 21.3292 109.3 21.8208C108.384 22.308 107.362 22.5629 106.324 22.5629C105.285 22.5629 104.263 22.308 103.347 21.8208C102.518 21.3272 101.852 20.6033 101.429 19.7377C100.956 18.7551 100.722 17.675 100.747 16.5853ZM102.978 16.5853C102.978 17.8919 103.262 18.9129 103.83 19.6484C104.399 20.3839 105.235 20.7516 106.341 20.7516C107.419 20.7516 108.25 20.3839 108.836 19.6484C109.421 18.9129 109.713 17.8919 109.711 16.5853C109.711 15.2673 109.422 14.2463 108.842 13.5221C108.263 12.798 107.429 12.4359 106.341 12.4359C105.228 12.4359 104.392 12.798 103.83 13.5221C103.269 14.2463 102.985 15.2673 102.978 16.5853Z" fill="#1F2348"/>
<path d="M119.59 22.5641C118.51 22.5953 117.441 22.3447 116.488 21.8372C115.632 21.3584 114.938 20.6361 114.495 19.7625C114.013 18.7768 113.775 17.6897 113.803 16.5931C113.775 15.4985 114.013 14.4134 114.495 13.43C114.94 12.5582 115.633 11.837 116.488 11.3575C117.443 10.8459 118.517 10.5931 119.601 10.6241C120.35 10.614 121.096 10.7311 121.806 10.9706C122.441 11.1852 123.022 11.5332 123.511 11.991L122.816 13.6724C122.369 13.2968 121.866 12.9934 121.325 12.7732C120.797 12.5847 120.24 12.4933 119.68 12.5032C118.502 12.5032 117.602 12.8575 116.98 13.5661C116.358 14.2747 116.046 15.2822 116.045 16.5888C116.045 17.8954 116.356 18.9051 116.98 19.6179C117.604 20.3308 118.503 20.685 119.68 20.6808C120.24 20.6901 120.797 20.5979 121.325 20.4087C121.869 20.1876 122.373 19.8788 122.816 19.4946L123.511 21.1739C123.017 21.625 122.437 21.9727 121.806 22.1964C121.095 22.4494 120.345 22.5739 119.59 22.5641Z" fill="#1F2348"/>
<path d="M126.114 22.3947V10.7778H128.245V22.3884L126.114 22.3947Z" fill="#1F2348"/>
<path d="M134.045 22.3947V12.5294H130.194V10.7778H140.024V12.523H136.175V22.3884L134.045 22.3947Z" fill="#1F2348"/>
</g>
</g>
<defs>
<clipPath id="clip0_0_1">
<rect width="1440" height="2230.57" fill="white" transform="translate(-423 -1866)"/>
</clipPath>
</defs>
</svg>
