<svg width="20" height="16" viewBox="0 0 20 16" fill="none" xmlns="http://www.w3.org/2000/svg">
<rect width="20" height="16" fill="#D9D9D9"/>
<path d="M-212 -1098C-212 -1099.1 -211.105 -1100 -210 -1100H4015C4016.1 -1100 4017 -1099.1 4017 -1098V1333C4017 1334.1 4016.1 1335 4015 1335H-210C-211.105 1335 -212 1334.1 -212 1333V-1098Z" fill="#1F2348" fill-opacity="0.2"/>
<path d="M-212 -1098C-212 -1099.1 -211.105 -1100 -210 -1100H4015C4016.1 -1100 4017 -1099.1 4017 -1098V1333C4017 1334.1 4016.1 1335 4015 1335H-210C-211.105 1335 -212 1334.1 -212 1333V-1098Z" fill="#00A24B" fill-opacity="0.01"/>
<path d="M-210 -1098H4015V-1102H-210V-1098ZM4015 -1098V1333H4019V-1098H4015ZM4015 1333H-210V1337H4015V1333ZM-210 1333V-1098H-214V1333H-210ZM-210 1333H-210H-214C-214 1335.21 -212.209 1337 -210 1337V1333ZM4015 1333V1337C4017.21 1337 4019 1335.21 4019 1333H4015ZM4015 -1098H4019C4019 -1100.21 4017.21 -1102 4015 -1102V-1098ZM-210 -1102C-212.209 -1102 -214 -1100.21 -214 -1098H-210V-1098V-1102Z" fill="#00A24B"/>
<g clip-path="url(#clip0_0_1)">
<rect width="1440" height="1362.57" transform="translate(-112 -1000)" fill="#F8F8F8"/>
<g filter="url(#filter0_d_0_1)">
<g clip-path="url(#clip1_0_1)">
<mask id="mask0_0_1" style="mask-type:luminance" maskUnits="userSpaceOnUse" x="0" y="0" width="20" height="16">
<rect y="0.074707" width="20" height="15" fill="white"/>
</mask>
<g mask="url(#mask0_0_1)">
<path fill-rule="evenodd" clip-rule="evenodd" d="M0 0.074707V15.0747H20V0.074707H0Z" fill="#2E42A5"/>
<mask id="mask1_0_1" style="mask-type:luminance" maskUnits="userSpaceOnUse" x="0" y="0" width="20" height="16">
<path fill-rule="evenodd" clip-rule="evenodd" d="M0 0.074707V15.0747H20V0.074707H0Z" fill="white"/>
</mask>
<g mask="url(#mask1_0_1)">
<mask id="mask2_0_1" style="mask-type:luminance" maskUnits="userSpaceOnUse" x="0" y="0" width="20" height="16">
<rect y="0.074707" width="20" height="15" fill="white"/>
</mask>
<g mask="url(#mask2_0_1)">
<path d="M-2.22656 14.0032L2.17449 15.8645L20.1003 2.09849L22.4217 -0.667437L17.7154 -1.28953L10.4039 4.64264L4.51893 8.63953L-2.22656 14.0032Z" fill="white"/>
<path d="M-1.62402 15.3073L0.618111 16.3875L21.5881 -0.924387H18.4399L-1.62402 15.3073Z" fill="#F50100"/>
<path d="M22.2275 14.0032L17.8265 15.8645L-0.0992908 2.09849L-2.42075 -0.667437L2.28555 -1.28953L9.59704 4.64264L15.482 8.63953L22.2275 14.0032Z" fill="white"/>
<path d="M22.0771 14.9392L19.835 16.0193L10.9058 8.60719L8.25843 7.77905L-2.64434 -0.657944H0.503876L11.4005 7.5788L14.2949 8.57182L22.0771 14.9392Z" fill="#F50100"/>
<mask id="path-12-inside-1_0_1" fill="white">
<path fill-rule="evenodd" clip-rule="evenodd" d="M12.3615 -1.17529H7.63926V5.07471H-1.23242V10.0747H7.63926V16.3247H12.3615V10.0747H21.2676V5.07471H12.3615V-1.17529Z"/>
</mask>
<path fill-rule="evenodd" clip-rule="evenodd" d="M12.3615 -1.17529H7.63926V5.07471H-1.23242V10.0747H7.63926V16.3247H12.3615V10.0747H21.2676V5.07471H12.3615V-1.17529Z" fill="#F50100"/>
<path d="M7.63926 -1.17529V-2.42529H6.38926V-1.17529H7.63926ZM12.3615 -1.17529H13.6115V-2.42529H12.3615V-1.17529ZM7.63926 5.07471V6.32471H8.88926V5.07471H7.63926ZM-1.23242 5.07471V3.82471H-2.48242V5.07471H-1.23242ZM-1.23242 10.0747H-2.48242V11.3247H-1.23242V10.0747ZM7.63926 10.0747H8.88926V8.82471H7.63926V10.0747ZM7.63926 16.3247H6.38926V17.5747H7.63926V16.3247ZM12.3615 16.3247V17.5747H13.6115V16.3247H12.3615ZM12.3615 10.0747V8.82471H11.1115V10.0747H12.3615ZM21.2676 10.0747V11.3247H22.5176V10.0747H21.2676ZM21.2676 5.07471H22.5176V3.82471H21.2676V5.07471ZM12.3615 5.07471H11.1115V6.32471H12.3615V5.07471ZM7.63926 0.074707H12.3615V-2.42529H7.63926V0.074707ZM8.88926 5.07471V-1.17529H6.38926V5.07471H8.88926ZM-1.23242 6.32471H7.63926V3.82471H-1.23242V6.32471ZM0.0175781 10.0747V5.07471H-2.48242V10.0747H0.0175781ZM7.63926 8.82471H-1.23242V11.3247H7.63926V8.82471ZM8.88926 16.3247V10.0747H6.38926V16.3247H8.88926ZM12.3615 15.0747H7.63926V17.5747H12.3615V15.0747ZM11.1115 10.0747V16.3247H13.6115V10.0747H11.1115ZM21.2676 8.82471H12.3615V11.3247H21.2676V8.82471ZM20.0176 5.07471V10.0747H22.5176V5.07471H20.0176ZM12.3615 6.32471H21.2676V3.82471H12.3615V6.32471ZM11.1115 -1.17529V5.07471H13.6115V-1.17529H11.1115Z" fill="white" mask="url(#path-12-inside-1_0_1)"/>
</g>
</g>
</g>
<rect y="0.074707" width="20" height="15" fill="url(#paint0_linear_0_1)" style="mix-blend-mode:overlay"/>
</g>
</g>
</g>
<defs>
<filter id="filter0_d_0_1" x="-3" y="-0.925293" width="26" height="21" filterUnits="userSpaceOnUse" color-interpolation-filters="sRGB">
<feFlood flood-opacity="0" result="BackgroundImageFix"/>
<feColorMatrix in="SourceAlpha" type="matrix" values="0 0 0 0 0 0 0 0 0 0 0 0 0 0 0 0 0 0 127 0" result="hardAlpha"/>
<feOffset dy="2"/>
<feGaussianBlur stdDeviation="1.5"/>
<feColorMatrix type="matrix" values="0 0 0 0 0 0 0 0 0 0 0 0 0 0 0 0 0 0 0.1 0"/>
<feBlend mode="normal" in2="BackgroundImageFix" result="effect1_dropShadow_0_1"/>
<feBlend mode="normal" in="SourceGraphic" in2="effect1_dropShadow_0_1" result="shape"/>
</filter>
<linearGradient id="paint0_linear_0_1" x1="10" y1="0.074707" x2="10" y2="15.0747" gradientUnits="userSpaceOnUse">
<stop stop-color="white" stop-opacity="0.7"/>
<stop offset="1" stop-opacity="0.3"/>
</linearGradient>
<clipPath id="clip0_0_1">
<rect width="1440" height="1362.57" fill="white" transform="translate(-112 -1000)"/>
</clipPath>
<clipPath id="clip1_0_1">
<rect y="0.074707" width="20" height="15" rx="1.5" fill="white"/>
</clipPath>
</defs>
</svg>
