<svg width="50" height="45" viewBox="0 0 50 45" fill="none" xmlns="http://www.w3.org/2000/svg">
<path fill-rule="evenodd" clip-rule="evenodd" d="M35.5606 39.1857C35.5434 39.1224 35.5357 39.0554 35.5392 38.9864L37.4885 0L25.8625 2.68292C25.561 2.7525 25.2473 2.74965 24.9472 2.6746L14.297 0.0120585L15.2717 39.0021C15.2733 39.0659 15.2655 39.1278 15.2495 39.1864L24.8885 41.8152C25.2259 41.9072 25.5817 41.9072 25.9191 41.8152L35.5606 39.1857ZM38.7622 0.0609431L36.8127 39.05C36.8106 39.0924 36.8044 39.1335 36.7945 39.1732L45.616 41.3785C46.8121 41.6776 47.9836 40.8102 48.0467 39.5789L49.8069 5.25517C49.852 4.37631 49.3053 3.57531 48.4704 3.29702L38.7622 0.0609431ZM2.38245 3.31933L13.0223 0.0455338L13.997 39.0339C13.9982 39.0817 14.0046 39.128 14.0157 39.1725L5.19167 41.3785C3.99559 41.6775 2.82407 40.8102 2.76093 39.5789L1.00259 5.29137C0.956654 4.3956 1.52516 3.58311 2.38245 3.31933Z" fill="url(#paint0_radial_1100_5064)"/>
<path d="M41.3095 16.3718L33.001 24.6804M41.3095 24.6807L33.001 16.3721" stroke="#1F2348" stroke-width="2.55028" stroke-linecap="round"/>
<path d="M1.9043 25.3108L14.1556 20.2905L27.1283 20.2905" stroke="#1F2348" stroke-width="2.55028" stroke-linecap="round" stroke-dasharray="14.66 14.66"/>
<defs>
<radialGradient id="paint0_radial_1100_5064" cx="0" cy="0" r="1" gradientUnits="userSpaceOnUse" gradientTransform="translate(49.8095 41.8842) rotate(-180) scale(48.8095 41.8842)">
<stop stop-color="#EC991C"/>
<stop offset="1" stop-color="#E9B213"/>
</radialGradient>
</defs>
</svg>
