<svg width="50" height="43" viewBox="0 0 50 43" fill="none" xmlns="http://www.w3.org/2000/svg">
<path fill-rule="evenodd" clip-rule="evenodd" d="M35.5606 39.7604C35.5434 39.6972 35.5357 39.6301 35.5392 39.5611L37.4885 0.574707L25.8625 3.25763C25.561 3.3272 25.2473 3.32435 24.9472 3.24931L14.297 0.586766L15.2717 39.5768C15.2733 39.6406 15.2655 39.7025 15.2495 39.7611L24.8885 42.3899C25.2259 42.4819 25.5817 42.4819 25.9191 42.3899L35.5606 39.7604ZM38.7622 0.63565L36.8127 39.6248C36.8106 39.6671 36.8044 39.7082 36.7945 39.7479L45.616 41.9532C46.8121 42.2523 47.9836 41.3849 48.0467 40.1537L49.8069 5.82988C49.852 4.95101 49.3053 4.15002 48.4704 3.87173L38.7622 0.63565ZM2.38245 3.89404L13.0223 0.620241L13.997 39.6087C13.9982 39.6564 14.0046 39.7028 14.0157 39.7472L5.19167 41.9532C3.99559 42.2523 2.82407 41.3849 2.76093 40.1537L1.00259 5.86608C0.956654 4.9703 1.52516 4.15782 2.38245 3.89404Z" fill="url(#paint0_radial_1100_8114)"/>
<path d="M41.3095 16.9465L33.001 25.2551M41.3095 25.2554L33.001 16.9468" stroke="#1F2348" stroke-width="2.55028" stroke-linecap="round"/>
<path d="M1.9043 25.8855L14.1556 20.8652L27.1283 20.8652" stroke="#1F2348" stroke-width="2.55028" stroke-linecap="round" stroke-dasharray="14.66 14.66"/>
<defs>
<radialGradient id="paint0_radial_1100_8114" cx="0" cy="0" r="1" gradientUnits="userSpaceOnUse" gradientTransform="translate(49.8095 42.4589) rotate(-180) scale(48.8095 41.8842)">
<stop stop-color="#EC991C"/>
<stop offset="1" stop-color="#E9B213"/>
</radialGradient>
</defs>
</svg>
