<svg width="173" height="33" viewBox="0 0 173 33" fill="none" xmlns="http://www.w3.org/2000/svg">
<rect width="173" height="33" fill="#D9D9D9"/>
<path d="M-725 -1096C-725 -1097.1 -724.105 -1098 -723 -1098H3502C3503.1 -1098 3504 -1097.1 3504 -1096V1335C3504 1336.1 3503.1 1337 3502 1337H-723C-724.105 1337 -725 1336.1 -725 1335V-1096Z" fill="#1F2348" fill-opacity="0.2"/>
<path d="M-725 -1096C-725 -1097.1 -724.105 -1098 -723 -1098H3502C3503.1 -1098 3504 -1097.1 3504 -1096V1335C3504 1336.1 3503.1 1337 3502 1337H-723C-724.105 1337 -725 1336.1 -725 1335V-1096Z" fill="#00A24B" fill-opacity="0.01"/>
<path d="M-723 -1096H3502V-1100H-723V-1096ZM3502 -1096V1335H3506V-1096H3502ZM3502 1335H-723V1339H3502V1335ZM-723 1335V-1096H-727V1335H-723ZM-723 1335H-723H-727C-727 1337.21 -725.209 1339 -723 1339V1335ZM3502 1335V1339C3504.21 1339 3506 1337.21 3506 1335H3502ZM3502 -1096H3506C3506 -1098.21 3504.21 -1100 3502 -1100V-1096ZM-723 -1100C-725.209 -1100 -727 -1098.21 -727 -1096H-723V-1096V-1100Z" fill="#00A24B"/>
<g clip-path="url(#clip0_0_1)">
<rect width="1440" height="1362.57" transform="translate(-625 -998)" fill="#F8F8F8"/>
<g opacity="0.5">
<g clip-path="url(#clip1_0_1)">
<path d="M170.957 14.2227C170.694 14.2227 170.478 14.1747 170.238 14.0787C170.023 13.9827 169.831 13.8627 169.664 13.6947C169.496 13.5267 169.376 13.3347 169.28 13.1187C169.185 12.9027 169.137 12.6627 169.137 12.3987C169.137 12.1347 169.185 11.9187 169.28 11.6787C169.376 11.4387 169.496 11.2707 169.664 11.1027C169.831 10.9347 170.023 10.8147 170.238 10.7187C170.454 10.6227 170.694 10.5747 170.957 10.5747C171.221 10.5747 171.437 10.6227 171.676 10.7187C171.892 10.8147 172.084 10.9347 172.251 11.1027C172.419 11.2707 172.539 11.4627 172.635 11.6787C172.73 11.8947 172.778 12.1347 172.778 12.3987C172.778 12.6627 172.73 12.8787 172.635 13.1187C172.539 13.3347 172.419 13.5267 172.251 13.6947C172.084 13.8627 171.892 13.9827 171.676 14.0787C171.46 14.1747 171.221 14.2227 170.957 14.2227ZM170.957 13.9587C171.173 13.9587 171.365 13.9107 171.556 13.8387C171.748 13.7667 171.892 13.6467 172.036 13.5027C172.179 13.3587 172.275 13.1907 172.347 13.0227C172.419 12.8307 172.467 12.6387 172.467 12.4227C172.467 12.2067 172.419 11.9907 172.347 11.8227C172.275 11.6307 172.155 11.4627 172.036 11.3427C171.892 11.1987 171.748 11.1027 171.556 11.0307C171.365 10.9587 171.173 10.9107 170.957 10.9107C170.742 10.9107 170.55 10.9587 170.358 11.0307C170.167 11.1027 170.023 11.2227 169.879 11.3427C169.736 11.4867 169.64 11.6307 169.568 11.8227C169.496 12.0147 169.448 12.2067 169.448 12.4227C169.448 12.6387 169.496 12.8547 169.568 13.0227C169.64 13.2147 169.759 13.3827 169.879 13.5027C170.023 13.6467 170.167 13.7427 170.358 13.8387C170.55 13.9107 170.742 13.9587 170.957 13.9587ZM170.191 13.4547V11.3667H171.101C171.341 11.3667 171.508 11.4147 171.628 11.5347C171.748 11.6547 171.82 11.7987 171.82 11.9907C171.82 12.1827 171.748 12.3267 171.628 12.4227C171.556 12.4707 171.485 12.5187 171.388 12.5427C171.437 12.5667 171.46 12.5667 171.484 12.5907C171.556 12.6387 171.604 12.7347 171.652 12.8787L171.844 13.4547H171.365L171.173 12.8307C171.149 12.7587 171.125 12.7107 171.053 12.6867C171.005 12.6627 170.957 12.6387 170.885 12.6387H170.67V13.4307H170.19L170.191 13.4547ZM170.67 12.3027H171.029C171.149 12.3027 171.221 12.2787 171.293 12.2307C171.34 12.1827 171.388 12.1107 171.388 12.0147C171.388 11.9187 171.364 11.8467 171.293 11.7987C171.245 11.7507 171.149 11.7267 171.029 11.7267H170.67V12.3027Z" fill="#1F2348"/>
<path d="M43.7393 22.4067V10.8147H45.8715V15.9507H45.8954L50.9509 10.8147H53.5145L47.9321 16.3827L53.8978 22.4067H51.2623L45.8955 17.0307H45.8717V22.4067H43.7394H43.7393Z" fill="#1F2348"/>
<path d="M55.7188 22.4069V10.8149H60.7738C62.0437 10.8149 63.026 11.1269 63.7208 11.7269C64.4154 12.3269 64.775 13.1669 64.775 14.2469C64.775 14.9669 64.6073 15.5669 64.296 16.0709C63.9844 16.5749 63.5293 16.9589 62.9541 17.2229C62.7864 17.2949 62.5949 17.3669 62.403 17.4149C62.5708 17.4629 62.7626 17.5589 62.9062 17.6549C63.2654 17.8949 63.553 18.2549 63.7927 18.7589L65.4938 22.4069H63.1697L61.4686 18.6389C61.325 18.2549 61.0856 17.9909 60.774 17.8709C60.4626 17.7509 60.0793 17.6789 59.6479 17.6789H57.8512V22.3829H55.7189V22.4069H55.7188ZM57.851 16.1189H60.4384C61.1813 16.1189 61.7561 15.9509 62.1394 15.6389C62.5228 15.3269 62.7144 14.8709 62.7144 14.2709C62.7144 13.6709 62.5229 13.2149 62.1394 12.9029C61.7561 12.5909 61.1812 12.4469 60.4384 12.4469H57.851V16.1189Z" fill="#1F2348"/>
<path d="M70.5965 22.4067V17.5347L66.0684 10.8147H68.5124L71.6986 15.7347L74.8849 10.8147H77.2569L72.7288 17.5587V22.4067H70.5965Z" fill="#1F2348"/>
<path d="M79.1738 22.4067V10.8147H84.3248C85.5946 10.8147 86.5769 11.1267 87.2238 11.7267C87.8945 12.3507 88.23 13.1907 88.23 14.2707C88.23 15.3267 87.8945 16.1907 87.2238 16.8147C86.5529 17.4387 85.5948 17.7507 84.3248 17.7507H81.306V22.4307H79.174L79.1738 22.4067ZM81.2821 16.0467H84.0613C84.756 16.0467 85.283 15.8787 85.6425 15.5667C86.0017 15.2547 86.1694 14.8227 86.1694 14.2467C86.1694 13.6707 86.0017 13.2387 85.6425 12.9267C85.2829 12.6147 84.756 12.4467 84.0613 12.4467H81.2821V16.0467Z" fill="#1F2348"/>
<path d="M93.093 22.4075V12.5435H89.2598V10.7915H99.0346V12.5435H95.2011V22.4075H93.093Z" fill="#1F2348"/>
<path d="M100.018 16.5995C100.018 15.3755 100.233 14.3195 100.688 13.4315C101.144 12.5435 101.766 11.8475 102.605 11.3675C103.444 10.8875 104.426 10.6235 105.576 10.6235C106.726 10.6235 107.708 10.8635 108.547 11.3675C109.385 11.8475 110.032 12.5435 110.487 13.4315C110.942 14.3195 111.158 15.3755 111.158 16.5755C111.158 17.7995 110.919 18.8555 110.487 19.7435C110.032 20.6315 109.385 21.3275 108.547 21.8315C107.708 22.3355 106.726 22.5755 105.576 22.5755C104.426 22.5755 103.444 22.3355 102.605 21.8315C101.766 21.3275 101.143 20.6555 100.688 19.7435C100.257 18.8555 100.018 17.7995 100.018 16.5995ZM102.246 16.5995C102.246 17.8955 102.533 18.9275 103.084 19.6715C103.635 20.4155 104.474 20.7755 105.576 20.7755C106.654 20.7755 107.469 20.4155 108.068 19.6715C108.643 18.9275 108.93 17.9195 108.93 16.5995C108.93 15.2795 108.642 14.2715 108.068 13.5275C107.492 12.7835 106.654 12.4475 105.576 12.4475C104.474 12.4475 103.635 12.8075 103.084 13.5275C102.533 14.2475 102.246 15.2795 102.246 16.5995Z" fill="#1F2348"/>
<path d="M117.602 22.5755C116.668 22.5755 115.806 22.4555 115.039 22.2155C114.248 21.9755 113.577 21.6635 113.026 21.2315L113.673 19.5755C114.056 19.8395 114.44 20.0555 114.847 20.2475C115.254 20.4395 115.686 20.5595 116.141 20.6555C116.596 20.7515 117.099 20.7995 117.602 20.7995C118.465 20.7995 119.088 20.6555 119.471 20.3675C119.854 20.0795 120.046 19.7195 120.046 19.2395C120.046 18.8315 119.926 18.5195 119.663 18.3035C119.399 18.0875 118.92 17.9195 118.249 17.7755L116.381 17.3915C115.327 17.1755 114.512 16.8155 113.985 16.2875C113.458 15.7835 113.194 15.0875 113.194 14.2235C113.194 13.5035 113.386 12.8795 113.769 12.3275C114.152 11.7995 114.68 11.3675 115.374 11.0795C116.069 10.7915 116.86 10.6235 117.794 10.6235C118.609 10.6235 119.375 10.7435 120.07 10.9835C120.765 11.2235 121.364 11.5595 121.819 11.9915L121.172 13.5755C120.693 13.1915 120.19 12.8795 119.615 12.6875C119.064 12.4955 118.441 12.3995 117.746 12.3995C116.98 12.3995 116.357 12.5435 115.926 12.8555C115.494 13.1675 115.279 13.5755 115.279 14.1035C115.279 14.5115 115.422 14.8235 115.686 15.0635C115.949 15.3035 116.405 15.4955 117.052 15.6155L118.896 15.9755C119.998 16.1915 120.813 16.5515 121.34 17.0555C121.867 17.5595 122.131 18.2315 122.131 19.0715C122.131 19.7675 121.939 20.3675 121.58 20.8955C121.197 21.4235 120.669 21.8315 119.999 22.1195C119.328 22.4075 118.513 22.5755 117.603 22.5755H117.602Z" fill="#1F2348"/>
<path d="M126.993 22.4075V12.5435H123.16V10.7915H132.935V12.5435H129.102V22.4075H126.993Z" fill="#1F2348"/>
<path d="M132.36 22.4069L137.607 10.8149H139.38L144.699 22.4069H142.543L141.368 19.7189H135.666L134.493 22.4069H132.36ZM138.47 13.0709L136.361 18.0629H140.674L138.518 13.0709H138.47Z" fill="#1F2348"/>
<path d="M146.376 22.4069V10.8149H150.593C151.91 10.8149 153.037 11.0309 153.947 11.4869C154.857 11.9429 155.552 12.5909 156.031 13.4549C156.51 14.3189 156.75 15.3509 156.75 16.5989C156.75 17.8229 156.51 18.8549 156.031 19.7189C155.552 20.5829 154.857 21.2549 153.947 21.7109C153.036 22.1669 151.91 22.4069 150.593 22.4069H146.376ZM148.508 20.6309H150.473C151.886 20.6309 152.917 20.2949 153.587 19.6229C154.258 18.9509 154.618 17.9429 154.618 16.5749C154.618 15.2069 154.282 14.1749 153.587 13.5269C152.917 12.8549 151.862 12.5429 150.473 12.5429H148.508V20.6309Z" fill="#1F2348"/>
<path d="M161.351 22.4075V12.5435H157.518V10.7915H167.293V12.5435H163.459V22.4075H161.351H161.351Z" fill="#1F2348"/>
<path d="M19.5645 0.598145H28.3952C28.3952 3.62294 26.0021 6.40761 22.6038 6.40761H13.797C13.7732 3.33481 16.2381 0.598145 19.5645 0.598145Z" fill="#1F2348"/>
<path d="M33.1811 8.92913C33.2051 8.97713 37.5844 16.587 37.5844 16.587C34.9759 18.0994 31.3624 17.4273 29.6632 14.4505C29.6392 14.4025 25.2598 6.79259 25.2598 6.79259C27.9162 5.25619 31.5296 6.02446 33.1811 8.92913Z" fill="#1F2348"/>
<path d="M8.69965 18.6981C8.72365 18.7461 13.1031 26.3559 13.1031 26.3559C10.4946 27.8683 6.88099 27.1962 5.18179 24.2194C5.15779 24.1714 0.77832 16.5617 0.77832 16.5617C3.43472 15.0493 7.02445 15.8175 8.69965 18.6982V18.6981Z" fill="#1F2348"/>
<path d="M12.098 8.52071C12.074 8.56871 7.69467 16.1786 7.69467 16.1786C5.08614 14.6662 3.8656 11.1854 5.5648 8.23257C5.5888 8.18457 9.96827 0.574707 9.96827 0.574707C12.6487 2.13511 13.7732 5.63991 12.098 8.52071Z" fill="#1F2348"/>
<path d="M32.7982 24.9172C32.7745 24.9652 28.3949 32.5752 28.3949 32.5752C25.7863 31.0627 24.5658 27.5819 26.265 24.6291C26.2889 24.5811 30.6683 16.9712 30.6683 16.9712C33.325 18.5076 34.4734 22.0124 32.7983 24.9172H32.7982Z" fill="#1F2348"/>
<path d="M15.7598 26.7642H24.5905C24.5905 29.789 22.1973 32.5738 18.799 32.5738H9.99219C9.99219 29.501 12.4573 26.7642 15.7598 26.7642Z" fill="#1F2348"/>
</g>
</g>
</g>
<defs>
<clipPath id="clip0_0_1">
<rect width="1440" height="1362.57" fill="white" transform="translate(-625 -998)"/>
</clipPath>
<clipPath id="clip1_0_1">
<rect width="172" height="32" fill="white" transform="translate(0.77832 0.574707)"/>
</clipPath>
</defs>
</svg>
