<svg width="157" height="33" viewBox="0 0 157 33" fill="none" xmlns="http://www.w3.org/2000/svg">
<path d="M19.848 0.03125H28.7291C28.7308 0.792492 28.5821 1.54661 28.2917 2.25055C28.0012 2.95448 27.5746 3.59445 27.0362 4.13392C26.4978 4.67338 25.8582 5.10177 25.1539 5.39464C24.4495 5.6875 23.6943 5.83909 22.9312 5.84076H14.0479C14.0394 4.30953 14.6406 2.83756 15.7193 1.74824C16.7981 0.658924 18.2662 0.0413673 19.8011 0.03125H19.848Z" fill="#FC8702"/>
<path d="M33.542 8.36089C33.5655 8.40978 37.9698 16.0134 37.9698 16.0134C37.3116 16.3965 36.5842 16.6465 35.8291 16.7491C35.074 16.8517 34.3061 16.8048 33.5691 16.6111C32.8322 16.4175 32.1408 16.0808 31.5343 15.6205C30.9279 15.1601 30.4183 14.585 30.0348 13.9281L30.0049 13.8771C29.9794 13.8303 25.5771 6.22457 25.5771 6.22457C26.2396 5.84281 26.971 5.59497 27.7295 5.49519C28.4879 5.39541 29.2587 5.44565 29.9977 5.64304C30.7367 5.84043 31.4295 6.18111 32.0366 6.64561C32.6436 7.11012 33.153 7.68936 33.5356 8.35026L33.542 8.36089Z" fill="#D94432"/>
<path d="M8.92308 18.1333C8.94652 18.1822 13.3509 25.7858 13.3509 25.7858C12.0211 26.5592 10.4379 26.7739 8.9494 26.3829C7.46092 25.9918 6.1891 25.0269 5.41367 23.7005L5.38384 23.6495C5.3604 23.6006 0.956055 15.997 0.956055 15.997C2.29901 15.2373 3.88778 15.0355 5.37871 15.4353C6.86964 15.8351 8.1429 16.8043 8.92308 18.1333Z" fill="#21BCA5"/>
<path d="M12.3389 7.9533C12.3154 8.00219 7.9111 15.6058 7.9111 15.6058C6.573 14.8345 5.5968 13.5645 5.19721 12.0752C4.79762 10.5859 5.00737 8.99925 5.78031 7.66421C5.80374 7.61532 10.2081 0.0117188 10.2081 0.0117188C10.8703 0.391181 11.4511 0.897065 11.9174 1.50048C12.3836 2.10389 12.7262 2.79302 12.9254 3.52851C13.1247 4.26399 13.1767 5.03143 13.0787 5.787C12.9806 6.54256 12.7343 7.27145 12.3538 7.93205L12.3389 7.9533Z" fill="#E9B213"/>
<path d="M33.1565 24.3521C33.1331 24.3988 28.7288 32.0046 28.7288 32.0046C27.3904 31.2324 26.4141 29.9617 26.0145 28.4717C25.615 26.9817 25.8248 25.3944 26.598 24.0587C26.6214 24.0099 31.0258 16.4062 31.0258 16.4062C32.3631 17.1772 33.3389 18.4464 33.7384 19.9348C34.138 21.4232 33.9287 23.0091 33.1565 24.3436V24.3521Z" fill="#1F2348"/>
<path d="M16.0236 26.1992H24.9026C24.906 27.7357 24.298 29.2107 23.2122 30.3004C22.1263 31.39 20.6513 32.0052 19.1112 32.0109H10.2236C10.2231 30.4738 10.8331 28.9991 11.9202 27.9098C13.0073 26.8205 14.4829 26.2054 16.0236 26.1992Z" fill="#0582CA"/>
<path d="M56.3496 21.8222V10.2031H61.4401C62.7185 10.2031 63.7072 10.505 64.4061 11.1087C65.105 11.7124 65.4552 12.5527 65.4566 13.6297C65.4757 14.2712 65.3124 14.905 64.9857 15.4578C64.6652 15.9714 64.1975 16.3772 63.6433 16.6227C63.468 16.7075 63.2863 16.7786 63.1 16.8353C63.2808 16.8959 63.4528 16.9803 63.6113 17.0861C64.006 17.3639 64.3152 17.746 64.5041 18.1894L66.2088 21.8307H63.8564L62.139 18.0576C62.0825 17.8885 61.9906 17.7334 61.8694 17.6025C61.7481 17.4717 61.6003 17.3681 61.4358 17.2987C61.0727 17.1706 60.6894 17.1094 60.3044 17.118H58.4868V21.8307L56.3496 21.8222ZM58.4804 15.545H61.0864C61.8364 15.545 62.4053 15.3877 62.791 15.0752C62.9896 14.9076 63.1461 14.6959 63.2479 14.457C63.3496 14.2182 63.3938 13.9589 63.377 13.6999C63.3945 13.4421 63.3506 13.1838 63.2487 12.9462C63.1469 12.7086 62.99 12.4985 62.791 12.3331C62.3989 12.0248 61.83 11.8718 61.0864 11.8718H58.4825L58.4804 15.545Z" fill="#1D2248"/>
<path d="M71.1783 21.8222V16.9437L66.627 10.2031H69.0901L72.2863 15.1199L75.491 10.2031H77.8711L73.3091 16.9628V21.8222H71.1783Z" fill="#1D2248"/>
<path d="M145.405 21.8222V16.9437L140.845 10.2031H143.306L146.502 15.1199L149.728 10.2031H152.108L147.548 16.9586V21.8179L145.405 21.8222Z" fill="#1D2248"/>
<path d="M154.889 13.6103C154.646 13.6129 154.404 13.5666 154.179 13.4743C153.965 13.3858 153.769 13.256 153.605 13.0923C153.44 12.9285 153.31 12.734 153.221 12.5198C153.038 12.0647 153.038 11.5572 153.221 11.102C153.309 10.8884 153.439 10.6947 153.604 10.5323C153.769 10.3696 153.965 10.2404 154.179 10.1518C154.636 9.97023 155.144 9.97023 155.601 10.1518C155.815 10.2404 156.009 10.3696 156.174 10.5323C156.337 10.6954 156.466 10.889 156.553 11.102C156.735 11.5572 156.735 12.0647 156.553 12.5198C156.465 12.7332 156.336 12.9274 156.174 13.0917C156.01 13.2557 155.815 13.3857 155.601 13.4743C155.375 13.5666 155.133 13.6129 154.889 13.6103ZM154.889 13.3489C155.097 13.3503 155.304 13.3106 155.496 13.2319C155.677 13.1564 155.842 13.0458 155.98 12.9067C156.116 12.7656 156.224 12.5996 156.297 12.4178C156.451 12.0277 156.451 11.5942 156.297 11.204C156.224 11.0229 156.116 10.8576 155.98 10.7173C155.842 10.5794 155.677 10.4703 155.496 10.3963C155.107 10.2403 154.673 10.2403 154.284 10.3963C154.102 10.4704 153.937 10.5794 153.798 10.7173C153.659 10.8563 153.55 11.0218 153.476 11.204C153.327 11.5949 153.327 12.027 153.476 12.4178C153.55 12.6006 153.659 12.7669 153.798 12.9067C153.937 13.0461 154.102 13.1566 154.284 13.2319C154.475 13.3133 154.681 13.356 154.889 13.3574V13.3489ZM154.12 12.8578V10.7598H155.03C155.224 10.7468 155.417 10.8075 155.569 10.9298C155.63 10.9872 155.679 11.0572 155.711 11.135C155.743 11.2127 155.757 11.2965 155.754 11.3805C155.76 11.4627 155.746 11.545 155.714 11.621C155.683 11.6971 155.633 11.7646 155.571 11.8184C155.499 11.8763 155.415 11.917 155.326 11.9374C155.363 11.9491 155.397 11.9671 155.428 11.9905C155.514 12.0677 155.572 12.1707 155.594 12.2839L155.782 12.8557H155.294L155.1 12.235C155.092 12.2046 155.079 12.1759 155.06 12.1508C155.042 12.1256 155.018 12.1044 154.991 12.0883C154.936 12.0635 154.877 12.0511 154.816 12.0522H154.603V12.8557L154.12 12.8578ZM154.591 11.6972H154.963C155.054 11.704 155.143 11.6792 155.217 11.6271C155.247 11.5989 155.271 11.5641 155.286 11.5254C155.301 11.4867 155.306 11.4451 155.302 11.4039C155.305 11.3643 155.299 11.3245 155.284 11.2877C155.27 11.2508 155.247 11.2178 155.217 11.1913C155.143 11.1391 155.054 11.1143 154.963 11.1211H154.591V11.6972Z" fill="#1D2248"/>
<path d="M49.5912 21.9869C48.5077 22.0196 47.4344 21.769 46.4781 21.2599C45.6222 20.7818 44.9292 20.0593 44.4879 19.1853C44.0035 18.2001 43.7652 17.1128 43.7933 16.0159C43.7649 14.921 44.0033 13.8356 44.4879 12.8528C44.9319 11.9829 45.6245 11.2639 46.4781 10.7867C47.4338 10.2754 48.5071 10.0225 49.5912 10.0533C50.3407 10.0431 51.0864 10.1603 51.7965 10.3998C52.4316 10.6139 53.0129 10.9619 53.5012 11.4201L52.8065 13.1015C52.3595 12.7259 51.8562 12.4225 51.315 12.2024C50.7875 12.0139 50.2302 11.9224 49.67 11.9324C48.491 11.9324 47.5911 12.2867 46.9703 12.9952C46.3495 13.7038 46.0384 14.7114 46.037 16.018C46.037 17.3246 46.3481 18.3343 46.9703 19.0471C47.5925 19.7599 48.4924 20.1142 49.67 20.1099C50.2303 20.1193 50.7877 20.0271 51.315 19.8378C51.859 19.6168 52.3629 19.308 52.8065 18.9238L53.5012 20.6031C53.0075 21.0546 52.4278 21.4023 51.7965 21.6256C51.0886 21.8751 50.3419 21.9975 49.5912 21.9869Z" fill="#1D2248"/>
<path d="M79.7842 21.82V10.2031H84.9513C86.2298 10.2031 87.2043 10.5106 87.8748 11.1257C88.5453 11.7407 88.8812 12.586 88.8827 13.6616C88.8827 14.7259 88.5467 15.5712 87.8748 16.1976C87.2029 16.8239 86.2284 17.1385 84.9513 17.1414H81.915V21.8179L79.7842 21.82ZM81.915 15.4621H84.7084C85.4116 15.4621 85.94 15.3069 86.2937 14.9923C86.633 14.634 86.822 14.1598 86.822 13.6669C86.822 13.1741 86.633 12.6999 86.2937 12.3416C85.94 12.0298 85.4116 11.8732 84.7084 11.8718H81.915V15.4621Z" fill="#1D2248"/>
<path d="M93.8589 21.82V11.9547H90.0107V10.2031H99.8401V11.9483H95.9897V21.8137L93.8589 21.82Z" fill="#1D2248"/>
<path d="M100.747 16.0106C100.72 14.9186 100.949 13.8355 101.416 12.8475C101.838 11.9854 102.505 11.2666 103.334 10.7814C104.254 10.2989 105.278 10.0469 106.317 10.0469C107.356 10.0469 108.38 10.2989 109.3 10.7814C110.135 11.267 110.81 11.9851 111.241 12.8475C111.719 13.8263 111.954 14.9052 111.927 15.9936C111.955 17.0895 111.72 18.1761 111.241 19.163C110.811 20.0306 110.136 20.7545 109.3 21.2461C108.384 21.7333 107.362 21.9882 106.324 21.9882C105.285 21.9882 104.263 21.7333 103.347 21.2461C102.518 20.7525 101.852 20.0286 101.429 19.163C100.956 18.1804 100.722 17.1003 100.747 16.0106ZM102.978 16.0106C102.978 17.3172 103.262 18.3382 103.83 19.0737C104.399 19.8092 105.235 20.1769 106.341 20.1769C107.419 20.1769 108.25 19.8092 108.836 19.0737C109.421 18.3382 109.713 17.3172 109.711 16.0106C109.711 14.6926 109.422 13.6716 108.842 12.9474C108.263 12.2233 107.429 11.8612 106.341 11.8612C105.228 11.8612 104.392 12.2233 103.83 12.9474C103.269 13.6716 102.985 14.6926 102.978 16.0106Z" fill="#1D2248"/>
<path d="M119.59 21.9894C118.51 22.0206 117.441 21.77 116.488 21.2625C115.632 20.7837 114.938 20.0614 114.495 19.1878C114.013 18.2021 113.775 17.115 113.803 16.0184C113.775 14.9238 114.013 13.8387 114.495 12.8553C114.94 11.9835 115.633 11.2623 116.488 10.7828C117.443 10.2712 118.517 10.0184 119.601 10.0494C120.35 10.0393 121.096 10.1564 121.806 10.3959C122.441 10.6105 123.022 10.9585 123.511 11.4162L122.816 13.0977C122.369 12.7221 121.866 12.4187 121.325 12.1985C120.797 12.01 120.24 11.9185 119.68 11.9285C118.502 11.9285 117.602 12.2828 116.98 12.9914C116.358 13.6999 116.046 14.7075 116.045 16.0141C116.045 17.3207 116.356 18.3304 116.98 19.0432C117.604 19.756 118.503 20.1103 119.68 20.1061C120.24 20.1154 120.797 20.0232 121.325 19.834C121.869 19.6129 122.373 19.3041 122.816 18.9199L123.511 20.5992C123.017 21.0503 122.437 21.398 121.806 21.6217C121.095 21.8747 120.345 21.9992 119.59 21.9894Z" fill="#1D2248"/>
<path d="M126.114 21.82V10.2031H128.245V21.8137L126.114 21.82Z" fill="#1D2248"/>
<path d="M134.045 21.82V11.9547H130.194V10.2031H140.024V11.9483H136.175V21.8137L134.045 21.82Z" fill="#1D2248"/>
</svg>
