<svg xmlns="http://www.w3.org/2000/svg" id="Logos" viewBox="0 0 2504 532">
  <defs/>
  <path d="M919.408 216.186V23.747h84.236c21.156 0 37.517 4.999 49.082 14.998 11.565 9.999 17.36 23.917 17.383 41.755a56.273 56.273 0 0 1-7.792 30.278 50.108 50.108 0 0 1-22.214 19.293 62.286 62.286 0 0 1-8.991 3.521 35.613 35.613 0 0 1 8.462 4.154 42.934 42.934 0 0 1 14.774 18.272l28.208 60.309h-38.927l-28.42-62.492a20.78 20.78 0 0 0-11.636-12.569 52.716 52.716 0 0 0-18.723-2.993h-30.077v78.053l-35.366-.141Zm35.261-103.965h43.123c12.412 0 21.826-2.605 28.208-7.781a27.477 27.477 0 0 0 9.697-22.779A27.053 27.053 0 0 0 1026 59.023c-6.488-5.105-15.902-7.64-28.208-7.64h-43.088l-.035 60.837ZM1164.784 216.186v-80.799l-75.316-111.64h40.761l52.89 81.433 53.031-81.433h39.386l-75.492 111.957v80.482h-35.26ZM2393.072 216.186v-80.799l-75.457-111.64h40.725l52.89 81.433 53.384-81.433H2504l-75.457 111.887v80.482l-35.471.07ZM807.563 218.861a102.943 102.943 0 0 1-51.515-12.041 81.345 81.345 0 0 1-32.933-34.362 112.512 112.512 0 0 1-11.495-52.493 111.944 111.944 0 0 1 11.495-52.387 81.808 81.808 0 0 1 32.933-34.221 102.945 102.945 0 0 1 51.515-12.146 109.454 109.454 0 0 1 36.494 5.739 77.315 77.315 0 0 1 28.208 16.899L860.77 71.697a92.599 92.599 0 0 0-24.682-14.892 76.744 76.744 0 0 0-27.221-4.471c-19.511 0-34.402 5.868-44.675 17.603-10.272 11.736-15.421 28.423-15.444 50.064 0 21.64 5.148 38.363 15.444 50.169 10.296 11.806 25.188 17.674 44.675 17.603a76.738 76.738 0 0 0 27.221-4.506 88.692 88.692 0 0 0 24.682-15.139l11.495 27.813a82.587 82.587 0 0 1-28.208 16.934 105.216 105.216 0 0 1-36.494 5.985ZM1307.2 216.151V23.747h85.506c21.156 0 37.282 5.093 48.377 15.28 11.095 10.186 16.655 24.187 16.678 42.001 0 17.627-5.559 31.627-16.678 42.001-11.119 10.374-27.244 15.585-48.377 15.632h-50.246v77.454l-35.26.035Zm35.26-105.303h46.226c11.636 0 20.38-2.57 26.234-7.781 11.655-12.321 11.655-31.582 0-43.903-5.853-5.164-14.598-7.757-26.234-7.781h-46.226v59.464ZM1540.093 216.151V52.757h-63.68v-29.01h162.655v28.905h-63.715v163.394l-35.26.106ZM1654.089 119.861a116.023 116.023 0 0 1 11.072-52.387 80.677 80.677 0 0 1 31.734-34.221 106.239 106.239 0 0 1 98.728 0 82.119 82.119 0 0 1 32.122 34.221 112.517 112.517 0 0 1 11.354 52.106 113.777 113.777 0 0 1-11.354 52.493 82.64 82.64 0 0 1-32.122 34.502 104.863 104.863 0 0 1-98.517 0 82.072 82.072 0 0 1-31.734-34.502 114.455 114.455 0 0 1-11.283-52.211Zm36.917 0c0 21.64 4.701 38.551 14.104 50.733 9.403 12.181 23.248 18.272 41.537 18.272 17.842 0 31.605-6.091 41.29-18.272 9.685-12.182 14.516-29.092 14.492-50.733 0-21.828-4.795-38.739-14.386-50.733s-23.389-17.991-41.395-17.991c-18.406 0-32.251 5.997-41.537 17.991-9.285 11.994-13.987 28.905-14.104 50.733ZM1965.895 218.861a102.836 102.836 0 0 1-51.339-12.041 81.666 81.666 0 0 1-32.968-34.362 113.013 113.013 0 0 1-11.46-52.493 112.51 112.51 0 0 1 11.46-52.387 82.12 82.12 0 0 1 32.968-34.326 102.833 102.833 0 0 1 51.515-12.146 109.454 109.454 0 0 1 36.494 5.739 77.588 77.588 0 0 1 28.208 16.899l-11.495 27.848a92.599 92.599 0 0 0-24.682-14.892 76.744 76.744 0 0 0-27.221-4.471c-19.487 0-34.379 5.868-44.675 17.603-10.296 11.736-15.456 28.423-15.479 50.064 0 21.64 5.16 38.363 15.479 50.169 10.319 11.806 25.211 17.674 44.675 17.603a76.738 76.738 0 0 0 27.221-4.506 88.692 88.692 0 0 0 24.682-15.139l11.495 27.813a82.909 82.909 0 0 1-28.208 16.934 105.228 105.228 0 0 1-36.67 6.091ZM2073.861 216.151V23.747h35.26v192.298l-35.26.106ZM2205.1 216.151V52.757h-63.715v-29.01h162.655v28.905h-63.68v163.394l-35.26.106Z" class="cls-3"/>
  <path fill="#fc8805" d="M316.617 1.317h146.964c.117 53.024-42.838 96.103-95.942 96.22h-147c-.293-52.808 42.314-95.871 95.202-96.22h.776Z"/>
  <path fill="#d84133" d="M543.234 139.291c.388.81 73.271 126.744 73.271 126.744-45.782 26.675-104.554 11.242-131.27-34.471l-.039-.067-.494-.845c-.423-.775-73.271-126.744-73.271-126.744 46.102-26.59 105.064-10.829 131.694 35.203l.002.004.106.176Z"/>
  <path fill="#21bca5" d="M135.838 301.136c.388.81 73.271 126.744 73.271 126.744-45.822 26.673-104.623 11.211-131.344-34.538l-.494-.845C76.883 391.687 4 265.753 4 265.753c46.243-26.183 104.973-10.42 131.838 35.383Z"/>
  <path fill="#e9b213" d="M192.36 132.532c-.388.81-73.271 126.744-73.271 126.744-46.109-26.603-61.895-85.488-35.26-131.532C84.217 126.934 157.1 1 157.1 1c46.083 26.429 61.983 85.154 35.514 131.167l-.007.013-.247.352Z"/>
  <path d="M536.852 404.151c-.388.775-73.271 126.744-73.271 126.744-46.118-26.63-61.901-85.537-35.26-131.602.388-.81 73.271-126.744 73.271-126.744 46.084 26.588 61.868 85.436 35.26 131.461v.141Z" class="cls-3"/>
  <path fill="#0a85cb" d="M253.325 434.745h146.929c.117 52.989-42.768 96.061-95.837 96.255h-147.07c-.02-53.003 42.894-96.042 95.978-96.255Z"/>
  <path d="M1616.14 507.615H711.427c-13.247 0-23.386-11.767-21.398-24.834l30.395-199.731c1.606-10.553 10.699-18.351 21.398-18.351h904.5c13.238 0 23.375 11.752 21.401 24.811l-30.181 199.731c-1.596 10.563-10.694 18.374-21.401 18.374Z" class="cls-3"/>
  <text fill="#fff" font-family="Mulish-ExtraBoldItalic,Mulish" font-size="165.249" font-style="italic" font-weight="700" transform="translate(784.506 433.133)"><tspan x="0" y="0" class="cls-9">E</tspan><tspan x="100.637" y="0" letter-spacing="-.004em">x</tspan><tspan x="192.019" y="0" class="cls-9">change</tspan></text>
</svg>
