<svg width="27" height="24" viewBox="0 0 27 24" fill="none" xmlns="http://www.w3.org/2000/svg">
<path d="M25.8981 10.9034L20.4808 1.39667C20.0906 0.7166 19.376 0.300049 18.6032 0.300049H7.7685C7.38535 0.30185 7.00965 0.404452 6.68022 0.597243C6.35079 0.790033 6.0796 1.06601 5.89466 1.39667L0.477331 10.9034C0.287278 11.2387 0.1875 11.6163 0.1875 12.0003C0.1875 12.3844 0.287278 12.762 0.477331 13.0973L5.89466 22.6034C6.0796 22.934 6.35079 23.21 6.68022 23.4028C7.00965 23.5956 7.38535 23.6982 7.7685 23.7H18.6032C18.9863 23.6982 19.362 23.5956 19.6914 23.4028C20.0209 23.21 20.2921 22.934 20.477 22.6034L25.8943 13.0973C26.0858 12.7626 26.1868 12.385 26.1874 12.0008C26.1881 11.6166 26.0884 11.2387 25.8981 10.9034Z" fill="url(#paint0_radial_1057_1002)"/>
<defs>
<radialGradient id="paint0_radial_1057_1002" cx="0" cy="0" r="1" gradientUnits="userSpaceOnUse" gradientTransform="translate(26.1874 23.7) rotate(-180) scale(25.9999 23.3999)">
<stop stop-color="#EC991C"/>
<stop offset="1" stop-color="#E9B213"/>
</radialGradient>
</defs>
</svg>
