<svg width="138" height="40" viewBox="0 0 138 40" fill="none" xmlns="http://www.w3.org/2000/svg">
<rect x="-0.00292969" width="137.5" height="40" rx="20" fill="black"/>
<rect x="0.457374" y="0.460304" width="136.579" height="39.0794" rx="19.5397" stroke="white" stroke-opacity="0.2" stroke-width="0.920608"/>
<path d="M48.7817 13.4025C48.4806 13.5103 47.8858 13.688 47.185 13.688C46.3987 13.688 45.7495 13.4873 45.2413 13.0011C44.7947 12.5692 44.5166 11.875 44.5166 11.0647C44.524 9.51405 45.5884 8.37964 47.3324 8.37964C47.9336 8.37964 48.4042 8.51131 48.6279 8.61904L48.4659 9.16691C48.1878 9.04353 47.8406 8.94316 47.3167 8.94316C46.0516 8.94316 45.2256 9.72952 45.2256 11.0334C45.2256 12.3528 46.0202 13.1318 47.2311 13.1318C47.6712 13.1318 47.9723 13.0701 48.1261 12.9928V11.4422H47.0699V10.9017H48.7826V13.4016L48.7817 13.4025Z" fill="white" stroke="white" stroke-width="0.184122" stroke-miterlimit="10"/>
<path d="M52.6543 11.197H50.6332V13.0717H52.8854V13.6343H49.9619V8.43555H52.7694V8.99907H50.6332V10.6427H52.6543V11.1979V11.197Z" fill="white" stroke="white" stroke-width="0.184122" stroke-miterlimit="10"/>
<path d="M55.0204 9.00644H53.4385V8.43555H57.2883V9.00644H55.699V13.6343H55.0204V9.00644Z" fill="white" stroke="white" stroke-width="0.184122" stroke-miterlimit="10"/>
<path d="M60.4847 8.43555V13.6343H59.8135V8.43555H60.4847Z" fill="white" stroke="white" stroke-width="0.184122" stroke-miterlimit="10"/>
<path d="M62.8016 9.00619H61.2197V8.4353H65.0695V9.00619H63.4803V13.6341H62.8016V9.00619Z" fill="white" stroke="white" stroke-width="0.184122" stroke-miterlimit="10"/>
<path d="M72.0257 10.9804C72.0257 12.7695 70.9373 13.7188 69.6114 13.7188C68.2385 13.7188 67.2744 12.6544 67.2744 11.0816C67.2744 9.43067 68.3002 8.35059 69.6887 8.35059C71.1077 8.35059 72.0257 9.43804 72.0257 10.9804ZM67.9926 11.0651C67.9926 12.1765 68.5939 13.1709 69.6501 13.1709C70.7145 13.1709 71.3167 12.1921 71.3167 11.0117C71.3167 9.97762 70.7762 8.89846 69.6574 8.89846C68.5469 8.89846 67.9926 9.92422 67.9926 11.066V11.0651Z" fill="white" stroke="white" stroke-width="0.184122" stroke-miterlimit="10"/>
<path d="M73.0732 13.6343V8.43555H73.8062L75.4728 11.0662C75.8586 11.6758 76.1588 12.2228 76.4065 12.755L76.4222 12.7476C76.3605 12.0533 76.3448 11.4207 76.3448 10.6114V8.43555H76.9774V13.6343H76.2997L74.6487 10.9963C74.2859 10.418 73.9388 9.8241 73.6764 9.26057L73.6533 9.26886C73.692 9.92446 73.7077 10.5497 73.7077 11.4134V13.6352H73.0751L73.0732 13.6343Z" fill="white" stroke="white" stroke-width="0.184122" stroke-miterlimit="10"/>
<path d="M69.1685 21.6913C67.0033 21.6913 65.2385 23.3374 65.2385 25.6067C65.2385 27.8612 67.0033 29.522 69.1685 29.522C71.3338 29.522 73.0986 27.8612 73.0986 25.6067C73.0986 23.3374 71.3338 21.6913 69.1685 21.6913ZM69.1685 27.98C67.9819 27.98 66.9582 27.0014 66.9582 25.6067C66.9582 24.1972 67.9819 23.2333 69.1685 23.2333C70.3552 23.2333 71.378 24.1972 71.378 25.6067C71.378 27.0005 70.3543 27.98 69.1685 27.98ZM60.5949 21.6913C58.4296 21.6913 56.6648 23.3374 56.6648 25.6067C56.6648 27.8612 58.4296 29.522 60.5949 29.522C62.7602 29.522 64.525 27.8612 64.525 25.6067C64.525 23.3374 62.7602 21.6913 60.5949 21.6913ZM60.5949 27.98C59.4083 27.98 58.3845 27.0014 58.3845 25.6067C58.3845 24.1972 59.4083 23.2333 60.5949 23.2333C61.7816 23.2333 62.8044 24.1972 62.8044 25.6067C62.8044 27.0005 61.7807 27.98 60.5949 27.98ZM50.3955 22.8927V24.5535H54.3707C54.2519 25.4879 53.9408 26.1701 53.4657 26.6451C52.8876 27.2233 51.9826 27.8612 50.3955 27.8612C47.9485 27.8612 46.0355 25.8884 46.0355 23.4414C46.0355 20.9944 47.9485 19.0216 50.3955 19.0216C51.7157 19.0216 52.6795 19.5408 53.3912 20.2082L54.5631 19.0363C53.5698 18.0871 52.2496 17.3599 50.3955 17.3599C47.0436 17.3599 44.2256 20.0885 44.2256 23.4405C44.2256 26.7924 47.0436 29.5211 50.3955 29.5211C52.2045 29.5211 53.5698 28.9282 54.6377 27.8152C55.735 26.7178 56.0766 25.1749 56.0766 23.9293C56.0766 23.5436 56.0471 23.1873 55.9873 22.8909H50.3955V22.8927ZM92.1064 24.1834C91.7805 23.3079 90.7863 21.6913 88.7545 21.6913C86.7374 21.6913 85.0619 23.2785 85.0619 25.6067C85.0619 27.8014 86.7227 29.522 88.9478 29.522C90.7421 29.522 91.7805 28.4247 92.2104 27.7867L90.8755 26.8964C90.4309 27.5492 89.8224 27.9791 88.9478 27.9791C88.0732 27.9791 87.45 27.5786 87.0495 26.7924L92.285 24.6271L92.1073 24.1825L92.1064 24.1834ZM86.7669 25.4888C86.7227 23.9763 87.9388 23.2048 88.8134 23.2048C89.4956 23.2048 90.0737 23.5463 90.267 24.0352L86.7669 25.4888ZM82.51 29.2854H84.2306V17.776H82.51V29.2854ZM79.692 22.5668H79.6331C79.2473 22.1074 78.5063 21.6913 77.5718 21.6913C75.6137 21.6913 73.8195 23.4119 73.8195 25.6214C73.8195 27.8161 75.6137 29.522 77.5718 29.522C78.5063 29.522 79.2483 29.1068 79.6331 28.6318H79.692V29.1952C79.692 30.693 78.8911 31.494 77.6004 31.494C76.5472 31.494 75.8945 30.7372 75.6275 30.1002L74.1297 30.7234C74.5596 31.7619 75.7021 33.0369 77.6004 33.0369C79.6174 33.0369 81.3233 31.8502 81.3233 28.9586V21.9288H79.692V22.5668ZM77.7191 27.98C76.5325 27.98 75.5391 26.9867 75.5391 25.6214C75.5391 24.2423 76.5325 23.2333 77.7191 23.2333C78.8911 23.2333 79.8108 24.2423 79.8108 25.6214C79.8108 26.9857 78.8911 27.98 77.7191 27.98ZM100.164 17.776H96.0484V29.2845H97.7663V24.9245H100.164C102.068 24.9245 103.94 23.5463 103.94 21.3498C103.94 19.1532 102.068 17.7751 100.164 17.7751V17.776ZM100.209 23.3226H97.7654V19.3778H100.209C101.493 19.3778 102.222 20.4411 102.222 21.3507C102.222 22.2428 101.493 23.3226 100.209 23.3226ZM110.825 21.6701C109.581 21.6701 108.293 22.2179 107.76 23.4322L109.286 24.0693C109.612 23.4322 110.218 23.2251 110.855 23.2251C111.744 23.2251 112.647 23.7581 112.662 24.7054V24.8242C112.351 24.6465 111.684 24.3795 110.87 24.3795C109.227 24.3795 107.553 25.2826 107.553 26.971C107.553 28.5112 108.901 29.5027 110.411 29.5027C111.565 29.5027 112.202 28.9844 112.602 28.3777H112.661V29.2661H114.319V24.8536C114.319 22.8108 112.794 21.6701 110.825 21.6701ZM110.618 27.9772C110.055 27.9772 109.27 27.6955 109.27 27.0005C109.27 26.1121 110.247 25.7715 111.091 25.7715C111.846 25.7715 112.201 25.9344 112.661 26.1563C112.527 27.2223 111.609 27.9772 110.618 27.9772ZM120.361 21.9215L118.392 26.9112H118.333L116.29 21.9215H114.439L117.504 28.8951L115.757 32.7745H117.548L122.272 21.9215H120.362H120.361ZM104.888 29.2845H106.606V17.776H104.888V29.2845Z" fill="white"/>
<path d="M25.5371 19.5498L15.7354 29.9527C15.7354 29.9527 15.7363 29.9573 15.7372 29.9591C16.0382 31.0887 17.0693 31.92 18.2937 31.92C18.7826 31.92 19.2429 31.7874 19.6369 31.5555L19.6682 31.537L30.7008 25.171L25.5371 19.5498Z" fill="#EA4335"/>
<path d="M35.4424 17.7771L35.4332 17.7706L30.6699 15.0088L25.3037 19.784L30.6883 25.1677L35.4258 22.4344C36.2562 21.9861 36.8205 21.1106 36.8205 20.1007C36.8205 19.0972 36.2645 18.2263 35.4414 17.7761L35.4424 17.7771Z" fill="#FBBC04"/>
<path d="M15.7279 10.2087C15.669 10.426 15.6377 10.6543 15.6377 10.89V29.2727C15.6377 29.5084 15.6681 29.7367 15.7279 29.953L25.8666 19.8162L15.7279 10.2087Z" fill="#4285F4"/>
<path d="M25.6089 20.0802L30.6814 15.0086L19.6617 8.61958C19.2613 8.3793 18.7936 8.24121 18.2937 8.24121C17.0693 8.24121 16.0364 9.07436 15.7354 10.2058V10.2086L25.6098 20.0812L25.6089 20.0802Z" fill="#34A853"/>
</svg>
