<svg width="115" height="115" viewBox="0 0 115 115" fill="none" xmlns="http://www.w3.org/2000/svg">
<path d="M26.6515 3.53083C27.5302 3.53083 28.2425 2.81853 28.2425 1.93985C28.2425 1.06118 27.5302 0.348877 26.6515 0.348877C25.7729 0.348877 25.0605 1.06118 25.0605 1.93985C25.0605 2.81853 25.7729 3.53083 26.6515 3.53083Z" fill="black"/>
<path d="M43.6898 3.53083H40.5078V1.93985C40.5078 1.0383 41.1972 0.348877 42.0988 0.348877C43.0003 0.348877 43.6898 1.0383 43.6898 1.93985V3.53083Z" fill="black"/>
<path d="M49.8675 3.53083H46.6855V1.93985C46.6855 1.0383 47.375 0.348877 48.2765 0.348877H49.8675V3.53083Z" fill="black"/>
<path d="M51.3664 3.53083H49.7754V0.348877H51.3664C52.2679 0.348877 52.9573 1.0383 52.9573 1.93985C52.9573 2.84141 52.2679 3.53083 51.3664 3.53083Z" fill="black"/>
<path d="M59.1351 3.53083H55.9531V1.93985C55.9531 1.0383 56.6425 0.348877 57.5441 0.348877H59.1351V3.53083Z" fill="black"/>
<path d="M62.2249 0.348877H59.043V3.53083H62.2249V0.348877Z" fill="black"/>
<path d="M65.3148 3.53083H62.1328V0.348877H63.7238C64.6253 0.348877 65.3148 1.0383 65.3148 1.93985V3.53083Z" fill="black"/>
<path d="M72.9914 3.53083C73.87 3.53083 74.5823 2.81853 74.5823 1.93985C74.5823 1.06118 73.87 0.348877 72.9914 0.348877C72.1127 0.348877 71.4004 1.06118 71.4004 1.93985C71.4004 2.81853 72.1127 3.53083 72.9914 3.53083Z" fill="black"/>
<path d="M90.0296 3.53083H86.8477V1.93985C86.8477 1.0383 87.5371 0.348877 88.4386 0.348877C89.3402 0.348877 90.0296 1.0383 90.0296 1.93985V3.53083Z" fill="black"/>
<path d="M32.8312 6.61921C33.7099 6.61921 34.4222 5.90691 34.4222 5.02823C34.4222 4.14956 33.7099 3.43726 32.8312 3.43726C31.9525 3.43726 31.2402 4.14956 31.2402 5.02823C31.2402 5.90691 31.9525 6.61921 32.8312 6.61921Z" fill="black"/>
<path d="M40.5999 6.61921H39.0089C38.1074 6.61921 37.418 5.92979 37.418 5.02823C37.418 4.12668 38.1074 3.43726 39.0089 3.43726H40.5999V6.61921Z" fill="black"/>
<path d="M43.6878 3.43726H40.5059V6.61921H43.6878V3.43726Z" fill="black"/>
<path d="M46.7796 3.43726H43.5977V6.61921H46.7796V3.43726Z" fill="black"/>
<path d="M49.8675 3.43726H46.6855V6.61921H49.8675V3.43726Z" fill="black"/>
<path d="M59.1351 3.43726H55.9531V6.61921H59.1351V3.43726Z" fill="black"/>
<path d="M62.2249 3.43726H59.043V6.61921H62.2249V3.43726Z" fill="black"/>
<path d="M65.3128 3.43726H62.1309V6.61921H65.3128V3.43726Z" fill="black"/>
<path d="M68.4046 6.61921H65.2227V3.43726H66.8136C67.7152 3.43726 68.4046 4.12668 68.4046 5.02823V6.61921Z" fill="black"/>
<path d="M77.6722 6.61921H74.4902V5.02823C74.4902 4.12668 75.1797 3.43726 76.0812 3.43726C76.9828 3.43726 77.6722 4.12668 77.6722 5.02823V6.61921Z" fill="black"/>
<path d="M83.8499 6.61921H80.668V5.02823C80.668 4.12668 81.3574 3.43726 82.2589 3.43726H83.8499V6.61921Z" fill="black"/>
<path d="M86.9378 3.43726H83.7559V6.61921H86.9378V3.43726Z" fill="black"/>
<path d="M90.0296 3.43726H86.8477V6.61921H90.0296V3.43726Z" fill="black"/>
<path d="M31.3323 9.70893H28.1504V8.11796C28.1504 7.2164 28.8398 6.52698 29.7414 6.52698C30.6429 6.52698 31.3323 7.2164 31.3323 8.11796V9.70893Z" fill="black"/>
<path d="M37.512 9.70881H34.3301V8.11783C34.3301 7.21628 35.0195 6.52686 35.9211 6.52686C36.8226 6.52686 37.512 7.21628 37.512 8.11783V9.70881Z" fill="black"/>
<path d="M42.0968 9.70893C41.1953 9.70893 40.5059 9.01951 40.5059 8.11796V6.52698H43.6878V8.11796C43.6878 9.01951 42.9984 9.70893 42.0968 9.70893Z" fill="black"/>
<path d="M49.8675 6.52698H46.6855V9.70893H49.8675V6.52698Z" fill="black"/>
<path d="M59.1351 6.52698H55.9531V9.70893H59.1351V6.52698Z" fill="black"/>
<path d="M62.2249 6.52698H59.043V9.70893H62.2249V6.52698Z" fill="black"/>
<path d="M65.3128 6.52698H62.1309V9.70893H65.3128V6.52698Z" fill="black"/>
<path d="M68.4046 6.52698H65.2227V9.70893H68.4046V6.52698Z" fill="black"/>
<path d="M69.9015 9.70893H68.3105V6.52698H69.9015C70.8031 6.52698 71.4925 7.2164 71.4925 8.11796C71.4925 9.01951 70.8031 9.70893 69.9015 9.70893Z" fill="black"/>
<path d="M76.0812 9.70893C75.1797 9.70893 74.4902 9.01951 74.4902 8.11796V6.52698H77.6722V8.11796C77.6722 9.01951 76.9828 9.70893 76.0812 9.70893Z" fill="black"/>
<path d="M83.8499 6.52698H80.668V9.70893H83.8499V6.52698Z" fill="black"/>
<path d="M88.4386 9.70893C87.5371 9.70893 86.8477 9.01951 86.8477 8.11796V6.52698H90.0296V8.11796C90.0296 9.01951 89.3402 9.70893 88.4386 9.70893Z" fill="black"/>
<path d="M29.7414 12.7971C28.8398 12.7971 28.1504 12.1076 28.1504 11.2061V9.61511H31.3323V11.2061C31.3323 12.1076 30.6429 12.7971 29.7414 12.7971Z" fill="black"/>
<path d="M37.512 9.61511H34.3301V12.7971H37.512V9.61511Z" fill="black"/>
<path d="M46.7796 12.7971H45.1886C44.2871 12.7971 43.5977 12.1076 43.5977 11.2061C43.5977 10.3045 44.2871 9.61511 45.1886 9.61511H46.7796V12.7971Z" fill="black"/>
<path d="M49.8675 9.61511H46.6855V12.7971H49.8675V9.61511Z" fill="black"/>
<path d="M52.9573 9.61511H49.7754V12.7971H52.9573V9.61511Z" fill="black"/>
<path d="M56.0472 9.61511H52.8652V12.7971H56.0472V9.61511Z" fill="black"/>
<path d="M59.1351 9.61511H55.9531V12.7971H59.1351V9.61511Z" fill="black"/>
<path d="M62.2249 9.61511H59.043V12.7971H62.2249V9.61511Z" fill="black"/>
<path d="M80.7601 12.7971H77.5781V11.2061C77.5781 10.3045 78.2675 9.61511 79.1691 9.61511H80.7601V12.7971Z" fill="black"/>
<path d="M83.8499 9.61511H80.668V12.7971H83.8499V9.61511Z" fill="black"/>
<path d="M28.2425 15.8883H25.0605V14.2973C25.0605 13.3957 25.75 12.7063 26.6515 12.7063C27.5531 12.7063 28.2425 13.3957 28.2425 14.2973V15.8883Z" fill="black"/>
<path d="M34.4222 15.8883H32.8312C31.9297 15.8883 31.2402 15.1988 31.2402 14.2973C31.2402 13.3957 31.9297 12.7063 32.8312 12.7063H34.4222V15.8883Z" fill="black"/>
<path d="M35.9211 15.8883H34.3301V12.7063H37.512V14.2973C37.512 15.1988 36.8226 15.8883 35.9211 15.8883Z" fill="black"/>
<path d="M43.6898 15.8883H40.5078V14.2973C40.5078 13.3957 41.1972 12.7063 42.0988 12.7063C43.0003 12.7063 43.6898 13.3957 43.6898 14.2973V15.8883Z" fill="black"/>
<path d="M49.8675 12.7063H46.6855V15.8883H49.8675V12.7063Z" fill="black"/>
<path d="M62.2249 15.8883H60.6339C59.7324 15.8883 59.043 15.1988 59.043 14.2973V12.7063H62.2249V15.8883Z" fill="black"/>
<path d="M63.7238 15.8883H62.1328V12.7063H63.7238C64.6253 12.7063 65.3148 13.3957 65.3148 14.2973C65.3148 15.1988 64.6253 15.8883 63.7238 15.8883Z" fill="black"/>
<path d="M72.9914 15.8883C73.87 15.8883 74.5823 15.1759 74.5823 14.2973C74.5823 13.4186 73.87 12.7063 72.9914 12.7063C72.1127 12.7063 71.4004 13.4186 71.4004 14.2973C71.4004 15.1759 72.1127 15.8883 72.9914 15.8883Z" fill="black"/>
<path d="M80.7601 15.8883H79.1691C78.2675 15.8883 77.5781 15.1988 77.5781 14.2973V12.7063H80.7601V15.8883Z" fill="black"/>
<path d="M83.8499 12.7063H80.668V15.8883H83.8499V12.7063Z" fill="black"/>
<path d="M28.2425 15.7947H25.0605V18.9766H28.2425V15.7947Z" fill="black"/>
<path d="M40.5999 18.9766H37.418V17.3857C37.418 16.4841 38.1074 15.7947 39.0089 15.7947H40.5999V18.9766Z" fill="black"/>
<path d="M42.0968 18.9766H40.5059V15.7947H43.6878V17.3857C43.6878 18.2872 42.9984 18.9766 42.0968 18.9766Z" fill="black"/>
<path d="M48.2765 18.9766C47.375 18.9766 46.6855 18.2872 46.6855 17.3857V15.7947H49.8675V17.3857C49.8675 18.2872 49.1781 18.9766 48.2765 18.9766Z" fill="black"/>
<path d="M56.0472 18.9766H54.4562C53.5547 18.9766 52.8652 18.2872 52.8652 17.3857C52.8652 16.4841 53.5547 15.7947 54.4562 15.7947H56.0472V18.9766Z" fill="black"/>
<path d="M59.1351 18.9766H55.9531V15.7947H57.5441C58.4457 15.7947 59.1351 16.4841 59.1351 17.3857V18.9766Z" fill="black"/>
<path d="M71.4925 18.9766H68.3105V17.3857C68.3105 16.4841 69 15.7947 69.9015 15.7947C70.8031 15.7947 71.4925 16.4841 71.4925 17.3857V18.9766Z" fill="black"/>
<path d="M77.6722 18.9766H74.4902V17.3857C74.4902 16.4841 75.1797 15.7947 76.0812 15.7947C76.9828 15.7947 77.6722 16.4841 77.6722 17.3857V18.9766Z" fill="black"/>
<path d="M83.8499 15.7947H80.668V18.9766H83.8499V15.7947Z" fill="black"/>
<path d="M86.9378 15.7947H83.7559V18.9766H86.9378V15.7947Z" fill="black"/>
<path d="M90.0296 18.9766H86.8477V15.7947H88.4386C89.3402 15.7947 90.0296 16.4841 90.0296 17.3857V18.9766Z" fill="black"/>
<path d="M26.6515 22.0646C25.75 22.0646 25.0605 21.3752 25.0605 20.4737V18.8827H28.2425V20.4737C28.2425 21.3752 27.5531 22.0646 26.6515 22.0646Z" fill="black"/>
<path d="M32.8312 22.0646C33.7099 22.0646 34.4222 21.3523 34.4222 20.4737C34.4222 19.595 33.7099 18.8827 32.8312 18.8827C31.9525 18.8827 31.2402 19.595 31.2402 20.4737C31.2402 21.3523 31.9525 22.0646 32.8312 22.0646Z" fill="black"/>
<path d="M40.5999 18.8827H37.418V22.0646H40.5999V18.8827Z" fill="black"/>
<path d="M45.1886 22.0646C46.0673 22.0646 46.7796 21.3523 46.7796 20.4737C46.7796 19.595 46.0673 18.8827 45.1886 18.8827C44.31 18.8827 43.5977 19.595 43.5977 20.4737C43.5977 21.3523 44.31 22.0646 45.1886 22.0646Z" fill="black"/>
<path d="M51.3664 22.0646C52.245 22.0646 52.9573 21.3523 52.9573 20.4737C52.9573 19.595 52.245 18.8827 51.3664 18.8827C50.4877 18.8827 49.7754 19.595 49.7754 20.4737C49.7754 21.3523 50.4877 22.0646 51.3664 22.0646Z" fill="black"/>
<path d="M57.5441 22.0646C56.6425 22.0646 55.9531 21.3752 55.9531 20.4737V18.8827H59.1351V20.4737C59.1351 21.3752 58.4457 22.0646 57.5441 22.0646Z" fill="black"/>
<path d="M63.7218 22.0646C64.6005 22.0646 65.3128 21.3523 65.3128 20.4737C65.3128 19.595 64.6005 18.8827 63.7218 18.8827C62.8432 18.8827 62.1309 19.595 62.1309 20.4737C62.1309 21.3523 62.8432 22.0646 63.7218 22.0646Z" fill="black"/>
<path d="M71.4925 18.8827H68.3105V22.0646H71.4925V18.8827Z" fill="black"/>
<path d="M76.0812 22.0646C75.1797 22.0646 74.4902 21.3752 74.4902 20.4737V18.8827H77.6722V20.4737C77.6722 21.3752 76.9828 22.0646 76.0812 22.0646Z" fill="black"/>
<path d="M83.8499 18.8827H80.668V22.0646H83.8499V18.8827Z" fill="black"/>
<path d="M90.0296 18.8827H86.8477V22.0646H90.0296V18.8827Z" fill="black"/>
<path d="M37.512 25.156H35.9211C35.0195 25.156 34.3301 24.4665 34.3301 23.565C34.3301 22.6634 35.0195 21.974 35.9211 21.974H37.512V25.156Z" fill="black"/>
<path d="M40.5999 21.9741H37.418V25.1561H40.5999V21.9741Z" fill="black"/>
<path d="M42.0968 25.1561H40.5059V21.9741H42.0968C42.9984 21.9741 43.6878 22.6635 43.6878 23.5651C43.6878 24.4667 42.9984 25.1561 42.0968 25.1561Z" fill="black"/>
<path d="M60.6339 25.1561C61.5126 25.1561 62.2249 24.4438 62.2249 23.5651C62.2249 22.6864 61.5126 21.9741 60.6339 21.9741C59.7553 21.9741 59.043 22.6864 59.043 23.5651C59.043 24.4438 59.7553 25.1561 60.6339 25.1561Z" fill="black"/>
<path d="M68.4046 25.1561H66.8136C65.9121 25.1561 65.2227 24.4667 65.2227 23.5651C65.2227 22.6635 65.9121 21.9741 66.8136 21.9741H68.4046V25.1561Z" fill="black"/>
<path d="M71.4925 21.9741H68.3105V25.1561H71.4925V21.9741Z" fill="black"/>
<path d="M83.8499 21.9741H80.668V25.1561H83.8499V21.9741Z" fill="black"/>
<path d="M88.4386 25.1561C87.5371 25.1561 86.8477 24.4667 86.8477 23.5651V21.9741H90.0296V23.5651C90.0296 24.4667 89.3402 25.1561 88.4386 25.1561Z" fill="black"/>
<path d="M6.6175 28.2442H3.43555V26.6532C3.43555 25.7517 4.12497 25.0623 5.02652 25.0623H6.6175V28.2442Z" fill="black"/>
<path d="M9.70735 25.0623H6.52539V28.2442H9.70735V25.0623Z" fill="black"/>
<path d="M12.7952 25.0623H9.61328V28.2442H12.7952V25.0623Z" fill="black"/>
<path d="M15.887 25.0623H12.7051V28.2442H15.887V25.0623Z" fill="black"/>
<path d="M18.9749 25.0623H15.793V28.2442H18.9749V25.0623Z" fill="black"/>
<path d="M22.0628 25.0623H18.8809V28.2442H22.0628V25.0623Z" fill="black"/>
<path d="M25.1546 28.2442H21.9727V25.0623H23.5636C24.4652 25.0623 25.1546 25.7517 25.1546 26.6532V28.2442Z" fill="black"/>
<path d="M34.4222 28.2442H31.2402V26.6532C31.2402 25.7517 31.9297 25.0623 32.8312 25.0623C33.7328 25.0623 34.4222 25.7517 34.4222 26.6532V28.2442Z" fill="black"/>
<path d="M39.0089 28.2442C38.1074 28.2442 37.418 27.5548 37.418 26.6532V25.0623H40.5999V26.6532C40.5999 27.5548 39.9105 28.2442 39.0089 28.2442Z" fill="black"/>
<path d="M46.7796 28.2442H45.1886C44.2871 28.2442 43.5977 27.5548 43.5977 26.6532C43.5977 25.7517 44.2871 25.0623 45.1886 25.0623H46.7796V28.2442Z" fill="black"/>
<path d="M49.8675 25.0623H46.6855V28.2442H49.8675V25.0623Z" fill="black"/>
<path d="M51.3664 28.2442H49.7754V25.0623H51.3664C52.2679 25.0623 52.9573 25.7517 52.9573 26.6532C52.9573 27.5548 52.2679 28.2442 51.3664 28.2442Z" fill="black"/>
<path d="M57.5441 28.2442C58.4228 28.2442 59.1351 27.5319 59.1351 26.6532C59.1351 25.7746 58.4228 25.0623 57.5441 25.0623C56.6654 25.0623 55.9531 25.7746 55.9531 26.6532C55.9531 27.5319 56.6654 28.2442 57.5441 28.2442Z" fill="black"/>
<path d="M71.4925 25.0623H68.3105V28.2442H71.4925V25.0623Z" fill="black"/>
<path d="M74.5823 25.0623H71.4004V28.2442H74.5823V25.0623Z" fill="black"/>
<path d="M77.6722 25.0623H74.4902V28.2442H77.6722V25.0623Z" fill="black"/>
<path d="M80.7601 25.0623H77.5781V28.2442H80.7601V25.0623Z" fill="black"/>
<path d="M82.2589 28.2442H80.668V25.0623H83.8499V26.6532C83.8499 27.5548 83.1605 28.2442 82.2589 28.2442Z" fill="black"/>
<path d="M99.2972 28.2442H97.7062C96.8047 28.2442 96.1152 27.5548 96.1152 26.6532C96.1152 25.7517 96.8047 25.0623 97.7062 25.0623H99.2972V28.2442Z" fill="black"/>
<path d="M100.794 28.2442H99.2031V25.0623H100.794C101.696 25.0623 102.385 25.7517 102.385 26.6532C102.385 27.5548 101.696 28.2442 100.794 28.2442Z" fill="black"/>
<path d="M113.152 28.2442C114.03 28.2442 114.743 27.5319 114.743 26.6532C114.743 25.7746 114.03 25.0623 113.152 25.0623C112.273 25.0623 111.561 25.7746 111.561 26.6532C111.561 27.5319 112.273 28.2442 113.152 28.2442Z" fill="black"/>
<path d="M6.6175 31.3339H5.02652C4.12497 31.3339 3.43555 30.6445 3.43555 29.743V28.152H6.6175V31.3339Z" fill="black"/>
<path d="M8.11637 31.3339H6.52539V28.152H9.70735V29.743C9.70735 30.6445 9.01792 31.3339 8.11637 31.3339Z" fill="black"/>
<path d="M18.9749 28.152H15.793V31.3339H18.9749V28.152Z" fill="black"/>
<path d="M23.5636 31.3339C22.6621 31.3339 21.9727 30.6445 21.9727 29.743V28.152H25.1546V29.743C25.1546 30.6445 24.4652 31.3339 23.5636 31.3339Z" fill="black"/>
<path d="M31.3323 31.3339H28.1504V29.743C28.1504 28.8414 28.8398 28.152 29.7414 28.152H31.3323V31.3339Z" fill="black"/>
<path d="M32.8312 31.3339H31.2402V28.152H34.4222V29.743C34.4222 30.6445 33.7328 31.3339 32.8312 31.3339Z" fill="black"/>
<path d="M49.8675 28.152H46.6855V31.3339H49.8675V28.152Z" fill="black"/>
<path d="M56.0472 31.3339H52.8652V29.743C52.8652 28.8414 53.5547 28.152 54.4562 28.152C55.3578 28.152 56.0472 28.8414 56.0472 29.743V31.3339Z" fill="black"/>
<path d="M62.2249 31.3339H59.043V29.743C59.043 28.8414 59.7324 28.152 60.6339 28.152C61.5355 28.152 62.2249 28.8414 62.2249 29.743V31.3339Z" fill="black"/>
<path d="M68.4046 31.3339H66.8136C65.9121 31.3339 65.2227 30.6445 65.2227 29.743C65.2227 28.8414 65.9121 28.152 66.8136 28.152H68.4046V31.3339Z" fill="black"/>
<path d="M71.4925 28.152H68.3105V31.3339H71.4925V28.152Z" fill="black"/>
<path d="M72.9914 31.3339H71.4004V28.152H74.5823V29.743C74.5823 30.6445 73.8929 31.3339 72.9914 31.3339Z" fill="black"/>
<path d="M80.7601 28.152H77.5781V31.3339H80.7601V28.152Z" fill="black"/>
<path d="M90.0296 31.3339H86.8477V29.743C86.8477 28.8414 87.5371 28.152 88.4386 28.152C89.3402 28.152 90.0296 28.8414 90.0296 29.743V31.3339Z" fill="black"/>
<path d="M106.974 31.3339C107.852 31.3339 108.565 30.6216 108.565 29.743C108.565 28.8643 107.852 28.152 106.974 28.152C106.095 28.152 105.383 28.8643 105.383 29.743C105.383 30.6216 106.095 31.3339 106.974 31.3339Z" fill="black"/>
<path d="M18.9749 34.4238H17.3839C16.4824 34.4238 15.793 33.7344 15.793 32.8328V31.2418H18.9749V34.4238Z" fill="black"/>
<path d="M20.4718 34.4238H18.8809V31.2418H20.4718C21.3734 31.2418 22.0628 31.9312 22.0628 32.8328C22.0628 33.7344 21.3734 34.4238 20.4718 34.4238Z" fill="black"/>
<path d="M31.3323 31.2418H28.1504V34.4238H31.3323V31.2418Z" fill="black"/>
<path d="M37.512 34.4235H34.3301V32.8326C34.3301 31.931 35.0195 31.2416 35.9211 31.2416C36.8226 31.2416 37.512 31.931 37.512 32.8326V34.4235Z" fill="black"/>
<path d="M46.7796 34.4238H45.1886C44.2871 34.4238 43.5977 33.7344 43.5977 32.8328C43.5977 31.9312 44.2871 31.2418 45.1886 31.2418H46.7796V34.4238Z" fill="black"/>
<path d="M49.8675 31.2418H46.6855V34.4238H49.8675V31.2418Z" fill="black"/>
<path d="M52.9573 31.2418H49.7754V34.4238H52.9573V31.2418Z" fill="black"/>
<path d="M56.0472 31.2418H52.8652V34.4238H56.0472V31.2418Z" fill="black"/>
<path d="M60.6339 34.4238C59.7324 34.4238 59.043 33.7344 59.043 32.8328V31.2418H62.2249V32.8328C62.2249 33.7344 61.5355 34.4238 60.6339 34.4238Z" fill="black"/>
<path d="M77.6722 34.4238H76.0812C75.1797 34.4238 74.4902 33.7344 74.4902 32.8328C74.4902 31.9312 75.1797 31.2418 76.0812 31.2418H77.6722V34.4238Z" fill="black"/>
<path d="M80.7601 31.2418H77.5781V34.4238H80.7601V31.2418Z" fill="black"/>
<path d="M83.8499 31.2418H80.668V34.4238H83.8499V31.2418Z" fill="black"/>
<path d="M86.9378 31.2418H83.7559V34.4238H86.9378V31.2418Z" fill="black"/>
<path d="M88.4386 34.4238H86.8477V31.2418H90.0296V32.8328C90.0296 33.7344 89.3402 34.4238 88.4386 34.4238Z" fill="black"/>
<path d="M96.2073 34.4238H93.0254V32.8328C93.0254 31.9312 93.7148 31.2418 94.6164 31.2418H96.2073V34.4238Z" fill="black"/>
<path d="M99.2972 34.4238H96.1152V31.2418H97.7062C98.6078 31.2418 99.2972 31.9312 99.2972 32.8328V34.4238Z" fill="black"/>
<path d="M111.655 34.4238H108.473V32.8328C108.473 31.9312 109.162 31.2418 110.064 31.2418H111.655V34.4238Z" fill="black"/>
<path d="M113.152 34.4238H111.561V31.2418H113.152C114.053 31.2418 114.743 31.9312 114.743 32.8328C114.743 33.7344 114.053 34.4238 113.152 34.4238Z" fill="black"/>
<path d="M1.93863 37.5133C2.81731 37.5133 3.52961 36.8009 3.52961 35.9223C3.52961 35.0436 2.81731 34.3313 1.93863 34.3313C1.05996 34.3313 0.347656 35.0436 0.347656 35.9223C0.347656 36.8009 1.05996 37.5133 1.93863 37.5133Z" fill="black"/>
<path d="M9.70735 37.5133H8.11637C7.21481 37.5133 6.52539 36.8238 6.52539 35.9223C6.52539 35.0207 7.21481 34.3313 8.11637 34.3313H9.70735V37.5133Z" fill="black"/>
<path d="M12.7952 34.3313H9.61328V37.5133H12.7952V34.3313Z" fill="black"/>
<path d="M14.2961 37.5133H12.7051V34.3313H14.2961C15.1976 34.3313 15.887 35.0207 15.887 35.9223C15.887 36.8238 15.1976 37.5133 14.2961 37.5133Z" fill="black"/>
<path d="M28.2425 37.5133H25.0605V35.9223C25.0605 35.0207 25.75 34.3313 26.6515 34.3313H28.2425V37.5133Z" fill="black"/>
<path d="M31.3323 34.3313H28.1504V37.5133H31.3323V34.3313Z" fill="black"/>
<path d="M34.4222 34.3313H31.2402V37.5133H34.4222V34.3313Z" fill="black"/>
<path d="M37.512 34.3313H34.3301V37.5133H37.512V34.3313Z" fill="black"/>
<path d="M40.5999 37.5133H37.418V34.3313H39.0089C39.9105 34.3313 40.5999 35.0207 40.5999 35.9223V37.5133Z" fill="black"/>
<path d="M56.0472 34.3313H52.8652V37.5133H56.0472V34.3313Z" fill="black"/>
<path d="M59.1351 37.5133H55.9531V34.3313H57.5441C58.4457 34.3313 59.1351 35.0207 59.1351 35.9223V37.5133Z" fill="black"/>
<path d="M65.3148 37.5133H62.1328V35.9223C62.1328 35.0207 62.8222 34.3313 63.7238 34.3313H65.3148V37.5133Z" fill="black"/>
<path d="M68.4046 34.3313H65.2227V37.5133H68.4046V34.3313Z" fill="black"/>
<path d="M69.9015 37.5133H68.3105V34.3313H69.9015C70.8031 34.3313 71.4925 35.0207 71.4925 35.9223C71.4925 36.8238 70.8031 37.5133 69.9015 37.5133Z" fill="black"/>
<path d="M83.8499 34.3313H80.668V37.5133H83.8499V34.3313Z" fill="black"/>
<path d="M85.3488 37.5133H83.7578V34.3313H86.9398V35.9223C86.9398 36.8238 86.2503 37.5133 85.3488 37.5133Z" fill="black"/>
<path d="M96.2073 34.3313H93.0254V37.5133H96.2073V34.3313Z" fill="black"/>
<path d="M99.2972 34.3313H96.1152V37.5133H99.2972V34.3313Z" fill="black"/>
<path d="M102.385 37.5133H99.2031V34.3313H100.794C101.696 34.3313 102.385 35.0207 102.385 35.9223V37.5133Z" fill="black"/>
<path d="M111.655 34.3313H108.473V37.5133H111.655V34.3313Z" fill="black"/>
<path d="M22.0628 40.6016H20.4718C19.5703 40.6016 18.8809 39.9122 18.8809 39.0107C18.8809 38.1091 19.5703 37.4197 20.4718 37.4197H22.0628V40.6016Z" fill="black"/>
<path d="M25.1546 37.4197H21.9727V40.6016H25.1546V37.4197Z" fill="black"/>
<path d="M28.2425 37.4197H25.0605V40.6016H28.2425V37.4197Z" fill="black"/>
<path d="M31.3323 37.4197H28.1504V40.6016H31.3323V37.4197Z" fill="black"/>
<path d="M34.4222 37.4197H31.2402V40.6016H34.4222V37.4197Z" fill="black"/>
<path d="M37.512 37.4196H34.3301V40.6015H37.512V37.4196Z" fill="black"/>
<path d="M40.5999 37.4197H37.418V40.6016H40.5999V37.4197Z" fill="black"/>
<path d="M45.1886 40.6016C46.0673 40.6016 46.7796 39.8893 46.7796 39.0107C46.7796 38.132 46.0673 37.4197 45.1886 37.4197C44.31 37.4197 43.5977 38.132 43.5977 39.0107C43.5977 39.8893 44.31 40.6016 45.1886 40.6016Z" fill="black"/>
<path d="M52.9573 40.6016H49.7754V39.0107C49.7754 38.1091 50.4648 37.4197 51.3664 37.4197H52.9573V40.6016Z" fill="black"/>
<path d="M56.0472 37.4197H52.8652V40.6016H56.0472V37.4197Z" fill="black"/>
<path d="M59.1351 37.4197H55.9531V40.6016H59.1351V37.4197Z" fill="black"/>
<path d="M62.2249 37.4197H59.043V40.6016H62.2249V37.4197Z" fill="black"/>
<path d="M65.3128 37.4197H62.1309V40.6016H65.3128V37.4197Z" fill="black"/>
<path d="M80.7601 40.6016H77.5781V39.0107C77.5781 38.1091 78.2675 37.4197 79.1691 37.4197H80.7601V40.6016Z" fill="black"/>
<path d="M83.8499 37.4197H80.668V40.6016H83.8499V37.4197Z" fill="black"/>
<path d="M93.1175 40.6016H89.9355V39.0107C89.9355 38.1091 90.625 37.4197 91.5265 37.4197H93.1175V40.6016Z" fill="black"/>
<path d="M96.2073 37.4197H93.0254V40.6016H96.2073V37.4197Z" fill="black"/>
<path d="M99.2972 37.4197H96.1152V40.6016H99.2972V37.4197Z" fill="black"/>
<path d="M102.385 37.4197H99.2031V40.6016H102.385V37.4197Z" fill="black"/>
<path d="M105.475 37.4197H102.293V40.6016H105.475V37.4197Z" fill="black"/>
<path d="M108.565 37.4197H105.383V40.6016H108.565V37.4197Z" fill="black"/>
<path d="M110.064 40.6016H108.473V37.4197H111.655V39.0107C111.655 39.9122 110.965 40.6016 110.064 40.6016Z" fill="black"/>
<path d="M3.52961 43.6899H0.347656V42.0989C0.347656 41.1974 1.03708 40.5079 1.93863 40.5079C2.84019 40.5079 3.52961 41.1974 3.52961 42.0989V43.6899Z" fill="black"/>
<path d="M25.1546 43.6896H23.5636C22.6621 43.6896 21.9727 43.0002 21.9727 42.0987V40.5077H25.1546V43.6896Z" fill="black"/>
<path d="M28.2425 40.5077H25.0605V43.6896H28.2425V40.5077Z" fill="black"/>
<path d="M31.3323 40.5077H28.1504V43.6896H31.3323V40.5077Z" fill="black"/>
<path d="M40.5999 40.5077H37.418V43.6896H40.5999V40.5077Z" fill="black"/>
<path d="M42.0968 43.6896H40.5059V40.5077H42.0968C42.9984 40.5077 43.6878 41.1971 43.6878 42.0987C43.6878 43.0002 42.9984 43.6896 42.0968 43.6896Z" fill="black"/>
<path d="M52.9573 43.6896H51.3664C50.4648 43.6896 49.7754 43.0002 49.7754 42.0987V40.5077H52.9573V43.6896Z" fill="black"/>
<path d="M54.4562 43.6896H52.8652V40.5077H56.0472V42.0987C56.0472 43.0002 55.3578 43.6896 54.4562 43.6896Z" fill="black"/>
<path d="M62.2249 43.6896H60.6339C59.7324 43.6896 59.043 43.0002 59.043 42.0987V40.5077H62.2249V43.6896Z" fill="black"/>
<path d="M65.3128 40.5077H62.1309V43.6896H65.3128V40.5077Z" fill="black"/>
<path d="M68.4046 40.5077H65.2227V43.6896H68.4046V40.5077Z" fill="black"/>
<path d="M71.4925 40.5077H68.3105V43.6896H71.4925V40.5077Z" fill="black"/>
<path d="M72.9914 43.6896H71.4004V40.5077H72.9914C73.8929 40.5077 74.5823 41.1971 74.5823 42.0987C74.5823 43.0002 73.8929 43.6896 72.9914 43.6896Z" fill="black"/>
<path d="M80.7601 43.6896H79.1691C78.2675 43.6896 77.5781 43.0002 77.5781 42.0987V40.5077H80.7601V43.6896Z" fill="black"/>
<path d="M83.8499 40.5077H80.668V43.6896H83.8499V40.5077Z" fill="black"/>
<path d="M90.0296 43.6896H88.4386C87.5371 43.6896 86.8477 43.0002 86.8477 42.0987C86.8477 41.1971 87.5371 40.5077 88.4386 40.5077H90.0296V43.6896Z" fill="black"/>
<path d="M93.1175 40.5077H89.9355V43.6896H93.1175V40.5077Z" fill="black"/>
<path d="M97.7062 43.6896C96.8047 43.6896 96.1152 43.0002 96.1152 42.0987V40.5077H99.2972V42.0987C99.2972 43.0002 98.6078 43.6896 97.7062 43.6896Z" fill="black"/>
<path d="M105.475 40.5077H102.293V43.6896H105.475V40.5077Z" fill="black"/>
<path d="M106.974 43.6896H105.383V40.5077H108.565V42.0987C108.565 43.0002 107.875 43.6896 106.974 43.6896Z" fill="black"/>
<path d="M3.52961 43.599H0.347656V46.781H3.52961V43.599Z" fill="black"/>
<path d="M6.6175 46.7812H3.43555V43.5992H5.02652C5.92808 43.5992 6.6175 44.2887 6.6175 45.1902V46.7812Z" fill="black"/>
<path d="M20.4718 46.7812C21.3505 46.7812 22.0628 46.0689 22.0628 45.1902C22.0628 44.3115 21.3505 43.5992 20.4718 43.5992C19.5932 43.5992 18.8809 44.3115 18.8809 45.1902C18.8809 46.0689 19.5932 46.7812 20.4718 46.7812Z" fill="black"/>
<path d="M28.2425 46.7812H26.6515C25.75 46.7812 25.0605 46.0918 25.0605 45.1902V43.5992H28.2425V46.7812Z" fill="black"/>
<path d="M31.3323 43.5992H28.1504V46.7812H31.3323V43.5992Z" fill="black"/>
<path d="M40.5999 43.5992H37.418V46.7812H40.5999V43.5992Z" fill="black"/>
<path d="M45.1886 46.7812C46.0673 46.7812 46.7796 46.0689 46.7796 45.1902C46.7796 44.3115 46.0673 43.5992 45.1886 43.5992C44.31 43.5992 43.5977 44.3115 43.5977 45.1902C43.5977 46.0689 44.31 46.7812 45.1886 46.7812Z" fill="black"/>
<path d="M59.1351 46.7812H55.9531V45.1902C55.9531 44.2887 56.6425 43.5992 57.5441 43.5992C58.4457 43.5992 59.1351 44.2887 59.1351 45.1902V46.7812Z" fill="black"/>
<path d="M68.4046 43.5992H65.2227V46.7812H68.4046V43.5992Z" fill="black"/>
<path d="M83.8499 43.5992H80.668V46.7812H83.8499V43.5992Z" fill="black"/>
<path d="M86.9378 46.7812H83.7559V43.5992H85.3468C86.2484 43.5992 86.9378 44.2887 86.9378 45.1902V46.7812Z" fill="black"/>
<path d="M93.1175 43.5992H89.9355V46.7812H93.1175V43.5992Z" fill="black"/>
<path d="M96.2073 46.7812H93.0254V43.5992H94.6164C95.5179 43.5992 96.2073 44.2887 96.2073 45.1902V46.7812Z" fill="black"/>
<path d="M103.884 46.7812C102.982 46.7812 102.293 46.0918 102.293 45.1902V43.5992H105.475V45.1902C105.475 46.0918 104.786 46.7812 103.884 46.7812Z" fill="black"/>
<path d="M111.655 46.7812H108.473V45.1902C108.473 44.2887 109.162 43.5992 110.064 43.5992H111.655V46.7812Z" fill="black"/>
<path d="M113.152 46.7812H111.561V43.5992H113.152C114.053 43.5992 114.743 44.2887 114.743 45.1902C114.743 46.0918 114.053 46.7812 113.152 46.7812Z" fill="black"/>
<path d="M3.52961 49.8692H1.93863C1.03708 49.8692 0.347656 49.1798 0.347656 48.2782V46.6873H3.52961V49.8692Z" fill="black"/>
<path d="M6.6175 46.6873H3.43555V49.8692H6.6175V46.6873Z" fill="black"/>
<path d="M8.11637 49.8692H6.52539V46.6873H8.11637C9.01792 46.6873 9.70735 47.3767 9.70735 48.2782C9.70735 49.1798 9.01792 49.8692 8.11637 49.8692Z" fill="black"/>
<path d="M15.887 49.8692H12.7051V48.2782C12.7051 47.3767 13.3945 46.6873 14.2961 46.6873C15.1976 46.6873 15.887 47.3767 15.887 48.2782V49.8692Z" fill="black"/>
<path d="M23.5636 49.8692C24.4423 49.8692 25.1546 49.1569 25.1546 48.2782C25.1546 47.3996 24.4423 46.6873 23.5636 46.6873C22.685 46.6873 21.9727 47.3996 21.9727 48.2782C21.9727 49.1569 22.685 49.8692 23.5636 49.8692Z" fill="black"/>
<path d="M31.3323 46.6873H28.1504V49.8692H31.3323V46.6873Z" fill="black"/>
<path d="M37.512 49.8692H35.9211C35.0195 49.8692 34.3301 49.1798 34.3301 48.2782C34.3301 47.3767 35.0195 46.6873 35.9211 46.6873H37.512V49.8692Z" fill="black"/>
<path d="M40.5999 46.6873H37.418V49.8692H40.5999V46.6873Z" fill="black"/>
<path d="M43.6878 49.8692H40.5059V46.6873H42.0968C42.9984 46.6873 43.6878 47.3767 43.6878 48.2782V49.8692Z" fill="black"/>
<path d="M49.8675 49.8692H46.6855V48.2782C46.6855 47.3767 47.375 46.6873 48.2765 46.6873C49.1781 46.6873 49.8675 47.3767 49.8675 48.2782V49.8692Z" fill="black"/>
<path d="M56.0472 49.8692H52.8652V48.2782C52.8652 47.3767 53.5547 46.6873 54.4562 46.6873H56.0472V49.8692Z" fill="black"/>
<path d="M59.1351 46.6873H55.9531V49.8692H59.1351V46.6873Z" fill="black"/>
<path d="M62.2249 49.8692H59.043V46.6873H60.6339C61.5355 46.6873 62.2249 47.3767 62.2249 48.2782V49.8692Z" fill="black"/>
<path d="M68.4046 49.8692H66.8136C65.9121 49.8692 65.2227 49.1798 65.2227 48.2782V46.6873H68.4046V49.8692Z" fill="black"/>
<path d="M71.4925 49.8692H68.3105V46.6873H69.9015C70.8031 46.6873 71.4925 47.3767 71.4925 48.2782V49.8692Z" fill="black"/>
<path d="M76.0812 49.8692C76.9599 49.8692 77.6722 49.1569 77.6722 48.2782C77.6722 47.3996 76.9599 46.6873 76.0812 46.6873C75.2025 46.6873 74.4902 47.3996 74.4902 48.2782C74.4902 49.1569 75.2025 49.8692 76.0812 49.8692Z" fill="black"/>
<path d="M83.8499 49.8692H82.2589C81.3574 49.8692 80.668 49.1798 80.668 48.2782V46.6873H83.8499V49.8692Z" fill="black"/>
<path d="M86.9378 46.6873H83.7559V49.8692H86.9378V46.6873Z" fill="black"/>
<path d="M90.0296 46.6873H86.8477V49.8692H90.0296V46.6873Z" fill="black"/>
<path d="M93.1175 46.6873H89.9355V49.8692H93.1175V46.6873Z" fill="black"/>
<path d="M96.2073 46.6873H93.0254V49.8692H96.2073V46.6873Z" fill="black"/>
<path d="M111.655 46.6873H108.473V49.8692H111.655V46.6873Z" fill="black"/>
<path d="M12.7952 52.9591H11.2043C10.3027 52.9591 9.61328 52.2696 9.61328 51.3681C9.61328 50.4665 10.3027 49.7771 11.2043 49.7771H12.7952V52.9591Z" fill="black"/>
<path d="M14.2961 52.9589H12.7051V49.777H15.887V51.368C15.887 52.2695 15.1976 52.9589 14.2961 52.9589Z" fill="black"/>
<path d="M20.4718 52.9591C21.3505 52.9591 22.0628 52.2468 22.0628 51.3681C22.0628 50.4894 21.3505 49.7771 20.4718 49.7771C19.5932 49.7771 18.8809 50.4894 18.8809 51.3681C18.8809 52.2468 19.5932 52.9591 20.4718 52.9591Z" fill="black"/>
<path d="M31.3323 49.7771H28.1504V52.9591H31.3323V49.7771Z" fill="black"/>
<path d="M40.5999 52.9591H39.0089C38.1074 52.9591 37.418 52.2696 37.418 51.3681V49.7771H40.5999V52.9591Z" fill="black"/>
<path d="M43.6878 49.7771H40.5059V52.9591H43.6878V49.7771Z" fill="black"/>
<path d="M46.7796 49.7771H43.5977V52.9591H46.7796V49.7771Z" fill="black"/>
<path d="M49.8675 49.7771H46.6855V52.9591H49.8675V49.7771Z" fill="black"/>
<path d="M56.0472 52.9591H54.4562C53.5547 52.9591 52.8652 52.2696 52.8652 51.3681V49.7771H56.0472V52.9591Z" fill="black"/>
<path d="M59.1351 49.7771H55.9531V52.9591H59.1351V49.7771Z" fill="black"/>
<path d="M62.2249 49.7771H59.043V52.9591H62.2249V49.7771Z" fill="black"/>
<path d="M71.4925 49.7771H68.3105V52.9591H71.4925V49.7771Z" fill="black"/>
<path d="M79.1691 52.9591C80.0478 52.9591 80.7601 52.2468 80.7601 51.3681C80.7601 50.4894 80.0478 49.7771 79.1691 49.7771C78.2904 49.7771 77.5781 50.4894 77.5781 51.3681C77.5781 52.2468 78.2904 52.9591 79.1691 52.9591Z" fill="black"/>
<path d="M85.3468 52.9591C84.4453 52.9591 83.7559 52.2696 83.7559 51.3681V49.7771H86.9378V51.3681C86.9378 52.2696 86.2484 52.9591 85.3468 52.9591Z" fill="black"/>
<path d="M94.6164 52.9591C93.7148 52.9591 93.0254 52.2696 93.0254 51.3681V49.7771H96.2073V51.3681C96.2073 52.2696 95.5179 52.9591 94.6164 52.9591Z" fill="black"/>
<path d="M100.794 52.9591C101.673 52.9591 102.385 52.2468 102.385 51.3681C102.385 50.4894 101.673 49.7771 100.794 49.7771C99.9154 49.7771 99.2031 50.4894 99.2031 51.3681C99.2031 52.2468 99.9154 52.9591 100.794 52.9591Z" fill="black"/>
<path d="M108.565 52.9591H105.383V51.3681C105.383 50.4665 106.072 49.7771 106.974 49.7771H108.565V52.9591Z" fill="black"/>
<path d="M110.064 52.9591H108.473V49.7771H111.655V51.3681C111.655 52.2696 110.965 52.9591 110.064 52.9591Z" fill="black"/>
<path d="M1.93863 56.0487C2.81731 56.0487 3.52961 55.3363 3.52961 54.4577C3.52961 53.579 2.81731 52.8667 1.93863 52.8667C1.05996 52.8667 0.347656 53.579 0.347656 54.4577C0.347656 55.3363 1.05996 56.0487 1.93863 56.0487Z" fill="black"/>
<path d="M8.11637 56.0488C8.99504 56.0488 9.70735 55.3365 9.70735 54.4578C9.70735 53.5791 8.99504 52.8668 8.11637 52.8668C7.2377 52.8668 6.52539 53.5791 6.52539 54.4578C6.52539 55.3365 7.2377 56.0488 8.11637 56.0488Z" fill="black"/>
<path d="M17.3839 56.0488C18.2626 56.0488 18.9749 55.3365 18.9749 54.4578C18.9749 53.5791 18.2626 52.8668 17.3839 52.8668C16.5053 52.8668 15.793 53.5791 15.793 54.4578C15.793 55.3365 16.5053 56.0488 17.3839 56.0488Z" fill="black"/>
<path d="M31.3323 52.8668H28.1504V56.0488H31.3323V52.8668Z" fill="black"/>
<path d="M35.9211 56.0487C36.7997 56.0487 37.512 55.3363 37.512 54.4577C37.512 53.579 36.7997 52.8667 35.9211 52.8667C35.0424 52.8667 34.3301 53.579 34.3301 54.4577C34.3301 55.3363 35.0424 56.0487 35.9211 56.0487Z" fill="black"/>
<path d="M43.6878 52.8668H40.5059V56.0488H43.6878V52.8668Z" fill="black"/>
<path d="M49.8675 56.0488H48.2765C47.375 56.0488 46.6855 55.3594 46.6855 54.4578V52.8668H49.8675V56.0488Z" fill="black"/>
<path d="M51.3664 56.0488H49.7754V52.8668H51.3664C52.2679 52.8668 52.9573 53.5562 52.9573 54.4578C52.9573 55.3594 52.2679 56.0488 51.3664 56.0488Z" fill="black"/>
<path d="M62.2249 52.8668H59.043V56.0488H62.2249V52.8668Z" fill="black"/>
<path d="M71.4925 52.8668H68.3105V56.0488H71.4925V52.8668Z" fill="black"/>
<path d="M72.9914 56.0488H71.4004V52.8668H72.9914C73.8929 52.8668 74.5823 53.5562 74.5823 54.4578C74.5823 55.3594 73.8929 56.0488 72.9914 56.0488Z" fill="black"/>
<path d="M90.0296 56.0488H86.8477V54.4578C86.8477 53.5562 87.5371 52.8668 88.4386 52.8668C89.3402 52.8668 90.0296 53.5562 90.0296 54.4578V56.0488Z" fill="black"/>
<path d="M97.7062 56.0488C98.5849 56.0488 99.2972 55.3365 99.2972 54.4578C99.2972 53.5791 98.5849 52.8668 97.7062 52.8668C96.8275 52.8668 96.1152 53.5791 96.1152 54.4578C96.1152 55.3365 96.8275 56.0488 97.7062 56.0488Z" fill="black"/>
<path d="M108.565 52.8668H105.383V56.0488H108.565V52.8668Z" fill="black"/>
<path d="M5.02652 59.1369C5.9052 59.1369 6.6175 58.4246 6.6175 57.5459C6.6175 56.6673 5.9052 55.955 5.02652 55.955C4.14785 55.955 3.43555 56.6673 3.43555 57.5459C3.43555 58.4246 4.14785 59.1369 5.02652 59.1369Z" fill="black"/>
<path d="M11.2043 59.1369C12.0829 59.1369 12.7952 58.4246 12.7952 57.5459C12.7952 56.6673 12.0829 55.955 11.2043 55.955C10.3256 55.955 9.61328 56.6673 9.61328 57.5459C9.61328 58.4246 10.3256 59.1369 11.2043 59.1369Z" fill="black"/>
<path d="M22.0628 59.1369H20.4718C19.5703 59.1369 18.8809 58.4475 18.8809 57.5459C18.8809 56.6444 19.5703 55.955 20.4718 55.955H22.0628V59.1369Z" fill="black"/>
<path d="M25.1546 55.955H21.9727V59.1369H25.1546V55.955Z" fill="black"/>
<path d="M28.2425 55.955H25.0605V59.1369H28.2425V55.955Z" fill="black"/>
<path d="M31.3323 55.955H28.1504V59.1369H31.3323V55.955Z" fill="black"/>
<path d="M40.5999 59.1369H39.0089C38.1074 59.1369 37.418 58.4475 37.418 57.5459C37.418 56.6444 38.1074 55.955 39.0089 55.955H40.5999V59.1369Z" fill="black"/>
<path d="M43.6878 55.955H40.5059V59.1369H43.6878V55.955Z" fill="black"/>
<path d="M59.1351 59.1369H55.9531V57.5459C55.9531 56.6444 56.6425 55.955 57.5441 55.955H59.1351V59.1369Z" fill="black"/>
<path d="M62.2249 55.955H59.043V59.1369H62.2249V55.955Z" fill="black"/>
<path d="M69.9015 59.1369C69 59.1369 68.3105 58.4475 68.3105 57.5459V55.955H71.4925V57.5459C71.4925 58.4475 70.8031 59.1369 69.9015 59.1369Z" fill="black"/>
<path d="M76.0812 59.1369C76.9599 59.1369 77.6722 58.4246 77.6722 57.5459C77.6722 56.6673 76.9599 55.955 76.0812 55.955C75.2025 55.955 74.4902 56.6673 74.4902 57.5459C74.4902 58.4246 75.2025 59.1369 76.0812 59.1369Z" fill="black"/>
<path d="M83.8499 59.1369H82.2589C81.3574 59.1369 80.668 58.4475 80.668 57.5459C80.668 56.6444 81.3574 55.955 82.2589 55.955H83.8499V59.1369Z" fill="black"/>
<path d="M86.9378 55.955H83.7559V59.1369H86.9378V55.955Z" fill="black"/>
<path d="M88.4386 59.1369H86.8477V55.955H90.0296V57.5459C90.0296 58.4475 89.3402 59.1369 88.4386 59.1369Z" fill="black"/>
<path d="M94.6164 59.1369C95.495 59.1369 96.2073 58.4246 96.2073 57.5459C96.2073 56.6673 95.495 55.955 94.6164 55.955C93.7377 55.955 93.0254 56.6673 93.0254 57.5459C93.0254 58.4246 93.7377 59.1369 94.6164 59.1369Z" fill="black"/>
<path d="M108.565 59.1369H106.974C106.072 59.1369 105.383 58.4475 105.383 57.5459V55.955H108.565V59.1369Z" fill="black"/>
<path d="M111.655 55.955H108.473V59.1369H111.655V55.955Z" fill="black"/>
<path d="M113.152 59.1369H111.561V55.955H113.152C114.053 55.955 114.743 56.6444 114.743 57.5459C114.743 58.4475 114.053 59.1369 113.152 59.1369Z" fill="black"/>
<path d="M14.2961 62.2266C15.1747 62.2266 15.887 61.5143 15.887 60.6357C15.887 59.757 15.1747 59.0447 14.2961 59.0447C13.4174 59.0447 12.7051 59.757 12.7051 60.6357C12.7051 61.5143 13.4174 62.2266 14.2961 62.2266Z" fill="black"/>
<path d="M25.1546 59.0447H21.9727V62.2266H25.1546V59.0447Z" fill="black"/>
<path d="M31.3323 59.0447H28.1504V62.2266H31.3323V59.0447Z" fill="black"/>
<path d="M32.8312 62.2266H31.2402V59.0447H32.8312C33.7328 59.0447 34.4222 59.7341 34.4222 60.6357C34.4222 61.5372 33.7328 62.2266 32.8312 62.2266Z" fill="black"/>
<path d="M43.6878 59.0447H40.5059V62.2266H43.6878V59.0447Z" fill="black"/>
<path d="M49.8675 62.2266H48.2765C47.375 62.2266 46.6855 61.5372 46.6855 60.6357C46.6855 59.7341 47.375 59.0447 48.2765 59.0447H49.8675V62.2266Z" fill="black"/>
<path d="M52.9573 59.0447H49.7754V62.2266H52.9573V59.0447Z" fill="black"/>
<path d="M56.0472 59.0447H52.8652V62.2266H56.0472V59.0447Z" fill="black"/>
<path d="M59.1351 59.0447H55.9531V62.2266H59.1351V59.0447Z" fill="black"/>
<path d="M60.6339 62.2266H59.043V59.0447H62.2249V60.6357C62.2249 61.5372 61.5355 62.2266 60.6339 62.2266Z" fill="black"/>
<path d="M66.8136 62.2266C67.6923 62.2266 68.4046 61.5143 68.4046 60.6357C68.4046 59.757 67.6923 59.0447 66.8136 59.0447C65.935 59.0447 65.2227 59.757 65.2227 60.6357C65.2227 61.5143 65.935 62.2266 66.8136 62.2266Z" fill="black"/>
<path d="M74.5823 62.2266H71.4004V60.6357C71.4004 59.7341 72.0898 59.0447 72.9914 59.0447C73.8929 59.0447 74.5823 59.7341 74.5823 60.6357V62.2266Z" fill="black"/>
<path d="M91.5265 62.2266C92.4052 62.2266 93.1175 61.5143 93.1175 60.6357C93.1175 59.757 92.4052 59.0447 91.5265 59.0447C90.6479 59.0447 89.9355 59.757 89.9355 60.6357C89.9355 61.5143 90.6479 62.2266 91.5265 62.2266Z" fill="black"/>
<path d="M99.2972 62.2266H96.1152V60.6357C96.1152 59.7341 96.8047 59.0447 97.7062 59.0447H99.2972V62.2266Z" fill="black"/>
<path d="M102.385 62.2266H99.2031V59.0447H100.794C101.696 59.0447 102.385 59.7341 102.385 60.6357V62.2266Z" fill="black"/>
<path d="M110.064 62.2266C109.162 62.2266 108.473 61.5372 108.473 60.6357V59.0447H111.655V60.6357C111.655 61.5372 110.965 62.2266 110.064 62.2266Z" fill="black"/>
<path d="M1.93863 65.3149C2.81731 65.3149 3.52961 64.6026 3.52961 63.7239C3.52961 62.8452 2.81731 62.1329 1.93863 62.1329C1.05996 62.1329 0.347656 62.8452 0.347656 63.7239C0.347656 64.6026 1.05996 65.3149 1.93863 65.3149Z" fill="black"/>
<path d="M11.2043 65.3148C12.0829 65.3148 12.7952 64.6025 12.7952 63.7238C12.7952 62.8451 12.0829 62.1328 11.2043 62.1328C10.3256 62.1328 9.61328 62.8451 9.61328 63.7238C9.61328 64.6025 10.3256 65.3148 11.2043 65.3148Z" fill="black"/>
<path d="M22.0628 65.3148H20.4718C19.5703 65.3148 18.8809 64.6253 18.8809 63.7238C18.8809 62.8222 19.5703 62.1328 20.4718 62.1328H22.0628V65.3148Z" fill="black"/>
<path d="M25.1546 62.1328H21.9727V65.3148H25.1546V62.1328Z" fill="black"/>
<path d="M28.2425 62.1328H25.0605V65.3148H28.2425V62.1328Z" fill="black"/>
<path d="M31.3323 62.1328H28.1504V65.3148H31.3323V62.1328Z" fill="black"/>
<path d="M37.512 65.3149H34.3301V63.7239C34.3301 62.8224 35.0195 62.1329 35.9211 62.1329C36.8226 62.1329 37.512 62.8224 37.512 63.7239V65.3149Z" fill="black"/>
<path d="M43.6878 65.3148H42.0968C41.1953 65.3148 40.5059 64.6253 40.5059 63.7238V62.1328H43.6878V65.3148Z" fill="black"/>
<path d="M46.7796 65.3148H43.5977V62.1328H45.1886C46.0902 62.1328 46.7796 62.8222 46.7796 63.7238V65.3148Z" fill="black"/>
<path d="M56.0472 62.1328H52.8652V65.3148H56.0472V62.1328Z" fill="black"/>
<path d="M65.3128 65.3148H62.1309V63.7238C62.1309 62.8222 62.8203 62.1328 63.7218 62.1328C64.6234 62.1328 65.3128 62.8222 65.3128 63.7238V65.3148Z" fill="black"/>
<path d="M71.4925 65.3148H69.9015C69 65.3148 68.3105 64.6253 68.3105 63.7238C68.3105 62.8222 69 62.1328 69.9015 62.1328H71.4925V65.3148Z" fill="black"/>
<path d="M74.5823 62.1328H71.4004V65.3148H74.5823V62.1328Z" fill="black"/>
<path d="M77.6722 62.1328H74.4902V65.3148H77.6722V62.1328Z" fill="black"/>
<path d="M80.7601 62.1328H77.5781V65.3148H80.7601V62.1328Z" fill="black"/>
<path d="M83.8499 62.1328H80.668V65.3148H83.8499V62.1328Z" fill="black"/>
<path d="M85.3468 65.3148H83.7559V62.1328H85.3468C86.2484 62.1328 86.9378 62.8222 86.9378 63.7238C86.9378 64.6253 86.2484 65.3148 85.3468 65.3148Z" fill="black"/>
<path d="M96.2073 65.3148H94.6164C93.7148 65.3148 93.0254 64.6253 93.0254 63.7238C93.0254 62.8222 93.7148 62.1328 94.6164 62.1328H96.2073V65.3148Z" fill="black"/>
<path d="M99.2972 62.1328H96.1152V65.3148H99.2972V62.1328Z" fill="black"/>
<path d="M102.385 62.1328H99.2031V65.3148H102.385V62.1328Z" fill="black"/>
<path d="M105.475 62.1328H102.293V65.3148H105.475V62.1328Z" fill="black"/>
<path d="M106.974 65.3148H105.383V62.1328H106.974C107.875 62.1328 108.565 62.8222 108.565 63.7238C108.565 64.6253 107.875 65.3148 106.974 65.3148Z" fill="black"/>
<path d="M9.70735 68.4062H6.52539V66.8152C6.52539 65.9137 7.21481 65.2242 8.11637 65.2242C9.01792 65.2242 9.70735 65.9137 9.70735 66.8152V68.4062Z" fill="black"/>
<path d="M17.3839 68.4062C18.2626 68.4062 18.9749 67.6939 18.9749 66.8152C18.9749 65.9365 18.2626 65.2242 17.3839 65.2242C16.5053 65.2242 15.793 65.9365 15.793 66.8152C15.793 67.6939 16.5053 68.4062 17.3839 68.4062Z" fill="black"/>
<path d="M31.3323 68.4062H29.7414C28.8398 68.4062 28.1504 67.7168 28.1504 66.8152V65.2242H31.3323V68.4062Z" fill="black"/>
<path d="M34.4222 65.2242H31.2402V68.4062H34.4222V65.2242Z" fill="black"/>
<path d="M37.512 65.224H34.3301V68.406H37.512V65.224Z" fill="black"/>
<path d="M39.0089 68.4062H37.418V65.2242H39.0089C39.9105 65.2242 40.5999 65.9137 40.5999 66.8152C40.5999 67.7168 39.9105 68.4062 39.0089 68.4062Z" fill="black"/>
<path d="M46.7796 65.2242H43.5977V68.4062H46.7796V65.2242Z" fill="black"/>
<path d="M52.9573 68.4062H49.7754V66.8152C49.7754 65.9137 50.4648 65.2242 51.3664 65.2242H52.9573V68.4062Z" fill="black"/>
<path d="M56.0472 65.2242H52.8652V68.4062H56.0472V65.2242Z" fill="black"/>
<path d="M59.1351 68.4062H55.9531V65.2242H57.5441C58.4457 65.2242 59.1351 65.9137 59.1351 66.8152V68.4062Z" fill="black"/>
<path d="M65.3128 65.2242H62.1309V68.4062H65.3128V65.2242Z" fill="black"/>
<path d="M66.8136 68.4062H65.2227V65.2242H66.8136C67.7152 65.2242 68.4046 65.9137 68.4046 66.8152C68.4046 67.7168 67.7152 68.4062 66.8136 68.4062Z" fill="black"/>
<path d="M72.9914 68.4062C72.0898 68.4062 71.4004 67.7168 71.4004 66.8152V65.2242H74.5823V66.8152C74.5823 67.7168 73.8929 68.4062 72.9914 68.4062Z" fill="black"/>
<path d="M79.1691 68.4062C78.2675 68.4062 77.5781 67.7168 77.5781 66.8152V65.2242H80.7601V66.8152C80.7601 67.7168 80.0707 68.4062 79.1691 68.4062Z" fill="black"/>
<path d="M97.7062 68.4062C96.8047 68.4062 96.1152 67.7168 96.1152 66.8152V65.2242H99.2972V66.8152C99.2972 67.7168 98.6078 68.4062 97.7062 68.4062Z" fill="black"/>
<path d="M103.884 68.4062C102.982 68.4062 102.293 67.7168 102.293 66.8152V65.2242H105.475V66.8152C105.475 67.7168 104.786 68.4062 103.884 68.4062Z" fill="black"/>
<path d="M110.064 68.4062C110.942 68.4062 111.655 67.6939 111.655 66.8152C111.655 65.9365 110.942 65.2242 110.064 65.2242C109.185 65.2242 108.473 65.9365 108.473 66.8152C108.473 67.6939 109.185 68.4062 110.064 68.4062Z" fill="black"/>
<path d="M3.52961 71.4943H0.347656V69.9034C0.347656 69.0018 1.03708 68.3124 1.93863 68.3124H3.52961V71.4943Z" fill="black"/>
<path d="M6.6175 68.3123H3.43555V71.4942H6.6175V68.3123Z" fill="black"/>
<path d="M9.70735 68.3123H6.52539V71.4942H9.70735V68.3123Z" fill="black"/>
<path d="M15.887 71.4943H12.7051V69.9034C12.7051 69.0018 13.3945 68.3124 14.2961 68.3124C15.1976 68.3124 15.887 69.0018 15.887 69.9034V71.4943Z" fill="black"/>
<path d="M22.0628 71.4942H20.4718C19.5703 71.4942 18.8809 70.8048 18.8809 69.9032C18.8809 69.0017 19.5703 68.3123 20.4718 68.3123H22.0628V71.4942Z" fill="black"/>
<path d="M25.1546 68.3123H21.9727V71.4942H25.1546V68.3123Z" fill="black"/>
<path d="M26.6515 71.4942H25.0605V68.3123H26.6515C27.5531 68.3123 28.2425 69.0017 28.2425 69.9032C28.2425 70.8048 27.5531 71.4942 26.6515 71.4942Z" fill="black"/>
<path d="M34.4222 71.4942H32.8312C31.9297 71.4942 31.2402 70.8048 31.2402 69.9032V68.3123H34.4222V71.4942Z" fill="black"/>
<path d="M37.512 68.3124H34.3301V71.4943H37.512V68.3124Z" fill="black"/>
<path d="M43.6878 71.4942H40.5059V69.9032C40.5059 69.0017 41.1953 68.3123 42.0968 68.3123H43.6878V71.4942Z" fill="black"/>
<path d="M45.1886 71.4942H43.5977V68.3123H46.7796V69.9032C46.7796 70.8048 46.0902 71.4942 45.1886 71.4942Z" fill="black"/>
<path d="M52.9573 68.3123H49.7754V71.4942H52.9573V68.3123Z" fill="black"/>
<path d="M56.0472 68.3123H52.8652V71.4942H56.0472V68.3123Z" fill="black"/>
<path d="M59.1351 68.3123H55.9531V71.4942H59.1351V68.3123Z" fill="black"/>
<path d="M62.2249 68.3123H59.043V71.4942H62.2249V68.3123Z" fill="black"/>
<path d="M63.7218 71.4942H62.1309V68.3123H65.3128V69.9032C65.3128 70.8048 64.6234 71.4942 63.7218 71.4942Z" fill="black"/>
<path d="M85.3468 71.4942C86.2255 71.4942 86.9378 70.7819 86.9378 69.9032C86.9378 69.0246 86.2255 68.3123 85.3468 68.3123C84.4682 68.3123 83.7559 69.0246 83.7559 69.9032C83.7559 70.7819 84.4682 71.4942 85.3468 71.4942Z" fill="black"/>
<path d="M91.5265 71.4942C92.4052 71.4942 93.1175 70.7819 93.1175 69.9032C93.1175 69.0246 92.4052 68.3123 91.5265 68.3123C90.6479 68.3123 89.9355 69.0246 89.9355 69.9032C89.9355 70.7819 90.6479 71.4942 91.5265 71.4942Z" fill="black"/>
<path d="M114.743 71.4942H111.561V69.9032C111.561 69.0017 112.25 68.3123 113.152 68.3123C114.053 68.3123 114.743 69.0017 114.743 69.9032V71.4942Z" fill="black"/>
<path d="M3.52961 74.5839H1.93863C1.03708 74.5839 0.347656 73.8945 0.347656 72.993V71.402H3.52961V74.5839Z" fill="black"/>
<path d="M6.6175 71.4021H3.43555V74.5841H6.6175V71.4021Z" fill="black"/>
<path d="M9.70735 71.4021H6.52539V74.5841H9.70735V71.4021Z" fill="black"/>
<path d="M12.7952 71.4021H9.61328V74.5841H12.7952V71.4021Z" fill="black"/>
<path d="M14.2961 74.5839H12.7051V71.402H15.887V72.993C15.887 73.8945 15.1976 74.5839 14.2961 74.5839Z" fill="black"/>
<path d="M25.1546 71.4021H21.9727V74.5841H25.1546V71.4021Z" fill="black"/>
<path d="M37.512 71.402H34.3301V74.5839H37.512V71.402Z" fill="black"/>
<path d="M43.6878 71.4021H40.5059V74.5841H43.6878V71.4021Z" fill="black"/>
<path d="M52.9573 71.4021H49.7754V74.5841H52.9573V71.4021Z" fill="black"/>
<path d="M66.8136 74.5841C67.6923 74.5841 68.4046 73.8718 68.4046 72.9931C68.4046 72.1144 67.6923 71.4021 66.8136 71.4021C65.935 71.4021 65.2227 72.1144 65.2227 72.9931C65.2227 73.8718 65.935 74.5841 66.8136 74.5841Z" fill="black"/>
<path d="M76.0812 74.5841C76.9599 74.5841 77.6722 73.8718 77.6722 72.9931C77.6722 72.1144 76.9599 71.4021 76.0812 71.4021C75.2025 71.4021 74.4902 72.1144 74.4902 72.9931C74.4902 73.8718 75.2025 74.5841 76.0812 74.5841Z" fill="black"/>
<path d="M83.8499 74.5841H80.668V72.9931C80.668 72.0915 81.3574 71.4021 82.2589 71.4021C83.1605 71.4021 83.8499 72.0915 83.8499 72.9931V74.5841Z" fill="black"/>
<path d="M97.7062 74.5841C98.5849 74.5841 99.2972 73.8718 99.2972 72.9931C99.2972 72.1144 98.5849 71.4021 97.7062 71.4021C96.8275 71.4021 96.1152 72.1144 96.1152 72.9931C96.1152 73.8718 96.8275 74.5841 97.7062 74.5841Z" fill="black"/>
<path d="M114.743 71.4021H111.561V74.5841H114.743V71.4021Z" fill="black"/>
<path d="M6.6175 77.6738H5.02652C4.12497 77.6738 3.43555 76.9844 3.43555 76.0828V74.4918H6.6175V77.6738Z" fill="black"/>
<path d="M8.11637 77.6738H6.52539V74.4918H9.70735V76.0828C9.70735 76.9844 9.01792 77.6738 8.11637 77.6738Z" fill="black"/>
<path d="M22.0628 77.6738H20.4718C19.5703 77.6738 18.8809 76.9844 18.8809 76.0828C18.8809 75.1812 19.5703 74.4918 20.4718 74.4918H22.0628V77.6738Z" fill="black"/>
<path d="M25.1546 74.4918H21.9727V77.6738H25.1546V74.4918Z" fill="black"/>
<path d="M26.6515 77.6738H25.0605V74.4918H26.6515C27.5531 74.4918 28.2425 75.1812 28.2425 76.0828C28.2425 76.9844 27.5531 77.6738 26.6515 77.6738Z" fill="black"/>
<path d="M34.4222 77.6738H32.8312C31.9297 77.6738 31.2402 76.9844 31.2402 76.0828C31.2402 75.1812 31.9297 74.4918 32.8312 74.4918H34.4222V77.6738Z" fill="black"/>
<path d="M37.512 74.4917H34.3301V77.6737H37.512V74.4917Z" fill="black"/>
<path d="M43.6878 74.4918H40.5059V77.6738H43.6878V74.4918Z" fill="black"/>
<path d="M46.7796 74.4918H43.5977V77.6738H46.7796V74.4918Z" fill="black"/>
<path d="M49.8675 74.4918H46.6855V77.6738H49.8675V74.4918Z" fill="black"/>
<path d="M51.3664 77.6738H49.7754V74.4918H52.9573V76.0828C52.9573 76.9844 52.2679 77.6738 51.3664 77.6738Z" fill="black"/>
<path d="M62.2249 77.6738H59.043V76.0828C59.043 75.1812 59.7324 74.4918 60.6339 74.4918C61.5355 74.4918 62.2249 75.1812 62.2249 76.0828V77.6738Z" fill="black"/>
<path d="M71.4925 77.6738H69.9015C69 77.6738 68.3105 76.9844 68.3105 76.0828C68.3105 75.1812 69 74.4918 69.9015 74.4918H71.4925V77.6738Z" fill="black"/>
<path d="M74.5823 77.6738H71.4004V74.4918H72.9914C73.8929 74.4918 74.5823 75.1812 74.5823 76.0828V77.6738Z" fill="black"/>
<path d="M80.7601 77.6738H79.1691C78.2675 77.6738 77.5781 76.9844 77.5781 76.0828C77.5781 75.1812 78.2675 74.4918 79.1691 74.4918H80.7601V77.6738Z" fill="black"/>
<path d="M83.8499 74.4918H80.668V77.6738H83.8499V74.4918Z" fill="black"/>
<path d="M93.1175 77.6738H91.5265C90.625 77.6738 89.9355 76.9844 89.9355 76.0828C89.9355 75.1812 90.625 74.4918 91.5265 74.4918H93.1175V77.6738Z" fill="black"/>
<path d="M94.6164 77.6738H93.0254V74.4918H94.6164C95.5179 74.4918 96.2073 75.1812 96.2073 76.0828C96.2073 76.9844 95.5179 77.6738 94.6164 77.6738Z" fill="black"/>
<path d="M100.794 77.6738C101.673 77.6738 102.385 76.9615 102.385 76.0828C102.385 75.2041 101.673 74.4918 100.794 74.4918C99.9154 74.4918 99.2031 75.2041 99.2031 76.0828C99.2031 76.9615 99.9154 77.6738 100.794 77.6738Z" fill="black"/>
<path d="M108.565 77.6738H106.974C106.072 77.6738 105.383 76.9844 105.383 76.0828C105.383 75.1812 106.072 74.4918 106.974 74.4918H108.565V77.6738Z" fill="black"/>
<path d="M111.655 74.4918H108.473V77.6738H111.655V74.4918Z" fill="black"/>
<path d="M113.152 77.6738H111.561V74.4918H114.743V76.0828C114.743 76.9844 114.053 77.6738 113.152 77.6738Z" fill="black"/>
<path d="M3.52961 80.7619H0.347656V79.1709C0.347656 78.2694 1.03708 77.58 1.93863 77.58C2.84019 77.58 3.52961 78.2694 3.52961 79.1709V80.7619Z" fill="black"/>
<path d="M29.7414 80.7619C30.62 80.7619 31.3323 80.0496 31.3323 79.1709C31.3323 78.2923 30.62 77.58 29.7414 77.58C28.8627 77.58 28.1504 78.2923 28.1504 79.1709C28.1504 80.0496 28.8627 80.7619 29.7414 80.7619Z" fill="black"/>
<path d="M37.512 80.7619H35.9211C35.0195 80.7619 34.3301 80.0725 34.3301 79.1709V77.58H37.512V80.7619Z" fill="black"/>
<path d="M40.5999 77.58H37.418V80.7619H40.5999V77.58Z" fill="black"/>
<path d="M43.6878 77.58H40.5059V80.7619H43.6878V77.58Z" fill="black"/>
<path d="M45.1886 80.7619H43.5977V77.58H46.7796V79.1709C46.7796 80.0725 46.0902 80.7619 45.1886 80.7619Z" fill="black"/>
<path d="M59.1351 80.7619H57.5441C56.6425 80.7619 55.9531 80.0725 55.9531 79.1709C55.9531 78.2694 56.6425 77.58 57.5441 77.58H59.1351V80.7619Z" fill="black"/>
<path d="M60.6339 80.7619H59.043V77.58H62.2249V79.1709C62.2249 80.0725 61.5355 80.7619 60.6339 80.7619Z" fill="black"/>
<path d="M72.9914 80.7619C72.0898 80.7619 71.4004 80.0725 71.4004 79.1709V77.58H74.5823V79.1709C74.5823 80.0725 73.8929 80.7619 72.9914 80.7619Z" fill="black"/>
<path d="M82.2589 80.7619C81.3574 80.7619 80.668 80.0725 80.668 79.1709V77.58H83.8499V79.1709C83.8499 80.0725 83.1605 80.7619 82.2589 80.7619Z" fill="black"/>
<path d="M88.4386 80.7619C89.3173 80.7619 90.0296 80.0496 90.0296 79.1709C90.0296 78.2923 89.3173 77.58 88.4386 77.58C87.56 77.58 86.8477 78.2923 86.8477 79.1709C86.8477 80.0496 87.56 80.7619 88.4386 80.7619Z" fill="black"/>
<path d="M99.2972 80.7619H96.1152V79.1709C96.1152 78.2694 96.8047 77.58 97.7062 77.58C98.6078 77.58 99.2972 78.2694 99.2972 79.1709V80.7619Z" fill="black"/>
<path d="M103.884 80.7619C104.763 80.7619 105.475 80.0496 105.475 79.1709C105.475 78.2923 104.763 77.58 103.884 77.58C103.005 77.58 102.293 78.2923 102.293 79.1709C102.293 80.0496 103.005 80.7619 103.884 80.7619Z" fill="black"/>
<path d="M3.52961 80.6697H0.347656V83.8516H3.52961V80.6697Z" fill="black"/>
<path d="M11.2043 83.8516C12.0829 83.8516 12.7952 83.1393 12.7952 82.2607C12.7952 81.382 12.0829 80.6697 11.2043 80.6697C10.3256 80.6697 9.61328 81.382 9.61328 82.2607C9.61328 83.1393 10.3256 83.8516 11.2043 83.8516Z" fill="black"/>
<path d="M18.9749 83.8516H15.793V82.2607C15.793 81.3591 16.4824 80.6697 17.3839 80.6697H18.9749V83.8516Z" fill="black"/>
<path d="M20.4718 83.8516H18.8809V80.6697H20.4718C21.3734 80.6697 22.0628 81.3591 22.0628 82.2607C22.0628 83.1622 21.3734 83.8516 20.4718 83.8516Z" fill="black"/>
<path d="M40.5999 80.6697H37.418V83.8516H40.5999V80.6697Z" fill="black"/>
<path d="M49.8675 83.8516H48.2765C47.375 83.8516 46.6855 83.1622 46.6855 82.2607C46.6855 81.3591 47.375 80.6697 48.2765 80.6697H49.8675V83.8516Z" fill="black"/>
<path d="M52.9573 80.6697H49.7754V83.8516H52.9573V80.6697Z" fill="black"/>
<path d="M56.0472 83.8516H52.8652V80.6697H54.4562C55.3578 80.6697 56.0472 81.3591 56.0472 82.2607V83.8516Z" fill="black"/>
<path d="M71.4925 83.8516H68.3105V82.2607C68.3105 81.3591 69 80.6697 69.9015 80.6697C70.8031 80.6697 71.4925 81.3591 71.4925 82.2607V83.8516Z" fill="black"/>
<path d="M85.3468 83.8516C86.2255 83.8516 86.9378 83.1393 86.9378 82.2607C86.9378 81.382 86.2255 80.6697 85.3468 80.6697C84.4682 80.6697 83.7559 81.382 83.7559 82.2607C83.7559 83.1393 84.4682 83.8516 85.3468 83.8516Z" fill="black"/>
<path d="M96.2073 83.8516H94.6164C93.7148 83.8516 93.0254 83.1622 93.0254 82.2607C93.0254 81.3591 93.7148 80.6697 94.6164 80.6697H96.2073V83.8516Z" fill="black"/>
<path d="M99.2972 80.6697H96.1152V83.8516H99.2972V80.6697Z" fill="black"/>
<path d="M102.385 83.8516H99.2031V80.6697H100.794C101.696 80.6697 102.385 81.3591 102.385 82.2607V83.8516Z" fill="black"/>
<path d="M106.974 83.8516C107.852 83.8516 108.565 83.1393 108.565 82.2607C108.565 81.382 107.852 80.6697 106.974 80.6697C106.095 80.6697 105.383 81.382 105.383 82.2607C105.383 83.1393 106.095 83.8516 106.974 83.8516Z" fill="black"/>
<path d="M114.743 83.8516H111.561V82.2607C111.561 81.3591 112.25 80.6697 113.152 80.6697C114.053 80.6697 114.743 81.3591 114.743 82.2607V83.8516Z" fill="black"/>
<path d="M3.52961 83.7579H0.347656V86.9399H3.52961V83.7579Z" fill="black"/>
<path d="M15.887 86.9399H14.2961C13.3945 86.9399 12.7051 86.2505 12.7051 85.3489C12.7051 84.4474 13.3945 83.7579 14.2961 83.7579H15.887V86.9399Z" fill="black"/>
<path d="M17.3839 86.9398H15.793V83.7578H18.9749V85.3488C18.9749 86.2503 18.2855 86.9398 17.3839 86.9398Z" fill="black"/>
<path d="M28.2425 86.9398H26.6515C25.75 86.9398 25.0605 86.2503 25.0605 85.3488C25.0605 84.4472 25.75 83.7578 26.6515 83.7578H28.2425V86.9398Z" fill="black"/>
<path d="M31.3323 86.9398H28.1504V83.7578H29.7414C30.6429 83.7578 31.3323 84.4472 31.3323 85.3488V86.9398Z" fill="black"/>
<path d="M39.0089 86.9398C38.1074 86.9398 37.418 86.2503 37.418 85.3488V83.7578H40.5999V85.3488C40.5999 86.2503 39.9105 86.9398 39.0089 86.9398Z" fill="black"/>
<path d="M46.7796 86.9398H43.5977V85.3488C43.5977 84.4472 44.2871 83.7578 45.1886 83.7578C46.0902 83.7578 46.7796 84.4472 46.7796 85.3488V86.9398Z" fill="black"/>
<path d="M52.9573 83.7578H49.7754V86.9398H52.9573V83.7578Z" fill="black"/>
<path d="M56.0472 83.7578H52.8652V86.9398H56.0472V83.7578Z" fill="black"/>
<path d="M57.5441 86.9398H55.9531V83.7578H57.5441C58.4457 83.7578 59.1351 84.4472 59.1351 85.3488C59.1351 86.2503 58.4457 86.9398 57.5441 86.9398Z" fill="black"/>
<path d="M68.4046 86.9398H66.8136C65.9121 86.9398 65.2227 86.2503 65.2227 85.3488C65.2227 84.4472 65.9121 83.7578 66.8136 83.7578H68.4046V86.9398Z" fill="black"/>
<path d="M71.4925 83.7578H68.3105V86.9398H71.4925V83.7578Z" fill="black"/>
<path d="M74.5823 83.7578H71.4004V86.9398H74.5823V83.7578Z" fill="black"/>
<path d="M77.6722 86.9398H74.4902V83.7578H76.0812C76.9828 83.7578 77.6722 84.4472 77.6722 85.3488V86.9398Z" fill="black"/>
<path d="M90.0296 86.9398H86.8477V85.3488C86.8477 84.4472 87.5371 83.7578 88.4386 83.7578H90.0296V86.9398Z" fill="black"/>
<path d="M93.1175 86.9398H89.9355V83.7578H91.5265C92.4281 83.7578 93.1175 84.4472 93.1175 85.3488V86.9398Z" fill="black"/>
<path d="M99.2972 83.7578H96.1152V86.9398H99.2972V83.7578Z" fill="black"/>
<path d="M102.385 83.7578H99.2031V86.9398H102.385V83.7578Z" fill="black"/>
<path d="M111.655 86.9398H108.473V85.3488C108.473 84.4472 109.162 83.7578 110.064 83.7578H111.655V86.9398Z" fill="black"/>
<path d="M114.743 83.7578H111.561V86.9398H114.743V83.7578Z" fill="black"/>
<path d="M1.93863 90.0311C1.03708 90.0311 0.347656 89.3417 0.347656 88.4401V86.8491H3.52961V88.4401C3.52961 89.3417 2.84019 90.0311 1.93863 90.0311Z" fill="black"/>
<path d="M22.0628 90.0312H20.4718C19.5703 90.0312 18.8809 89.3418 18.8809 88.4402C18.8809 87.5387 19.5703 86.8492 20.4718 86.8492H22.0628V90.0312Z" fill="black"/>
<path d="M23.5636 90.0312H21.9727V86.8492H23.5636C24.4652 86.8492 25.1546 87.5387 25.1546 88.4402C25.1546 89.3418 24.4652 90.0312 23.5636 90.0312Z" fill="black"/>
<path d="M31.3323 86.8492H28.1504V90.0312H31.3323V86.8492Z" fill="black"/>
<path d="M34.4222 86.8492H31.2402V90.0312H34.4222V86.8492Z" fill="black"/>
<path d="M35.9211 90.0311H34.3301V86.8491H35.9211C36.8226 86.8491 37.512 87.5385 37.512 88.4401C37.512 89.3417 36.8226 90.0311 35.9211 90.0311Z" fill="black"/>
<path d="M45.1886 90.0312C44.2871 90.0312 43.5977 89.3418 43.5977 88.4402V86.8492H46.7796V88.4402C46.7796 89.3418 46.0902 90.0312 45.1886 90.0312Z" fill="black"/>
<path d="M52.9573 86.8492H49.7754V90.0312H52.9573V86.8492Z" fill="black"/>
<path d="M62.2249 90.0312H60.6339C59.7324 90.0312 59.043 89.3418 59.043 88.4402C59.043 87.5387 59.7324 86.8492 60.6339 86.8492H62.2249V90.0312Z" fill="black"/>
<path d="M65.3128 90.0312H62.1309V86.8492H63.7218C64.6234 86.8492 65.3128 87.5387 65.3128 88.4402V90.0312Z" fill="black"/>
<path d="M69.9015 90.0312C69 90.0312 68.3105 89.3418 68.3105 88.4402V86.8492H71.4925V88.4402C71.4925 89.3418 70.8031 90.0312 69.9015 90.0312Z" fill="black"/>
<path d="M77.6722 90.0312H76.0812C75.1797 90.0312 74.4902 89.3418 74.4902 88.4402V86.8492H77.6722V90.0312Z" fill="black"/>
<path d="M80.7601 86.8492H77.5781V90.0312H80.7601V86.8492Z" fill="black"/>
<path d="M82.2589 90.0312H80.668V86.8492H82.2589C83.1605 86.8492 83.8499 87.5387 83.8499 88.4402C83.8499 89.3418 83.1605 90.0312 82.2589 90.0312Z" fill="black"/>
<path d="M90.0296 86.8492H86.8477V90.0312H90.0296V86.8492Z" fill="black"/>
<path d="M93.1175 86.8492H89.9355V90.0312H93.1175V86.8492Z" fill="black"/>
<path d="M96.2073 86.8492H93.0254V90.0312H96.2073V86.8492Z" fill="black"/>
<path d="M99.2972 86.8492H96.1152V90.0312H99.2972V86.8492Z" fill="black"/>
<path d="M102.385 86.8492H99.2031V90.0312H102.385V86.8492Z" fill="black"/>
<path d="M105.475 86.8492H102.293V90.0312H105.475V86.8492Z" fill="black"/>
<path d="M108.565 86.8492H105.383V90.0312H108.565V86.8492Z" fill="black"/>
<path d="M111.655 86.8492H108.473V90.0312H111.655V86.8492Z" fill="black"/>
<path d="M113.152 90.0312H111.561V86.8492H114.743V88.4402C114.743 89.3418 114.053 90.0312 113.152 90.0312Z" fill="black"/>
<path d="M28.2425 93.1193H25.0605V91.5284C25.0605 90.6268 25.75 89.9374 26.6515 89.9374H28.2425V93.1193Z" fill="black"/>
<path d="M31.3323 89.9374H28.1504V93.1193H31.3323V89.9374Z" fill="black"/>
<path d="M32.8312 93.1193H31.2402V89.9374H34.4222V91.5284C34.4222 92.4299 33.7328 93.1193 32.8312 93.1193Z" fill="black"/>
<path d="M40.5999 93.1193H37.418V91.5284C37.418 90.6268 38.1074 89.9374 39.0089 89.9374C39.9105 89.9374 40.5999 90.6268 40.5999 91.5284V93.1193Z" fill="black"/>
<path d="M49.8675 93.1193H48.2765C47.375 93.1193 46.6855 92.4299 46.6855 91.5284C46.6855 90.6268 47.375 89.9374 48.2765 89.9374H49.8675V93.1193Z" fill="black"/>
<path d="M51.3664 93.1193H49.7754V89.9374H52.9573V91.5284C52.9573 92.4299 52.2679 93.1193 51.3664 93.1193Z" fill="black"/>
<path d="M63.7218 93.1193C62.8203 93.1193 62.1309 92.4299 62.1309 91.5284V89.9374H65.3128V91.5284C65.3128 92.4299 64.6234 93.1193 63.7218 93.1193Z" fill="black"/>
<path d="M72.9914 93.1193C73.87 93.1193 74.5823 92.407 74.5823 91.5284C74.5823 90.6497 73.87 89.9374 72.9914 89.9374C72.1127 89.9374 71.4004 90.6497 71.4004 91.5284C71.4004 92.407 72.1127 93.1193 72.9914 93.1193Z" fill="black"/>
<path d="M80.7601 89.9374H77.5781V93.1193H80.7601V89.9374Z" fill="black"/>
<path d="M86.9378 93.1193H85.3468C84.4453 93.1193 83.7559 92.4299 83.7559 91.5284C83.7559 90.6268 84.4453 89.9374 85.3468 89.9374H86.9378V93.1193Z" fill="black"/>
<path d="M90.0296 89.9374H86.8477V93.1193H90.0296V89.9374Z" fill="black"/>
<path d="M102.385 89.9374H99.2031V93.1193H102.385V89.9374Z" fill="black"/>
<path d="M28.2425 93.0254H25.0605V96.2073H28.2425V93.0254Z" fill="black"/>
<path d="M40.5999 96.2073H39.0089C38.1074 96.2073 37.418 95.5179 37.418 94.6164V93.0254H40.5999V96.2073Z" fill="black"/>
<path d="M43.6878 93.0254H40.5059V96.2073H43.6878V93.0254Z" fill="black"/>
<path d="M45.1886 96.2073H43.5977V93.0254H45.1886C46.0902 93.0254 46.7796 93.7148 46.7796 94.6164C46.7796 95.5179 46.0902 96.2073 45.1886 96.2073Z" fill="black"/>
<path d="M56.0472 96.2073H52.8652V94.6164C52.8652 93.7148 53.5547 93.0254 54.4562 93.0254C55.3578 93.0254 56.0472 93.7148 56.0472 94.6164V96.2073Z" fill="black"/>
<path d="M62.2249 96.2073H59.043V94.6164C59.043 93.7148 59.7324 93.0254 60.6339 93.0254C61.5355 93.0254 62.2249 93.7148 62.2249 94.6164V96.2073Z" fill="black"/>
<path d="M68.4046 96.2073H65.2227V94.6164C65.2227 93.7148 65.9121 93.0254 66.8136 93.0254C67.7152 93.0254 68.4046 93.7148 68.4046 94.6164V96.2073Z" fill="black"/>
<path d="M77.6722 96.2073H76.0812C75.1797 96.2073 74.4902 95.5179 74.4902 94.6164C74.4902 93.7148 75.1797 93.0254 76.0812 93.0254H77.6722V96.2073Z" fill="black"/>
<path d="M80.7601 93.0254H77.5781V96.2073H80.7601V93.0254Z" fill="black"/>
<path d="M83.8499 96.2073H80.668V93.0254H82.2589C83.1605 93.0254 83.8499 93.7148 83.8499 94.6164V96.2073Z" fill="black"/>
<path d="M90.0296 93.0254H86.8477V96.2073H90.0296V93.0254Z" fill="black"/>
<path d="M94.6164 96.2073C95.495 96.2073 96.2073 95.495 96.2073 94.6164C96.2073 93.7377 95.495 93.0254 94.6164 93.0254C93.7377 93.0254 93.0254 93.7377 93.0254 94.6164C93.0254 95.495 93.7377 96.2073 94.6164 96.2073Z" fill="black"/>
<path d="M102.385 93.0254H99.2031V96.2073H102.385V93.0254Z" fill="black"/>
<path d="M103.884 96.2073H102.293V93.0254H103.884C104.786 93.0254 105.475 93.7148 105.475 94.6164C105.475 95.5179 104.786 96.2073 103.884 96.2073Z" fill="black"/>
<path d="M111.655 96.2073H108.473V94.6164C108.473 93.7148 109.162 93.0254 110.064 93.0254H111.655V96.2073Z" fill="black"/>
<path d="M113.152 96.2073H111.561V93.0254H113.152C114.053 93.0254 114.743 93.7148 114.743 94.6164C114.743 95.5179 114.053 96.2073 113.152 96.2073Z" fill="black"/>
<path d="M28.2425 96.1168H25.0605V99.2988H28.2425V96.1168Z" fill="black"/>
<path d="M29.7414 99.2988H28.1504V96.1168H29.7414C30.6429 96.1168 31.3323 96.8062 31.3323 97.7078C31.3323 98.6094 30.6429 99.2988 29.7414 99.2988Z" fill="black"/>
<path d="M37.512 99.2988H34.3301V97.7078C34.3301 96.8062 35.0195 96.1168 35.9211 96.1168C36.8226 96.1168 37.512 96.8062 37.512 97.7078V99.2988Z" fill="black"/>
<path d="M49.8675 99.2988H48.2765C47.375 99.2988 46.6855 98.6094 46.6855 97.7078C46.6855 96.8062 47.375 96.1168 48.2765 96.1168H49.8675V99.2988Z" fill="black"/>
<path d="M52.9573 96.1168H49.7754V99.2988H52.9573V96.1168Z" fill="black"/>
<path d="M56.0472 96.1168H52.8652V99.2988H56.0472V96.1168Z" fill="black"/>
<path d="M62.2249 96.1168H59.043V99.2988H62.2249V96.1168Z" fill="black"/>
<path d="M65.3128 96.1168H62.1309V99.2988H65.3128V96.1168Z" fill="black"/>
<path d="M68.4046 96.1168H65.2227V99.2988H68.4046V96.1168Z" fill="black"/>
<path d="M69.9015 99.2988H68.3105V96.1168H69.9015C70.8031 96.1168 71.4925 96.8062 71.4925 97.7078C71.4925 98.6094 70.8031 99.2988 69.9015 99.2988Z" fill="black"/>
<path d="M83.8499 96.1168H80.668V99.2988H83.8499V96.1168Z" fill="black"/>
<path d="M90.0296 96.1168H86.8477V99.2988H90.0296V96.1168Z" fill="black"/>
<path d="M102.385 96.1168H99.2031V99.2988H102.385V96.1168Z" fill="black"/>
<path d="M111.655 96.1168H108.473V99.2988H111.655V96.1168Z" fill="black"/>
<path d="M28.2425 99.205H25.0605V102.387H28.2425V99.205Z" fill="black"/>
<path d="M37.512 99.2051H34.3301V102.387H37.512V99.2051Z" fill="black"/>
<path d="M43.6878 102.387H40.5059V100.796C40.5059 99.8944 41.1953 99.205 42.0968 99.205H43.6878V102.387Z" fill="black"/>
<path d="M45.1886 102.387H43.5977V99.205H45.1886C46.0902 99.205 46.7796 99.8944 46.7796 100.796C46.7796 101.697 46.0902 102.387 45.1886 102.387Z" fill="black"/>
<path d="M54.4562 102.387C53.5547 102.387 52.8652 101.697 52.8652 100.796V99.205H56.0472V100.796C56.0472 101.697 55.3578 102.387 54.4562 102.387Z" fill="black"/>
<path d="M60.6339 102.387C59.7324 102.387 59.043 101.697 59.043 100.796V99.205H62.2249V100.796C62.2249 101.697 61.5355 102.387 60.6339 102.387Z" fill="black"/>
<path d="M66.8136 102.387C65.9121 102.387 65.2227 101.697 65.2227 100.796V99.205H68.4046V100.796C68.4046 101.697 67.7152 102.387 66.8136 102.387Z" fill="black"/>
<path d="M74.5823 102.387H71.4004V100.796C71.4004 99.8944 72.0898 99.205 72.9914 99.205H74.5823V102.387Z" fill="black"/>
<path d="M77.6722 99.205H74.4902V102.387H77.6722V99.205Z" fill="black"/>
<path d="M80.7601 99.205H77.5781V102.387H80.7601V99.205Z" fill="black"/>
<path d="M83.8499 99.205H80.668V102.387H83.8499V99.205Z" fill="black"/>
<path d="M86.9378 99.205H83.7559V102.387H86.9378V99.205Z" fill="black"/>
<path d="M90.0296 99.205H86.8477V102.387H90.0296V99.205Z" fill="black"/>
<path d="M93.1175 99.205H89.9355V102.387H93.1175V99.205Z" fill="black"/>
<path d="M96.2073 99.205H93.0254V102.387H96.2073V99.205Z" fill="black"/>
<path d="M99.2972 99.205H96.1152V102.387H99.2972V99.205Z" fill="black"/>
<path d="M102.385 99.205H99.2031V102.387H102.385V99.205Z" fill="black"/>
<path d="M108.565 102.387H106.974C106.072 102.387 105.383 101.697 105.383 100.796C105.383 99.8944 106.072 99.205 106.974 99.205H108.565V102.387Z" fill="black"/>
<path d="M111.655 99.205H108.473V102.387H111.655V99.205Z" fill="black"/>
<path d="M113.152 102.387H111.561V99.205H113.152C114.053 99.205 114.743 99.8944 114.743 100.796C114.743 101.697 114.053 102.387 113.152 102.387Z" fill="black"/>
<path d="M28.2425 102.295H25.0605V105.477H28.2425V102.295Z" fill="black"/>
<path d="M37.512 102.295H34.3301V105.477H37.512V102.295Z" fill="black"/>
<path d="M42.0968 105.477C41.1953 105.477 40.5059 104.787 40.5059 103.886V102.295H43.6878V103.886C43.6878 104.787 42.9984 105.477 42.0968 105.477Z" fill="black"/>
<path d="M59.1351 105.477H55.9531V103.886C55.9531 102.984 56.6425 102.295 57.5441 102.295C58.4457 102.295 59.1351 102.984 59.1351 103.886V105.477Z" fill="black"/>
<path d="M63.7218 105.477C64.6005 105.477 65.3128 104.764 65.3128 103.886C65.3128 103.007 64.6005 102.295 63.7218 102.295C62.8432 102.295 62.1309 103.007 62.1309 103.886C62.1309 104.764 62.8432 105.477 63.7218 105.477Z" fill="black"/>
<path d="M74.5823 105.477H72.9914C72.0898 105.477 71.4004 104.787 71.4004 103.886V102.295H74.5823V105.477Z" fill="black"/>
<path d="M76.0812 105.477H74.4902V102.295H77.6722V103.886C77.6722 104.787 76.9828 105.477 76.0812 105.477Z" fill="black"/>
<path d="M82.2589 105.477C81.3574 105.477 80.668 104.787 80.668 103.886V102.295H83.8499V103.886C83.8499 104.787 83.1605 105.477 82.2589 105.477Z" fill="black"/>
<path d="M90.0296 102.295H86.8477V105.477H90.0296V102.295Z" fill="black"/>
<path d="M96.2073 105.477H94.6164C93.7148 105.477 93.0254 104.787 93.0254 103.886V102.295H96.2073V105.477Z" fill="black"/>
<path d="M99.2972 102.295H96.1152V105.477H99.2972V102.295Z" fill="black"/>
<path d="M100.794 105.477H99.2031V102.295H102.385V103.886C102.385 104.787 101.696 105.477 100.794 105.477Z" fill="black"/>
<path d="M110.064 105.477C109.162 105.477 108.473 104.787 108.473 103.886V102.295H111.655V103.886C111.655 104.787 110.965 105.477 110.064 105.477Z" fill="black"/>
<path d="M28.2425 105.385H25.0605V108.566H28.2425V105.385Z" fill="black"/>
<path d="M37.512 105.384H34.3301V108.566H37.512V105.384Z" fill="black"/>
<path d="M46.7796 108.566H43.5977V106.975C43.5977 106.074 44.2871 105.385 45.1886 105.385C46.0902 105.385 46.7796 106.074 46.7796 106.975V108.566Z" fill="black"/>
<path d="M52.9573 108.566H49.7754V106.975C49.7754 106.074 50.4648 105.385 51.3664 105.385H52.9573V108.566Z" fill="black"/>
<path d="M56.0472 105.385H52.8652V108.566H56.0472V105.385Z" fill="black"/>
<path d="M59.1351 105.385H55.9531V108.566H59.1351V105.385Z" fill="black"/>
<path d="M62.2249 108.566H59.043V105.385H60.6339C61.5355 105.385 62.2249 106.074 62.2249 106.975V108.566Z" fill="black"/>
<path d="M68.4046 108.566H65.2227V106.975C65.2227 106.074 65.9121 105.385 66.8136 105.385C67.7152 105.385 68.4046 106.074 68.4046 106.975V108.566Z" fill="black"/>
<path d="M90.0296 105.385H86.8477V108.566H90.0296V105.385Z" fill="black"/>
<path d="M93.1175 108.566H89.9355V105.385H91.5265C92.4281 105.385 93.1175 106.074 93.1175 106.975V108.566Z" fill="black"/>
<path d="M97.7062 108.566C96.8047 108.566 96.1152 107.877 96.1152 106.975V105.385H99.2972V106.975C99.2972 107.877 98.6078 108.566 97.7062 108.566Z" fill="black"/>
<path d="M106.974 108.566C107.852 108.566 108.565 107.854 108.565 106.975C108.565 106.097 107.852 105.385 106.974 105.385C106.095 105.385 105.383 106.097 105.383 106.975C105.383 107.854 106.095 108.566 106.974 108.566Z" fill="black"/>
<path d="M114.743 108.566H111.561V106.975C111.561 106.074 112.25 105.385 113.152 105.385C114.053 105.385 114.743 106.074 114.743 106.975V108.566Z" fill="black"/>
<path d="M28.2425 111.656H26.6515C25.75 111.656 25.0605 110.967 25.0605 110.065V108.474H28.2425V111.656Z" fill="black"/>
<path d="M31.3323 111.656H28.1504V108.474H29.7414C30.6429 108.474 31.3323 109.164 31.3323 110.065V111.656Z" fill="black"/>
<path d="M35.9211 111.656C35.0195 111.656 34.3301 110.967 34.3301 110.065V108.474H37.512V110.065C37.512 110.967 36.8226 111.656 35.9211 111.656Z" fill="black"/>
<path d="M46.7796 111.656H45.1886C44.2871 111.656 43.5977 110.967 43.5977 110.065V108.474H46.7796V111.656Z" fill="black"/>
<path d="M49.8675 108.474H46.6855V111.656H49.8675V108.474Z" fill="black"/>
<path d="M52.9573 108.474H49.7754V111.656H52.9573V108.474Z" fill="black"/>
<path d="M54.4562 111.656H52.8652V108.474H56.0472V110.065C56.0472 110.967 55.3578 111.656 54.4562 111.656Z" fill="black"/>
<path d="M62.2249 108.474H59.043V111.656H62.2249V108.474Z" fill="black"/>
<path d="M65.3128 108.474H62.1309V111.656H65.3128V108.474Z" fill="black"/>
<path d="M68.4046 108.474H65.2227V111.656H68.4046V108.474Z" fill="black"/>
<path d="M71.4925 111.656H68.3105V108.474H69.9015C70.8031 108.474 71.4925 109.164 71.4925 110.065V111.656Z" fill="black"/>
<path d="M77.6722 111.656H74.4902V110.065C74.4902 109.164 75.1797 108.474 76.0812 108.474C76.9828 108.474 77.6722 109.164 77.6722 110.065V111.656Z" fill="black"/>
<path d="M83.8499 111.656H80.668V110.065C80.668 109.164 81.3574 108.474 82.2589 108.474H83.8499V111.656Z" fill="black"/>
<path d="M86.9378 108.474H83.7559V111.656H86.9378V108.474Z" fill="black"/>
<path d="M90.0296 108.474H86.8477V111.656H90.0296V108.474Z" fill="black"/>
<path d="M91.5265 111.656H89.9355V108.474H93.1175V110.065C93.1175 110.967 92.4281 111.656 91.5265 111.656Z" fill="black"/>
<path d="M114.743 108.474H111.561V111.656H114.743V108.474Z" fill="black"/>
<path d="M29.7414 114.744C28.8398 114.744 28.1504 114.055 28.1504 113.153V111.562H31.3323V113.153C31.3323 114.055 30.6429 114.744 29.7414 114.744Z" fill="black"/>
<path d="M39.0089 114.744C39.8876 114.744 40.5999 114.032 40.5999 113.153C40.5999 112.275 39.8876 111.562 39.0089 111.562C38.1303 111.562 37.418 112.275 37.418 113.153C37.418 114.032 38.1303 114.744 39.0089 114.744Z" fill="black"/>
<path d="M49.8675 114.744H48.2765C47.375 114.744 46.6855 114.055 46.6855 113.153V111.562H49.8675V114.744Z" fill="black"/>
<path d="M51.3664 114.744H49.7754V111.562H52.9573V113.153C52.9573 114.055 52.2679 114.744 51.3664 114.744Z" fill="black"/>
<path d="M59.1351 114.744H57.5441C56.6425 114.744 55.9531 114.055 55.9531 113.153C55.9531 112.252 56.6425 111.562 57.5441 111.562H59.1351V114.744Z" fill="black"/>
<path d="M60.6339 114.744H59.043V111.562H62.2249V113.153C62.2249 114.055 61.5355 114.744 60.6339 114.744Z" fill="black"/>
<path d="M69.9015 114.744C69 114.744 68.3105 114.055 68.3105 113.153V111.562H71.4925V113.153C71.4925 114.055 70.8031 114.744 69.9015 114.744Z" fill="black"/>
<path d="M77.6722 114.744H76.0812C75.1797 114.744 74.4902 114.055 74.4902 113.153V111.562H77.6722V114.744Z" fill="black"/>
<path d="M80.7601 111.562H77.5781V114.744H80.7601V111.562Z" fill="black"/>
<path d="M82.2589 114.744H80.668V111.562H83.8499V113.153C83.8499 114.055 83.1605 114.744 82.2589 114.744Z" fill="black"/>
<path d="M105.475 114.744H103.884C102.982 114.744 102.293 114.055 102.293 113.153C102.293 112.252 102.982 111.562 103.884 111.562H105.475V114.744Z" fill="black"/>
<path d="M108.565 111.562H105.383V114.744H108.565V111.562Z" fill="black"/>
<path d="M111.655 111.562H108.473V114.744H111.655V111.562Z" fill="black"/>
<path d="M113.152 114.744H111.561V111.562H114.743V113.153C114.743 114.055 114.053 114.744 113.152 114.744Z" fill="black"/>
<path d="M7.29853 21.9736H15.1762C18.8833 21.9736 21.9726 18.8843 21.9726 15.1772V7.29951C21.9726 3.43791 18.8833 0.348633 15.0217 0.348633H7.14407C3.43693 0.348633 0.347656 3.43791 0.347656 7.14504V15.0227C0.347656 18.8843 3.43693 21.9736 7.29853 21.9736ZM18.8833 7.7629V14.5593C18.8833 16.8763 16.8753 18.8843 14.5583 18.8843H7.76192C5.2905 18.8843 3.43693 17.0307 3.43693 14.5593V7.7629C3.43693 5.44594 5.44496 3.43791 7.76192 3.43791H14.5583C17.0298 3.43791 18.8833 5.29148 18.8833 7.7629Z" fill="black"/>
<path d="M99.9763 21.9736H107.854C111.561 21.9736 114.65 18.8843 114.65 15.1772V7.29951C114.65 3.43791 111.561 0.348633 107.699 0.348633H99.8218C96.1147 0.348633 93.0254 3.43791 93.0254 7.14504V15.0227C93.0254 18.8843 96.1147 21.9736 99.9763 21.9736ZM111.561 7.7629V14.5593C111.561 16.8763 109.553 18.8843 107.236 18.8843H100.44C97.9682 18.8843 96.1147 17.0307 96.1147 14.5593V7.7629C96.1147 5.44594 98.1227 3.43791 100.44 3.43791H107.236C109.707 3.43791 111.561 5.29148 111.561 7.7629Z" fill="black"/>
<path d="M7.29853 114.651H15.1762C18.8833 114.651 21.9726 111.562 21.9726 107.854V99.9768C21.9726 96.1152 18.8833 93.0259 15.0217 93.0259H7.14407C3.43693 93.0259 0.347656 96.1152 0.347656 99.8223V107.7C0.347656 111.562 3.43693 114.651 7.29853 114.651ZM18.8833 100.44V107.237C18.8833 109.554 16.8753 111.562 14.5583 111.562H7.76192C5.2905 111.562 3.43693 109.708 3.43693 107.237V100.44C3.43693 98.1232 5.44496 96.1152 7.76192 96.1152H14.5583C17.0298 96.1152 18.8833 97.9687 18.8833 100.44Z" fill="black"/>
<path d="M15.7932 9.15286V13.3234C15.7932 14.5591 14.5575 15.7948 13.1673 15.7948H9.15128C7.60664 15.7948 6.52539 14.7136 6.52539 13.1689V9.15286C6.52539 7.76269 7.7611 6.52698 9.15128 6.52698H13.3218C14.712 6.52698 15.7932 7.60822 15.7932 9.15286Z" fill="black"/>
<path d="M108.471 9.15286V13.3234C108.471 14.5591 107.235 15.7948 105.845 15.7948H101.829C100.284 15.7948 99.2031 14.7136 99.2031 13.1689V9.15286C99.2031 7.76269 100.439 6.52698 101.829 6.52698H106C107.39 6.52698 108.471 7.60822 108.471 9.15286Z" fill="black"/>
<path d="M15.7932 101.831V106.001C15.7932 107.237 14.5575 108.473 13.1673 108.473H9.15128C7.60664 108.473 6.52539 107.392 6.52539 105.847V101.831C6.52539 100.441 7.7611 99.205 9.15128 99.205H13.3218C14.712 99.205 15.7932 100.286 15.7932 101.831Z" fill="black"/>
</svg>
