<svg width="27" height="26" viewBox="0 0 27 26" fill="none" xmlns="http://www.w3.org/2000/svg">
<g clip-path="url(#clip0_1057_1007)">
<path d="M13.1875 26C15.7587 26 18.2721 25.2376 20.41 23.8091C22.5478 22.3807 24.214 20.3503 25.198 17.9749C26.1819 15.5995 26.4394 12.9856 25.9377 10.4638C25.4361 7.94208 24.198 5.6257 22.3799 3.80762C20.5618 1.98954 18.2455 0.751405 15.7237 0.249797C13.202 -0.251811 10.5881 0.00563267 8.21265 0.989572C5.83721 1.97351 3.80689 3.63975 2.37843 5.77759C0.949974 7.91543 0.187538 10.4288 0.187538 13C0.18341 14.7083 0.516848 16.4007 1.1687 17.9798C1.82055 19.5589 2.77796 20.9936 3.98595 22.2016C5.19393 23.4096 6.62868 24.367 8.20777 25.0188C9.78687 25.6707 11.4792 26.0041 13.1875 26Z" fill="#2775CA"/>
<path d="M16.7652 15.062C16.7652 13.1662 15.6277 12.5161 13.3528 12.2453C11.7279 12.0287 11.4032 11.5952 11.4032 10.8369C11.4032 10.0786 11.945 9.59117 13.028 9.59117C14.0029 9.59117 14.5452 9.91594 14.8156 10.7286C14.8439 10.807 14.8954 10.8749 14.9632 10.9233C15.031 10.9716 15.1119 10.9982 15.1952 10.9995H16.0618C16.1119 11.0007 16.1617 10.9917 16.2083 10.9731C16.2548 10.9545 16.2971 10.9266 16.3326 10.8911C16.368 10.8557 16.3959 10.8134 16.4145 10.7669C16.4331 10.7203 16.4421 10.6705 16.4409 10.6204V10.566C16.3361 9.97901 16.0403 9.4431 15.5995 9.04155C15.1587 8.64 14.5976 8.39529 14.0034 8.34546V7.04535C14.0034 6.82884 13.8407 6.6662 13.5698 6.61182H12.7571C12.5401 6.61182 12.378 6.77446 12.3236 7.04535V8.29107C10.6987 8.50759 9.66953 9.59117 9.66953 10.9451C9.66953 12.7327 10.7526 13.4371 13.0275 13.708C14.5447 13.9784 15.0321 14.3037 15.0321 15.1702C15.0321 16.0368 14.2738 16.633 13.2446 16.633C11.8362 16.633 11.3462 16.0368 11.1861 15.2246C11.1318 15.0081 10.9696 14.8993 10.807 14.8993H9.88707C9.83695 14.8981 9.78712 14.9071 9.74057 14.9258C9.69403 14.9444 9.65176 14.9723 9.61631 15.0077C9.58086 15.0432 9.55298 15.0854 9.53435 15.132C9.51571 15.1785 9.50672 15.2284 9.50792 15.2785V15.3329C9.72443 16.6868 10.5915 17.6622 12.3811 17.9331V19.2327C12.3811 19.4497 12.5432 19.6118 12.8141 19.6662H13.6268C13.8433 19.6662 14.0059 19.5036 14.0598 19.2327V17.9331C15.6852 17.6622 16.7683 16.5242 16.7683 15.0599L16.7652 15.062Z" fill="white"/>
<path d="M10.4282 20.7454C6.20314 19.2288 4.03647 14.5163 5.60542 10.3456C6.4176 8.07072 8.20511 6.33708 10.4282 5.52285C10.6447 5.41459 10.753 5.25195 10.753 4.98105V4.2248C10.753 4.00829 10.6447 3.84564 10.4282 3.79126C10.3738 3.79126 10.2656 3.79126 10.2112 3.84564C5.06465 5.47052 2.24896 10.9413 3.87383 16.0873C4.34588 17.5737 5.16783 18.9251 6.27062 20.0279C7.3734 21.1307 8.72478 21.9526 10.2112 22.4247C10.4282 22.533 10.6447 22.4247 10.6991 22.2082C10.753 22.1538 10.753 22.0999 10.753 21.9917V21.2334C10.753 21.0707 10.5909 20.8542 10.4282 20.7454ZM16.1699 3.8477C15.9529 3.73944 15.7364 3.8477 15.6825 4.06421C15.6281 4.11859 15.6281 4.17247 15.6281 4.28124V5.03749C15.6281 5.254 15.7908 5.47052 15.9529 5.57877C20.178 7.09539 22.3446 11.8079 20.7757 15.9791C19.963 18.254 18.1755 19.9871 15.9529 20.8019C15.7364 20.9101 15.6281 21.0728 15.6281 21.3437V22.102C15.6281 22.3185 15.7364 22.4811 15.9529 22.535C16.0073 22.535 16.1155 22.535 16.1699 22.4811C21.3154 20.8542 24.1321 15.3829 22.5088 10.2374C22.0378 8.74427 21.2168 7.38535 20.1142 6.27387C19.0116 5.16239 17.6592 4.33056 16.1699 3.8477Z" fill="white"/>
</g>
<defs>
<clipPath id="clip0_1057_1007">
<rect width="26" height="26" fill="white" transform="translate(0.1875)"/>
</clipPath>
</defs>
</svg>
