<svg width="27" height="22" viewBox="0 0 27 22" fill="none" xmlns="http://www.w3.org/2000/svg">
<path fill-rule="evenodd" clip-rule="evenodd" d="M5.98626 0.00439462L21.3223 0.00439486C21.6883 0.00439486 22.0264 0.200153 22.2088 0.517739L26.6769 8.29322C26.9085 8.69645 26.8397 9.20539 26.5092 9.53238L14.2108 21.7001C13.8124 22.0942 13.1716 22.0942 12.7732 21.7001L0.491419 9.54882C0.15324 9.21424 0.0899142 8.69046 0.338595 8.2847L5.11457 0.492792C5.30058 0.189334 5.63064 0.00439462 5.98626 0.00439462ZM19.3422 3.47588L19.3422 5.65758L14.9735 5.65758L14.9735 7.1702C18.0418 7.33186 20.3438 7.99574 20.3609 8.79149L20.3608 10.4504C20.3437 11.2462 18.0418 11.9101 14.9735 12.0717L14.9735 15.7839L12.0727 15.7839L12.0727 12.0717C9.00444 11.9101 6.70247 11.2462 6.68543 10.4504L6.68548 8.79149C6.70258 7.99574 9.00444 7.33186 12.0727 7.1702L12.0727 5.65758L7.70406 5.65758L7.70406 3.47588L19.3422 3.47588ZM13.5232 10.932C16.7975 10.932 19.5343 10.3707 20.2041 9.62099C19.6361 8.98525 17.5817 8.48489 14.9735 8.34747L14.9735 9.93122C14.5061 9.95585 14.0208 9.96882 13.5232 9.96882C13.0254 9.96882 12.5402 9.95585 12.0727 9.93122L12.0727 8.34747C9.46457 8.48489 7.41015 8.98525 6.84219 9.62099C7.51195 10.3707 10.2488 10.932 13.5232 10.932Z" fill="#009393"/>
</svg>
